<?xml version="1.0" encoding="utf-8"?>
<!-- Generator: Adobe Illustrator 29.8.2, SVG Export Plug-In . SVG Version: 9.03 Build 0)  -->
<svg version="1.1" xmlns="http://www.w3.org/2000/svg" xmlns:xlink="http://www.w3.org/1999/xlink" x="0px" y="0px"
	 viewBox="0 0 300 480" style="enable-background:new 0 0 300 480;" xml:space="preserve">
<style type="text/css">
	.st0{display:none;}
	.st1{display:inline;fill:#993333;}
	.st2{display:inline;}
	.st3{fill:none;stroke:#000000;stroke-width:5;stroke-miterlimit:10;}
	.st4{fill:none;stroke:#000000;stroke-width:4;stroke-miterlimit:10;}
	.st5{fill:#FFFFFF;}
</style>
<g id="Layer_3" class="st0">
	<rect x="-17" y="-7" class="st1" width="350" height="503"/>
	<g class="st2">
		<g>
			<circle cx="466" cy="330" r="25"/>
		</g>
		<rect x="414" y="305" width="52" height="50"/>
		<g>
			<circle cx="414" cy="330" r="25"/>
		</g>
		<rect x="419.74" y="315.21" style="fill:none;" width="42.52" height="34.58"/>
		<text transform="matrix(1 0 0 1 429.4409 343.4276)" class="st5" style="font-family:'Futura-Bold'; font-size:34px;">1</text>
	</g>
</g>
<g id="Layer_1">
	<rect x="68.86" y="137.32" class="st3" width="162.28" height="285.01"/>
	<g>
		<line class="st3" x1="68.54" y1="207.58" x2="231.46" y2="207.58"/>
		<line class="st3" x1="69.99" y1="279.82" x2="230.01" y2="279.82"/>
		<line class="st3" x1="69.99" y1="352.06" x2="230.01" y2="352.06"/>
	</g>
	<g>
		<line class="st4" x1="121.45" y1="138" x2="121.45" y2="424"/>
		<line class="st4" x1="178.55" y1="138" x2="178.55" y2="424"/>
	</g>
</g>
<g id="Text">
	<g>
		<path d="M156.71,98.75h-15.12l-2.43,7.07h-11.29l15.5-40.72h11.56l15.5,40.72h-11.29L156.71,98.75z M153.9,90.7l-4.75-13.55
			L144.4,90.7H153.9z"/>
		<path d="M179.71,61h4.86l-0.97,7.4l6.75-3.13l1.51,4.54l-7.34,1.4l5.13,5.4l-3.94,2.86l-3.56-6.53l-3.56,6.53l-3.89-2.86l5.08-5.4
			l-7.29-1.4l1.46-4.54l6.7,3.19L179.71,61z"/>
	</g>
	<g>
		<g>
			<circle cx="121" cy="243" r="25"/>
		</g>
		<g>
			<path class="st5" d="M118.45,236.44h-3.74v-5.64h10.4v25.64h-6.66V236.44z"/>
		</g>
	</g>
	<g>
		<g>
			<circle cx="69" cy="388" r="25"/>
		</g>
		<g>
			<path class="st5" d="M67.61,385.79c0.18,0.02,0.33,0.03,0.46,0.03c0.12,0,0.23,0,0.32,0c0.84,0,1.52-0.25,2.04-0.75
				c0.52-0.5,0.78-1.14,0.78-1.94c0-0.77-0.24-1.39-0.73-1.87c-0.49-0.48-1.12-0.71-1.89-0.71c-0.82,0-1.47,0.27-1.97,0.82
				c-0.5,0.54-0.75,1.25-0.75,2.11h-6.15c0.16-1.34,0.49-2.53,1-3.57c0.51-1.04,1.16-1.92,1.96-2.63c0.79-0.71,1.72-1.26,2.79-1.63
				c1.06-0.37,2.24-0.56,3.54-0.56c1.27,0,2.42,0.18,3.45,0.53s1.92,0.85,2.65,1.5c0.74,0.65,1.3,1.43,1.7,2.35
				c0.4,0.92,0.59,1.94,0.59,3.08c0,1.22-0.23,2.23-0.7,3.01c-0.46,0.78-1.13,1.46-1.99,2.02c1.31,0.41,2.34,1.14,3.08,2.19
				c0.74,1.05,1.11,2.35,1.11,3.89c0,1.27-0.25,2.43-0.75,3.47c-0.5,1.04-1.2,1.94-2.09,2.69c-0.9,0.75-1.96,1.33-3.2,1.73
				c-1.24,0.41-2.59,0.61-4.06,0.61c-1.97,0-3.75-0.39-5.34-1.16c-1.59-0.77-2.86-1.99-3.81-3.67c-0.43-0.75-0.72-1.5-0.87-2.24
				s-0.22-1.51-0.22-2.28h6.6c0.04,1.2,0.4,2.11,1.05,2.74c0.66,0.62,1.54,0.94,2.65,0.94c1.18,0,2.04-0.32,2.58-0.95
				s0.82-1.42,0.82-2.35c0-1.11-0.33-1.95-0.99-2.52c-0.66-0.57-1.44-0.85-2.35-0.85c-0.23,0-0.44,0.02-0.65,0.05
				s-0.43,0.07-0.68,0.12V385.79z"/>
		</g>
	</g>
	<g>
		<path d="M56.56,153.03H23.78l10.1-10.48c2.66-2.77,4.75-5.12,6.26-7.05c1.51-1.92,2.64-3.55,3.38-4.89
			c0.74-1.33,1.2-2.41,1.38-3.24c0.18-0.83,0.27-1.53,0.27-2.11c0-0.61-0.1-1.21-0.3-1.78c-0.2-0.58-0.5-1.09-0.89-1.54
			c-0.4-0.45-0.87-0.81-1.43-1.08c-0.56-0.27-1.22-0.4-1.97-0.4c-1.44,0-2.56,0.47-3.38,1.4c-0.81,0.94-1.21,2.11-1.21,3.51
			c0,0.4,0.05,0.97,0.16,1.73H24.59c0-2.38,0.39-4.54,1.16-6.48c0.77-1.94,1.86-3.62,3.27-5.02c1.4-1.4,3.07-2.48,5-3.24
			c1.93-0.76,4.04-1.13,6.34-1.13c2.27,0,4.37,0.36,6.29,1.08c1.93,0.72,3.59,1.73,5,3.02s2.5,2.83,3.29,4.62
			c0.79,1.78,1.19,3.72,1.19,5.81c0,2.23-0.48,4.29-1.43,6.18s-2.48,3.83-4.56,5.8l-6.75,6.32h13.18V153.03z"/>
	</g>
</g>
</svg>
