<?xml version="1.0" encoding="utf-8"?>
<!-- Generator: Adobe Illustrator 29.8.2, SVG Export Plug-In . SVG Version: 9.03 Build 0)  -->
<svg version="1.1" xmlns="http://www.w3.org/2000/svg" xmlns:xlink="http://www.w3.org/1999/xlink" x="0px" y="0px"
	 viewBox="0 0 300 480" style="enable-background:new 0 0 300 480;" xml:space="preserve">
<style type="text/css">
	.st0{display:none;}
	.st1{display:inline;fill:#993333;}
	.st2{fill:none;stroke:#000000;stroke-width:5;stroke-miterlimit:10;}
	.st3{fill:none;stroke:#000000;stroke-width:4;stroke-miterlimit:10;}
	.st4{fill:#FFFFFF;}
</style>
<g id="Layer_3" class="st0">
	<rect x="-17" y="-7" class="st1" width="350" height="503"/>
</g>
<g id="Layer_1">
	<rect x="68.86" y="137.32" class="st2" width="162.28" height="285.01"/>
	<g>
		<line class="st2" x1="68.54" y1="207.58" x2="231.46" y2="207.58"/>
		<line class="st2" x1="69.99" y1="279.82" x2="230.01" y2="279.82"/>
		<line class="st2" x1="69.99" y1="352.06" x2="230.01" y2="352.06"/>
	</g>
	<g>
		<line class="st3" x1="121.45" y1="138" x2="121.45" y2="424"/>
		<line class="st3" x1="178.55" y1="138" x2="178.55" y2="424"/>
	</g>
</g>
<g id="Text">
	<g>
		<g>
			<circle cx="121" cy="243" r="25"/>
		</g>
		<g>
			<path class="st4" d="M118.45,236.44h-3.74v-5.64h10.4v25.64h-6.66V236.44z"/>
		</g>
	</g>
	<g>
		<path d="M75.29,98.75H60.17l-2.43,7.07H46.46l15.5-40.72h11.56l15.5,40.72H77.72L75.29,98.75z M72.49,90.7l-4.75-13.55L62.98,90.7
			H72.49z"/>
		<path d="M110.72,74.07H93.71V65.1h33.43l-23.33,40.72H92.14L110.72,74.07z"/>
		<path d="M147.81,85.25c-1.8-0.94-3.56-1.4-5.29-1.4c-0.9,0-1.63,0.18-2.19,0.54c-0.56,0.36-0.84,0.85-0.84,1.46
			c0,0.32,0.04,0.59,0.14,0.78c0.09,0.2,0.29,0.39,0.59,0.57c0.31,0.18,0.76,0.34,1.35,0.49c0.59,0.14,1.38,0.32,2.35,0.54
			c2.7,0.54,4.72,1.5,6.05,2.89c1.33,1.39,2,3.16,2,5.32c0,1.62-0.32,3.08-0.97,4.37c-0.65,1.3-1.55,2.39-2.7,3.27
			c-1.15,0.88-2.54,1.57-4.16,2.05c-1.62,0.49-3.4,0.73-5.35,0.73c-3.75,0-7.43-1.06-11.07-3.19l3.56-6.91
			c2.74,1.87,5.33,2.81,7.78,2.81c0.9,0,1.64-0.2,2.21-0.59c0.58-0.4,0.86-0.9,0.86-1.51c0-0.36-0.05-0.66-0.13-0.89
			c-0.09-0.23-0.28-0.45-0.57-0.65c-0.29-0.2-0.71-0.38-1.27-0.54c-0.56-0.16-1.29-0.33-2.19-0.51c-3.02-0.61-5.14-1.52-6.34-2.73
			c-1.21-1.21-1.81-2.87-1.81-5c0-1.55,0.29-2.94,0.86-4.19c0.58-1.24,1.4-2.29,2.48-3.16c1.08-0.86,2.38-1.53,3.92-2
			c1.53-0.47,3.23-0.7,5.1-0.7c3.06,0,6.03,0.59,8.91,1.78L147.81,85.25z"/>
		<path d="M166.71,78.12v15.61c0,3.42,1.66,5.13,4.97,5.13c3.31,0,4.97-1.71,4.97-5.13V78.12h9.77v17.5c0,3.74-1.23,6.55-3.7,8.42
			c-2.47,1.87-6.15,2.81-11.04,2.81c-4.9,0-8.58-0.94-11.04-2.81c-2.47-1.87-3.7-4.68-3.7-8.42v-17.5H166.71z"/>
		<path d="M211.43,85.25c-1.8-0.94-3.56-1.4-5.29-1.4c-0.9,0-1.63,0.18-2.19,0.54c-0.56,0.36-0.84,0.85-0.84,1.46
			c0,0.32,0.04,0.59,0.14,0.78c0.09,0.2,0.29,0.39,0.59,0.57c0.31,0.18,0.76,0.34,1.35,0.49c0.59,0.14,1.38,0.32,2.35,0.54
			c2.7,0.54,4.72,1.5,6.05,2.89c1.33,1.39,2,3.16,2,5.32c0,1.62-0.32,3.08-0.97,4.37c-0.65,1.3-1.55,2.39-2.7,3.27
			c-1.15,0.88-2.54,1.57-4.16,2.05c-1.62,0.49-3.4,0.73-5.35,0.73c-3.75,0-7.43-1.06-11.07-3.19l3.56-6.91
			c2.74,1.87,5.33,2.81,7.78,2.81c0.9,0,1.64-0.2,2.21-0.59c0.58-0.4,0.86-0.9,0.86-1.51c0-0.36-0.05-0.66-0.13-0.89
			c-0.09-0.23-0.28-0.45-0.57-0.65c-0.29-0.2-0.71-0.38-1.27-0.54c-0.56-0.16-1.29-0.33-2.19-0.51c-3.02-0.61-5.14-1.52-6.34-2.73
			c-1.21-1.21-1.81-2.87-1.81-5c0-1.55,0.29-2.94,0.86-4.19c0.58-1.24,1.4-2.29,2.48-3.16c1.08-0.86,2.38-1.53,3.92-2
			c1.53-0.47,3.23-0.7,5.1-0.7c3.06,0,6.03,0.59,8.91,1.78L211.43,85.25z"/>
		<path d="M247.44,89.35h4.91v8.1h-4.91v8.37h-9.83v-8.37h-19.66v-6.8l15.55-25.54h13.93V89.35z M237.62,89.35V73.31l-9.34,16.04
			H237.62z"/>
	</g>
	<path d="M237.58,140H62.42c-1.89,0-3.42-1.53-3.42-3.42v-4.8c0-1.89,1.53-3.42,3.42-3.42h175.16c1.89,0,3.42,1.53,3.42,3.42v4.8
		C241,138.47,239.47,140,237.58,140z"/>
</g>
</svg>
