<?xml version="1.0" encoding="utf-8"?>
<!-- Generator: Adobe Illustrator 29.8.2, SVG Export Plug-In . SVG Version: 9.03 Build 0)  -->
<svg version="1.1" xmlns="http://www.w3.org/2000/svg" xmlns:xlink="http://www.w3.org/1999/xlink" x="0px" y="0px"
	 viewBox="0 0 300 480" style="enable-background:new 0 0 300 480;" xml:space="preserve">
<style type="text/css">
	.st0{display:none;}
	.st1{display:inline;fill:#993333;}
	.st2{fill:none;stroke:#000000;stroke-width:5;stroke-miterlimit:10;}
	.st3{fill:none;stroke:#000000;stroke-width:4;stroke-miterlimit:10;}
	.st4{fill:#FFFFFF;}
</style>
<g id="Layer_3" class="st0">
	<rect x="-17" y="-7" class="st1" width="350" height="503"/>
</g>
<g id="Layer_1">
	<rect x="68.86" y="137.32" class="st2" width="162.28" height="285.01"/>
	<g>
		<line class="st2" x1="68.54" y1="207.58" x2="231.46" y2="207.58"/>
		<line class="st2" x1="69.99" y1="279.82" x2="230.01" y2="279.82"/>
		<line class="st2" x1="69.99" y1="352.06" x2="230.01" y2="352.06"/>
	</g>
	<g>
		<line class="st3" x1="121.45" y1="138" x2="121.45" y2="424"/>
		<line class="st3" x1="178.55" y1="138" x2="178.55" y2="424"/>
	</g>
</g>
<g id="Text">
	<g>
		<path d="M157.56,98.75h-15.12l-2.43,7.07h-11.29l15.5-40.72h11.56l15.5,40.72h-11.29L157.56,98.75z M154.75,90.7L150,77.15
			l-4.75,13.55H154.75z"/>
	</g>
	<g>
		<circle cx="69" cy="172" r="25"/>
	</g>
	<g>
		<circle cx="230" cy="172" r="25"/>
	</g>
	<rect x="66" y="147.25" width="165" height="50"/>
	<g>
		<path class="st4" d="M147.45,163.15h-3.74v-5.64h10.4v25.64h-6.66V163.15z"/>
	</g>
	<g>
		<circle cx="69" cy="316" r="25"/>
	</g>
	<g>
		<path class="st4" d="M67.44,314.81c0.18,0.02,0.33,0.03,0.46,0.03c0.12,0,0.23,0,0.32,0c0.84,0,1.52-0.25,2.04-0.75
			c0.52-0.5,0.78-1.14,0.78-1.94c0-0.77-0.24-1.39-0.73-1.87c-0.49-0.48-1.12-0.71-1.89-0.71c-0.82,0-1.47,0.27-1.97,0.82
			c-0.5,0.54-0.75,1.25-0.75,2.11h-6.15c0.16-1.34,0.49-2.53,1-3.57s1.16-1.92,1.96-2.64c0.79-0.71,1.72-1.26,2.79-1.63
			c1.06-0.37,2.24-0.56,3.54-0.56c1.27,0,2.42,0.18,3.45,0.53c1.03,0.35,1.92,0.85,2.65,1.5c0.74,0.65,1.3,1.43,1.7,2.35
			c0.4,0.92,0.59,1.94,0.59,3.08c0,1.22-0.23,2.23-0.7,3.01s-1.13,1.46-1.99,2.02c1.31,0.41,2.34,1.14,3.08,2.19
			c0.74,1.05,1.11,2.35,1.11,3.89c0,1.27-0.25,2.43-0.75,3.47c-0.5,1.04-1.2,1.94-2.09,2.69c-0.9,0.75-1.96,1.33-3.2,1.73
			c-1.24,0.41-2.59,0.61-4.06,0.61c-1.97,0-3.75-0.39-5.34-1.16c-1.59-0.77-2.86-1.99-3.81-3.67c-0.43-0.75-0.72-1.5-0.87-2.24
			s-0.22-1.51-0.22-2.28H65c0.04,1.2,0.4,2.11,1.05,2.74c0.66,0.62,1.54,0.94,2.65,0.94c1.18,0,2.04-0.32,2.58-0.95
			s0.82-1.42,0.82-2.35c0-1.11-0.33-1.95-0.99-2.52c-0.66-0.57-1.44-0.85-2.35-0.85c-0.23,0-0.44,0.02-0.65,0.05
			s-0.43,0.07-0.68,0.12V314.81z"/>
	</g>
	<g>
		<circle cx="179" cy="244" r="25"/>
	</g>
	<g>
		<path class="st4" d="M188.87,258.45h-20.64l6.36-6.6c1.68-1.75,2.99-3.22,3.94-4.44c0.95-1.21,1.66-2.24,2.12-3.08
			c0.46-0.84,0.75-1.52,0.87-2.04c0.11-0.52,0.17-0.96,0.17-1.33c0-0.39-0.06-0.76-0.19-1.12c-0.12-0.36-0.31-0.69-0.56-0.97
			c-0.25-0.28-0.55-0.51-0.9-0.68s-0.76-0.25-1.24-0.25c-0.91,0-1.62,0.29-2.12,0.88c-0.51,0.59-0.77,1.33-0.77,2.21
			c0,0.25,0.03,0.61,0.1,1.09h-7.28c0-1.5,0.24-2.86,0.73-4.08c0.49-1.22,1.17-2.28,2.06-3.16s1.93-1.56,3.14-2.04
			c1.21-0.48,2.54-0.71,4-0.71c1.43,0,2.75,0.23,3.96,0.68c1.21,0.45,2.26,1.09,3.15,1.9s1.58,1.79,2.07,2.91
			c0.5,1.12,0.75,2.34,0.75,3.66c0,1.41-0.3,2.7-0.9,3.89c-0.6,1.19-1.56,2.41-2.87,3.66l-4.25,3.98h8.3V258.45z"/>
	</g>
	<g>
		<path d="M282.16,173.69h3.09v5.1h-3.09v5.27h-6.19v-5.27h-12.38v-4.28l9.79-16.08h8.77V173.69z M275.97,173.69v-10.1l-5.88,10.1
			H275.97z"/>
	</g>
</g>
</svg>
