<?xml version="1.0" encoding="utf-8"?>
<!-- Generator: Adobe Illustrator 29.8.2, SVG Export Plug-In . SVG Version: 9.03 Build 0)  -->
<svg version="1.1" xmlns="http://www.w3.org/2000/svg" xmlns:xlink="http://www.w3.org/1999/xlink" x="0px" y="0px"
	 viewBox="0 0 300 480" style="enable-background:new 0 0 300 480;" xml:space="preserve">
<style type="text/css">
	.st0{display:none;}
	.st1{display:inline;fill:#993333;}
	.st2{display:inline;}
	.st3{fill:none;stroke:#000000;stroke-width:5;stroke-miterlimit:10;}
	.st4{fill:none;stroke:#000000;stroke-width:4;stroke-miterlimit:10;}
	.st5{fill:#FFFFFF;}
</style>
<g id="Layer_3" class="st0">
	<rect x="-17" y="-7" class="st1" width="350" height="503"/>
	<g class="st2">
		<g>
			<circle cx="466" cy="330" r="25"/>
		</g>
		<rect x="414" y="305" width="52" height="50"/>
		<g>
			<circle cx="414" cy="330" r="25"/>
		</g>
		<rect x="419.74" y="315.21" style="fill:none;" width="42.52" height="34.58"/>
		<text transform="matrix(1 0 0 1 429.4409 343.4276)" class="st5" style="font-family:'Futura-Bold'; font-size:34px;">1</text>
	</g>
</g>
<g id="Layer_1">
	<rect x="68.86" y="137.32" class="st3" width="162.28" height="285.01"/>
	<g>
		<line class="st3" x1="68.54" y1="207.58" x2="231.46" y2="207.58"/>
		<line class="st3" x1="69.99" y1="279.82" x2="230.01" y2="279.82"/>
		<line class="st3" x1="69.99" y1="352.06" x2="230.01" y2="352.06"/>
	</g>
	<g>
		<line class="st4" x1="121.45" y1="138" x2="121.45" y2="424"/>
		<line class="st4" x1="178.55" y1="138" x2="178.55" y2="424"/>
	</g>
</g>
<g id="Text">
	<g>
		<path d="M55.34,98.75H40.22l-2.43,7.07H26.5L42,65.1h11.56l15.5,40.72H57.77L55.34,98.75z M52.53,90.7l-4.75-13.55L43.03,90.7
			H52.53z"/>
		<path d="M73.37,78.12h9.77v3.4c2.66-2.56,5.65-3.83,8.96-3.83c4.1,0,7.24,1.73,9.4,5.18c2.2-3.49,5.33-5.24,9.4-5.24
			c1.3,0,2.52,0.19,3.67,0.57s2.14,0.97,2.97,1.78s1.49,1.86,1.97,3.16c0.49,1.3,0.73,2.86,0.73,4.7v17.98h-9.77V92.16
			c0-1.4-0.1-2.56-0.3-3.46c-0.2-0.9-0.49-1.6-0.86-2.11c-0.38-0.5-0.82-0.85-1.32-1.03c-0.5-0.18-1.04-0.27-1.62-0.27
			c-3.13,0-4.7,2.29-4.7,6.86v13.66H91.9V92.16c0-1.4-0.09-2.56-0.27-3.48s-0.44-1.65-0.78-2.19c-0.34-0.54-0.78-0.91-1.32-1.11
			c-0.54-0.2-1.17-0.3-1.89-0.3c-0.61,0-1.19,0.09-1.73,0.27c-0.54,0.18-1.02,0.53-1.43,1.05c-0.42,0.52-0.74,1.24-0.97,2.16
			s-0.35,2.12-0.35,3.59v13.66h-9.77V78.12z"/>
		<path d="M148.33,78.12h9.83v27.7h-9.83v-3.08c-2.09,2.63-4.91,3.94-8.48,3.94c-2.02,0-3.87-0.37-5.56-1.11
			c-1.69-0.74-3.17-1.77-4.43-3.1c-1.26-1.33-2.24-2.9-2.94-4.7c-0.7-1.8-1.05-3.76-1.05-5.89c0-1.98,0.34-3.86,1.03-5.64
			c0.68-1.78,1.64-3.34,2.86-4.67c1.22-1.33,2.68-2.38,4.37-3.16c1.69-0.77,3.56-1.16,5.62-1.16c3.46,0,6.32,1.21,8.59,3.62V78.12z
			 M136.01,91.89c0,0.9,0.16,1.74,0.49,2.51c0.32,0.77,0.76,1.45,1.32,2.02c0.56,0.58,1.22,1.03,2,1.35
			c0.77,0.32,1.61,0.49,2.51,0.49c0.86,0,1.68-0.16,2.46-0.49c0.77-0.32,1.44-0.77,2-1.35c0.56-0.58,1.01-1.24,1.35-2
			c0.34-0.76,0.51-1.57,0.51-2.43c0-0.86-0.17-1.68-0.51-2.46c-0.34-0.77-0.79-1.45-1.35-2.03c-0.56-0.58-1.22-1.03-2-1.35
			c-0.77-0.32-1.59-0.49-2.46-0.49c-0.9,0-1.74,0.16-2.51,0.49c-0.77,0.32-1.44,0.77-2,1.35c-0.56,0.58-1,1.23-1.32,1.97
			C136.18,90.22,136.01,91.02,136.01,91.89z"/>
		<path d="M186.18,61h9.83v44.82h-9.83v-3.08c-2.09,2.63-4.91,3.94-8.48,3.94c-2.02,0-3.87-0.38-5.56-1.13
			c-1.69-0.76-3.17-1.8-4.43-3.13c-1.26-1.33-2.24-2.9-2.94-4.7c-0.7-1.8-1.05-3.74-1.05-5.83c0-1.98,0.33-3.86,1-5.64
			c0.67-1.78,1.61-3.34,2.83-4.67c1.22-1.33,2.69-2.38,4.4-3.16c1.71-0.77,3.59-1.16,5.64-1.16c3.46,0,6.32,1.21,8.59,3.62V61z
			 M173.87,91.89c0,0.9,0.16,1.74,0.49,2.51c0.32,0.77,0.76,1.45,1.32,2.02c0.56,0.58,1.22,1.03,2,1.35
			c0.77,0.32,1.61,0.49,2.51,0.49c0.86,0,1.68-0.16,2.46-0.49c0.77-0.32,1.44-0.77,2-1.35c0.56-0.58,1.01-1.24,1.35-2
			c0.34-0.76,0.51-1.57,0.51-2.43c0-0.86-0.17-1.68-0.51-2.46c-0.34-0.77-0.79-1.45-1.35-2.03c-0.56-0.58-1.22-1.03-2-1.35
			c-0.77-0.32-1.59-0.49-2.46-0.49c-0.86,0-1.68,0.16-2.46,0.49c-0.77,0.32-1.44,0.77-2,1.35c-0.56,0.58-1.01,1.23-1.35,1.97
			C174.04,90.22,173.87,91.02,173.87,91.89z"/>
		<path d="M224.03,61h9.83v44.82h-9.83v-3.08c-2.09,2.63-4.91,3.94-8.48,3.94c-2.02,0-3.87-0.38-5.56-1.13
			c-1.69-0.76-3.17-1.8-4.43-3.13c-1.26-1.33-2.24-2.9-2.94-4.7c-0.7-1.8-1.05-3.74-1.05-5.83c0-1.98,0.33-3.86,1-5.64
			c0.67-1.78,1.61-3.34,2.83-4.67c1.22-1.33,2.69-2.38,4.4-3.16c1.71-0.77,3.59-1.16,5.64-1.16c3.46,0,6.32,1.21,8.59,3.62V61z
			 M211.72,91.89c0,0.9,0.16,1.74,0.49,2.51c0.32,0.77,0.76,1.45,1.32,2.02c0.56,0.58,1.22,1.03,2,1.35
			c0.77,0.32,1.61,0.49,2.51,0.49c0.86,0,1.68-0.16,2.46-0.49c0.77-0.32,1.44-0.77,2-1.35c0.56-0.58,1.01-1.24,1.35-2
			c0.34-0.76,0.51-1.57,0.51-2.43c0-0.86-0.17-1.68-0.51-2.46c-0.34-0.77-0.79-1.45-1.35-2.03c-0.56-0.58-1.22-1.03-2-1.35
			c-0.77-0.32-1.59-0.49-2.46-0.49c-0.86,0-1.68,0.16-2.46,0.49c-0.77,0.32-1.44,0.77-2,1.35c-0.56,0.58-1.01,1.23-1.35,1.97
			C211.89,90.22,211.72,91.02,211.72,91.89z"/>
		<path d="M244.77,105.82l11.56-13.28h-0.22c-1.01,0.61-1.84,0.98-2.48,1.11c-0.65,0.13-1.22,0.19-1.73,0.19
			c-1.98,0-3.81-0.38-5.48-1.13s-3.11-1.79-4.32-3.1c-1.21-1.31-2.15-2.85-2.83-4.62c-0.68-1.76-1.03-3.65-1.03-5.67
			c0-2.16,0.4-4.17,1.19-6.02c0.79-1.85,1.94-3.47,3.43-4.86c1.49-1.39,3.3-2.47,5.43-3.27c2.12-0.79,4.52-1.19,7.18-1.19
			c2.7,0,5.11,0.4,7.24,1.19c2.12,0.79,3.93,1.87,5.43,3.24c1.49,1.37,2.64,2.96,3.43,4.78c0.79,1.82,1.19,3.75,1.19,5.81
			c0,2.3-0.51,4.8-1.54,7.48c-1.03,2.68-2.6,5.32-4.72,7.91l-9.45,11.45H244.77z M262.27,79.09c0-0.94-0.18-1.81-0.54-2.62
			c-0.36-0.81-0.85-1.52-1.46-2.13c-0.61-0.61-1.32-1.1-2.13-1.46c-0.81-0.36-1.68-0.54-2.62-0.54c-0.94,0-1.81,0.18-2.62,0.54
			c-0.81,0.36-1.52,0.85-2.13,1.46c-0.61,0.61-1.1,1.32-1.46,2.13c-0.36,0.81-0.54,1.68-0.54,2.62c0,0.94,0.18,1.81,0.54,2.62
			c0.36,0.81,0.84,1.52,1.46,2.13c0.61,0.61,1.32,1.1,2.13,1.46c0.81,0.36,1.68,0.54,2.62,0.54c0.94,0,1.81-0.18,2.62-0.54
			c0.81-0.36,1.52-0.85,2.13-1.46c0.61-0.61,1.1-1.32,1.46-2.13C262.08,80.9,262.27,80.03,262.27,79.09z"/>
	</g>
	<path d="M237.58,140H62.42c-1.89,0-3.42-1.53-3.42-3.42v-4.8c0-1.89,1.53-3.42,3.42-3.42h175.16c1.89,0,3.42,1.53,3.42,3.42v4.8
		C241,138.47,239.47,140,237.58,140z"/>
	<g>
		<g>
			<circle cx="69" cy="386" r="25"/>
		</g>
		<g>
			<path class="st5" d="M67.61,383.79c0.18,0.02,0.33,0.03,0.46,0.03c0.12,0,0.23,0,0.32,0c0.84,0,1.52-0.25,2.04-0.75
				c0.52-0.5,0.78-1.14,0.78-1.94c0-0.77-0.24-1.39-0.73-1.87c-0.49-0.48-1.12-0.71-1.89-0.71c-0.82,0-1.47,0.27-1.97,0.82
				c-0.5,0.54-0.75,1.25-0.75,2.11h-6.15c0.16-1.34,0.49-2.53,1-3.57c0.51-1.04,1.16-1.92,1.96-2.63c0.79-0.71,1.72-1.26,2.79-1.63
				c1.06-0.37,2.24-0.56,3.54-0.56c1.27,0,2.42,0.18,3.45,0.53s1.92,0.85,2.65,1.5c0.74,0.65,1.3,1.43,1.7,2.35
				c0.4,0.92,0.59,1.94,0.59,3.08c0,1.22-0.23,2.23-0.7,3.01c-0.46,0.78-1.13,1.46-1.99,2.02c1.31,0.41,2.34,1.14,3.08,2.19
				c0.74,1.05,1.11,2.35,1.11,3.89c0,1.27-0.25,2.43-0.75,3.47c-0.5,1.04-1.2,1.94-2.09,2.69c-0.9,0.75-1.96,1.33-3.2,1.73
				c-1.24,0.41-2.59,0.61-4.06,0.61c-1.97,0-3.75-0.39-5.34-1.16c-1.59-0.77-2.86-1.99-3.81-3.67c-0.43-0.75-0.72-1.5-0.87-2.24
				s-0.22-1.51-0.22-2.28h6.6c0.04,1.2,0.4,2.11,1.05,2.74c0.66,0.62,1.54,0.94,2.65,0.94c1.18,0,2.04-0.32,2.58-0.95
				s0.82-1.42,0.82-2.35c0-1.11-0.33-1.95-0.99-2.52c-0.66-0.57-1.44-0.85-2.35-0.85c-0.23,0-0.44,0.02-0.65,0.05
				s-0.43,0.07-0.68,0.12V383.79z"/>
		</g>
	</g>
</g>
</svg>
