<?xml version="1.0" encoding="utf-8"?>
<!-- Generator: Adobe Illustrator 29.8.2, SVG Export Plug-In . SVG Version: 9.03 Build 0)  -->
<svg version="1.1" xmlns="http://www.w3.org/2000/svg" xmlns:xlink="http://www.w3.org/1999/xlink" x="0px" y="0px"
	 viewBox="0 0 300 480" style="enable-background:new 0 0 300 480;" xml:space="preserve">
<style type="text/css">
	.st0{display:none;}
	.st1{display:inline;fill:#993333;}
	.st2{fill:none;stroke:#000000;stroke-width:5;stroke-miterlimit:10;}
	.st3{fill:none;stroke:#000000;stroke-width:4;stroke-miterlimit:10;}
	.st4{fill:#FFFFFF;}
</style>
<g id="Layer_3" class="st0">
	<rect x="-17" y="-7" class="st1" width="350" height="503"/>
</g>
<g id="Layer_1">
	<rect x="68.86" y="137.32" class="st2" width="162.28" height="285.01"/>
	<g>
		<line class="st2" x1="68.54" y1="207.58" x2="231.46" y2="207.58"/>
		<line class="st2" x1="69.99" y1="279.82" x2="230.01" y2="279.82"/>
		<line class="st2" x1="69.99" y1="352.06" x2="230.01" y2="352.06"/>
	</g>
	<g>
		<line class="st3" x1="121.45" y1="138" x2="121.45" y2="424"/>
		<line class="st3" x1="178.55" y1="138" x2="178.55" y2="424"/>
	</g>
</g>
<g id="Text">
	<g>
		<path d="M90.44,65.1h15.77c3.74,0,6.59,0.9,8.53,2.7c1.94,1.8,2.92,4.39,2.92,7.78c0,2.05-0.37,3.75-1.11,5.1
			c-0.74,1.35-1.86,2.49-3.38,3.43c1.51,0.29,2.8,0.73,3.86,1.32c1.06,0.59,1.92,1.32,2.59,2.19c0.67,0.86,1.14,1.84,1.43,2.92
			c0.29,1.08,0.43,2.23,0.43,3.46c0,1.91-0.33,3.6-1,5.08c-0.67,1.48-1.6,2.72-2.81,3.73c-1.21,1.01-2.67,1.76-4.4,2.27
			c-1.73,0.5-3.67,0.76-5.83,0.76H90.44V65.1z M101.02,81.09h1.94c3.31,0,4.97-1.31,4.97-3.94c0-2.63-1.66-3.94-4.97-3.94h-1.94
			V81.09z M101.02,97.61h2.32c2.66,0,4.57-0.34,5.72-1.03c1.15-0.68,1.73-1.78,1.73-3.29c0-1.51-0.58-2.61-1.73-3.29
			c-1.15-0.68-3.06-1.03-5.72-1.03h-2.32V97.61z"/>
		<path d="M126.89,78.12h9.77v3.4c2.66-2.56,5.65-3.83,8.96-3.83c4.1,0,7.24,1.73,9.4,5.18c2.2-3.49,5.33-5.24,9.4-5.24
			c1.3,0,2.52,0.19,3.67,0.57s2.14,0.97,2.97,1.78s1.49,1.86,1.97,3.16c0.49,1.3,0.73,2.86,0.73,4.7v17.98h-9.77V92.16
			c0-1.4-0.1-2.56-0.3-3.46c-0.2-0.9-0.49-1.6-0.86-2.11c-0.38-0.5-0.82-0.85-1.32-1.03c-0.5-0.18-1.04-0.27-1.62-0.27
			c-3.13,0-4.7,2.29-4.7,6.86v13.66h-9.77V92.16c0-1.4-0.09-2.56-0.27-3.48s-0.44-1.65-0.78-2.19c-0.34-0.54-0.78-0.91-1.32-1.11
			c-0.54-0.2-1.17-0.3-1.89-0.3c-0.61,0-1.19,0.09-1.73,0.27c-0.54,0.18-1.02,0.53-1.43,1.05c-0.42,0.52-0.74,1.24-0.97,2.16
			s-0.35,2.12-0.35,3.59v13.66h-9.77V78.12z"/>
		<path d="M198.44,74.07h-17.01V65.1h33.43l-23.33,40.72h-11.66L198.44,74.07z"/>
	</g>
	<path d="M237.58,140H62.42c-1.89,0-3.42-1.53-3.42-3.42v-4.8c0-1.89,1.53-3.42,3.42-3.42h175.16c1.89,0,3.42,1.53,3.42,3.42v4.8
		C241,138.47,239.47,140,237.58,140z"/>
	<g>
		<circle cx="69" cy="245" r="25"/>
	</g>
	<g>
		<circle cx="230" cy="245" r="25"/>
	</g>
	<rect x="66" y="220.25" width="165" height="50"/>
	<g>
		<path class="st4" d="M147.45,236.15h-3.74v-5.64h10.4v25.64h-6.66V236.15z"/>
	</g>
</g>
</svg>
