<?xml version="1.0" encoding="utf-8"?>
<!-- Generator: Adobe Illustrator 29.8.2, SVG Export Plug-In . SVG Version: 9.03 Build 0)  -->
<svg version="1.1" xmlns="http://www.w3.org/2000/svg" xmlns:xlink="http://www.w3.org/1999/xlink" x="0px" y="0px"
	 viewBox="0 0 300 480" style="enable-background:new 0 0 300 480;" xml:space="preserve">
<style type="text/css">
	.st0{display:none;}
	.st1{display:inline;fill:#993333;}
	.st2{fill:none;stroke:#000000;stroke-width:5;stroke-miterlimit:10;}
	.st3{fill:none;stroke:#000000;stroke-width:4;stroke-miterlimit:10;}
	.st4{fill:#FFFFFF;}
</style>
<g id="Layer_3" class="st0">
	<rect x="-17" y="-7" class="st1" width="350" height="503"/>
</g>
<g id="Layer_1">
	<rect x="68.86" y="137.32" class="st2" width="162.28" height="285.01"/>
	<g>
		<line class="st2" x1="68.54" y1="207.58" x2="231.46" y2="207.58"/>
		<line class="st2" x1="69.99" y1="279.82" x2="230.01" y2="279.82"/>
		<line class="st2" x1="69.99" y1="352.06" x2="230.01" y2="352.06"/>
	</g>
	<g>
		<line class="st3" x1="121.45" y1="138" x2="121.45" y2="424"/>
		<line class="st3" x1="178.55" y1="138" x2="178.55" y2="424"/>
	</g>
</g>
<g id="Text">
	<g>
		<path d="M35.25,65.1h15.77c3.74,0,6.59,0.9,8.53,2.7c1.94,1.8,2.92,4.39,2.92,7.78c0,2.05-0.37,3.75-1.11,5.1
			c-0.74,1.35-1.86,2.49-3.38,3.43c1.51,0.29,2.8,0.73,3.86,1.32c1.06,0.59,1.92,1.32,2.59,2.19c0.67,0.86,1.14,1.84,1.43,2.92
			c0.29,1.08,0.43,2.23,0.43,3.46c0,1.91-0.33,3.6-1,5.08c-0.67,1.48-1.6,2.72-2.81,3.73c-1.21,1.01-2.67,1.76-4.4,2.27
			c-1.73,0.5-3.67,0.76-5.83,0.76H35.25V65.1z M45.83,81.09h1.94c3.31,0,4.97-1.31,4.97-3.94c0-2.63-1.66-3.94-4.97-3.94h-1.94
			V81.09z M45.83,97.61h2.32c2.66,0,4.57-0.34,5.72-1.03c1.15-0.68,1.73-1.78,1.73-3.29c0-1.51-0.58-2.61-1.73-3.29
			c-1.15-0.68-3.06-1.03-5.72-1.03h-2.32V97.61z"/>
		<path d="M71.7,78.12h9.77v3.4c2.66-2.56,5.65-3.83,8.96-3.83c4.1,0,7.24,1.73,9.4,5.18c2.2-3.49,5.33-5.24,9.4-5.24
			c1.3,0,2.52,0.19,3.67,0.57s2.14,0.97,2.97,1.78s1.49,1.86,1.97,3.16c0.49,1.3,0.73,2.86,0.73,4.7v17.98h-9.77V92.16
			c0-1.4-0.1-2.56-0.3-3.46c-0.2-0.9-0.49-1.6-0.86-2.11c-0.38-0.5-0.82-0.85-1.32-1.03c-0.5-0.18-1.04-0.27-1.62-0.27
			c-3.13,0-4.7,2.29-4.7,6.86v13.66h-9.77V92.16c0-1.4-0.09-2.56-0.27-3.48s-0.44-1.65-0.78-2.19c-0.34-0.54-0.78-0.91-1.32-1.11
			c-0.54-0.2-1.17-0.3-1.89-0.3c-0.61,0-1.19,0.09-1.73,0.27c-0.54,0.18-1.02,0.53-1.43,1.05c-0.42,0.52-0.74,1.24-0.97,2.16
			s-0.35,2.12-0.35,3.59v13.66H71.7V78.12z"/>
		<path d="M143.25,74.07h-17.01V65.1h33.43l-23.33,40.72h-11.66L143.25,74.07z"/>
		<path d="M161.99,78.12h9.77v3.51c1.33-1.62,2.68-2.71,4.05-3.27c1.37-0.56,2.97-0.84,4.81-0.84c1.94,0,3.61,0.32,5,0.94
			c1.39,0.63,2.57,1.52,3.54,2.67c0.79,0.94,1.33,1.98,1.62,3.13c0.29,1.15,0.43,2.47,0.43,3.94v17.6h-9.77V91.83
			c0-1.37-0.1-2.48-0.3-3.32c-0.2-0.85-0.55-1.52-1.05-2.02c-0.43-0.43-0.92-0.74-1.46-0.92c-0.54-0.18-1.12-0.27-1.73-0.27
			c-1.66,0-2.92,0.5-3.81,1.48c-0.88,0.99-1.32,2.4-1.32,4.24v14.8h-9.77V78.12z"/>
		<path d="M196.76,91.73c0-2.05,0.41-3.97,1.24-5.75c0.83-1.78,1.98-3.33,3.46-4.64c1.48-1.31,3.23-2.35,5.27-3.11
			c2.03-0.76,4.26-1.13,6.67-1.13c2.38,0,4.58,0.37,6.61,1.11c2.03,0.74,3.8,1.76,5.29,3.08c1.49,1.31,2.66,2.88,3.48,4.7
			c0.83,1.82,1.24,3.83,1.24,6.02c0,2.2-0.42,4.2-1.27,6.02c-0.85,1.82-2.01,3.38-3.48,4.7c-1.48,1.31-3.25,2.33-5.32,3.05
			c-2.07,0.72-4.31,1.08-6.72,1.08c-2.38,0-4.57-0.36-6.59-1.08c-2.02-0.72-3.75-1.75-5.21-3.08c-1.46-1.33-2.6-2.92-3.43-4.78
			C197.18,96.05,196.76,93.99,196.76,91.73z M207.08,91.83c0,0.94,0.17,1.79,0.51,2.56c0.34,0.77,0.79,1.45,1.35,2.02
			c0.56,0.58,1.22,1.03,2,1.35c0.77,0.32,1.59,0.49,2.46,0.49c0.86,0,1.68-0.16,2.46-0.49c0.77-0.32,1.44-0.77,2-1.35
			c0.56-0.58,1.01-1.25,1.35-2.02c0.34-0.77,0.51-1.61,0.51-2.51c0-0.86-0.17-1.68-0.51-2.46c-0.34-0.77-0.79-1.45-1.35-2.02
			c-0.56-0.58-1.22-1.03-2-1.35c-0.78-0.32-1.59-0.49-2.46-0.49c-0.86,0-1.68,0.16-2.46,0.49c-0.78,0.32-1.44,0.77-2,1.35
			c-0.56,0.58-1.01,1.24-1.35,2C207.25,90.16,207.08,90.97,207.08,91.83z"/>
		<path d="M262.54,74.07h-14.09l-0.7,4.48c0.65-0.07,1.24-0.13,1.78-0.19s1.1-0.08,1.67-0.08c2.05,0,3.96,0.36,5.72,1.08
			c1.76,0.72,3.28,1.71,4.54,2.97c1.26,1.26,2.25,2.77,2.97,4.54c0.72,1.76,1.08,3.69,1.08,5.78c0,2.2-0.41,4.18-1.21,5.94
			c-0.81,1.76-1.95,3.27-3.43,4.51c-1.48,1.24-3.28,2.2-5.4,2.86c-2.12,0.67-4.48,1-7.07,1c-2.45,0-4.78-0.3-6.99-0.89
			c-2.21-0.59-4.29-1.5-6.24-2.73l1.57-9.94c1.8,1.55,3.64,2.73,5.51,3.54c1.87,0.81,3.65,1.21,5.35,1.21
			c2.16,0,3.87-0.58,5.13-1.75c1.26-1.17,1.89-2.62,1.89-4.35c0-2.02-0.85-3.65-2.54-4.89c-1.69-1.24-3.91-1.86-6.64-1.86
			c-1.22,0-2.48,0.14-3.78,0.4c-1.3,0.27-2.57,0.69-3.83,1.27l3.4-21.87h21.33V74.07z"/>
	</g>
	<g>
		<circle cx="69" cy="172" r="25"/>
	</g>
	<g>
		<circle cx="230" cy="172" r="25"/>
	</g>
	<rect x="66" y="147.25" width="165" height="50"/>
	<g>
		<path class="st4" d="M147.45,163.15h-3.74v-5.64h10.4v25.64h-6.66V163.15z"/>
	</g>
	<g>
		<g>
			<circle cx="179" cy="389" r="25"/>
		</g>
		<g>
			<path class="st4" d="M186.48,392.06h3.09v5.1h-3.09v5.27h-6.19v-5.27h-12.38v-4.28l9.79-16.08h8.77V392.06z M180.29,392.06v-10.1
				l-5.88,10.1H180.29z"/>
		</g>
	</g>
	<g>
		<path d="M40.66,191.12H7.88l10.1-10.48c2.66-2.77,4.75-5.12,6.26-7.05c1.51-1.93,2.64-3.55,3.38-4.89
			c0.74-1.33,1.2-2.41,1.38-3.24c0.18-0.83,0.27-1.53,0.27-2.11c0-0.61-0.1-1.21-0.3-1.78c-0.2-0.58-0.5-1.09-0.89-1.54
			c-0.4-0.45-0.87-0.81-1.43-1.08c-0.56-0.27-1.21-0.4-1.97-0.4c-1.44,0-2.56,0.47-3.38,1.4c-0.81,0.94-1.22,2.11-1.22,3.51
			c0,0.4,0.05,0.97,0.16,1.73H8.69c0-2.38,0.39-4.54,1.16-6.48c0.77-1.94,1.86-3.62,3.27-5.02c1.4-1.4,3.07-2.48,5-3.24
			c1.93-0.76,4.04-1.13,6.34-1.13c2.27,0,4.36,0.36,6.29,1.08c1.93,0.72,3.59,1.73,5,3.02s2.5,2.83,3.29,4.62
			c0.79,1.78,1.19,3.72,1.19,5.81c0,2.23-0.48,4.29-1.43,6.18c-0.95,1.89-2.48,3.83-4.56,5.8l-6.75,6.32h13.18V191.12z"/>
	</g>
</g>
</svg>
