<?xml version="1.0" encoding="UTF-8"?>
<svg xmlns="http://www.w3.org/2000/svg" width="300" height="480" xmlns:xlink="http://www.w3.org/1999/xlink" viewBox="0 0 300 480">
  <defs>
    <filter id="drop-shadow-1" x="44" y="290" width="50" height="50" filterUnits="userSpaceOnUse">
      <feOffset dx="6.33" dy="6.33"/>
      <feGaussianBlur result="blur" stdDeviation="4.52"/>
      <feFlood flood-color="#231f20" flood-opacity=".75"/>
      <feComposite in2="blur" operator="in"/>
      <feComposite in="SourceGraphic"/>
    </filter>
    <filter id="drop-shadow-2" x="96" y="363" width="50" height="50" filterUnits="userSpaceOnUse">
      <feOffset dx="6.33" dy="6.33"/>
      <feGaussianBlur result="blur-2" stdDeviation="4.52"/>
      <feFlood flood-color="#231f20" flood-opacity=".75"/>
      <feComposite in2="blur-2" operator="in"/>
      <feComposite in="SourceGraphic"/>
    </filter>
    <filter id="drop-shadow-3" x="154" y="290" width="50" height="50" filterUnits="userSpaceOnUse">
      <feOffset dx="6.33" dy="6.33"/>
      <feGaussianBlur result="blur-3" stdDeviation="4.52"/>
      <feFlood flood-color="#231f20" flood-opacity=".75"/>
      <feComposite in2="blur-3" operator="in"/>
      <feComposite in="SourceGraphic"/>
    </filter>
    <filter id="drop-shadow-4" x="205" y="363" width="50" height="50" filterUnits="userSpaceOnUse">
      <feOffset dx="6.33" dy="6.33"/>
      <feGaussianBlur result="blur-4" stdDeviation="4.52"/>
      <feFlood flood-color="#231f20" flood-opacity=".75"/>
      <feComposite in2="blur-4" operator="in"/>
      <feComposite in="SourceGraphic"/>
    </filter>
  </defs>
  <g id="Layer_1" data-name="Layer 1">
    <rect x="68.86" y="137.32" width="162.28" height="285.01" fill="none" stroke="#000" stroke-miterlimit="10" stroke-width="5"/>
    <g>
      <line x1="68.54" y1="207.58" x2="231.46" y2="207.58" fill="none" stroke="#000" stroke-miterlimit="10" stroke-width="5"/>
      <line x1="69.99" y1="279.82" x2="230.01" y2="279.82" fill="none" stroke="#000" stroke-miterlimit="10" stroke-width="5"/>
      <line x1="69.99" y1="352.06" x2="230.01" y2="352.06" fill="none" stroke="#000" stroke-miterlimit="10" stroke-width="5"/>
    </g>
    <g>
      <line x1="121.45" y1="138" x2="121.45" y2="424" fill="none" stroke="#000" stroke-miterlimit="10" stroke-width="4"/>
      <line x1="178.55" y1="138" x2="178.55" y2="424" fill="none" stroke="#000" stroke-miterlimit="10" stroke-width="4"/>
    </g>
  </g>
  <g id="Text">
    <g>
      <path d="M74.91,78.71c-2.45-2.99-5.47-4.48-9.07-4.48-1.58,0-3.05.29-4.4.86-1.35.58-2.51,1.36-3.48,2.35-.97.99-1.74,2.17-2.29,3.54-.56,1.37-.84,2.84-.84,4.43s.28,3.11.84,4.48c.56,1.37,1.33,2.56,2.32,3.56.99,1.01,2.15,1.8,3.48,2.38,1.33.58,2.77.86,4.32.86,3.38,0,6.43-1.44,9.13-4.32v12.53l-1.08.38c-1.62.58-3.13,1-4.54,1.27-1.4.27-2.79.4-4.16.4-2.81,0-5.5-.53-8.07-1.59-2.57-1.06-4.84-2.56-6.8-4.48-1.96-1.93-3.54-4.21-4.72-6.86-1.19-2.65-1.78-5.54-1.78-8.67s.58-6,1.75-8.61c1.17-2.61,2.74-4.86,4.7-6.75s4.24-3.37,6.83-4.43c2.59-1.06,5.31-1.59,8.15-1.59,1.62,0,3.21.17,4.78.51,1.57.34,3.21.87,4.94,1.59v12.64Z"/>
      <path d="M111.63,87.62v7.02h-6.48l-1.46,11.18h-8.05l1.46-11.18h-5.24l-1.46,11.18h-7.99l1.51-11.18h-5.62v-7.02h6.48l.65-5.18h-5.51v-6.97h6.43l1.35-10.37h7.94l-1.35,10.37h5.24l1.4-10.37h7.99l-1.35,10.37h5.51v6.97h-6.37l-.7,5.18h5.62ZM98.67,82.44h-5.24l-.7,5.18h5.24l.7-5.18Z"/>
      <path d="M138.8,61h9.83v44.82h-9.83v-3.08c-2.09,2.63-4.91,3.94-8.48,3.94-2.02,0-3.87-.38-5.56-1.13-1.69-.76-3.17-1.8-4.43-3.13-1.26-1.33-2.24-2.9-2.94-4.7-.7-1.8-1.05-3.74-1.05-5.83,0-1.98.33-3.86,1-5.64.67-1.78,1.61-3.34,2.83-4.67,1.22-1.33,2.69-2.38,4.4-3.16,1.71-.77,3.59-1.16,5.64-1.16,3.46,0,6.32,1.21,8.59,3.62v-19.87ZM126.48,91.89c0,.9.16,1.74.49,2.51.32.77.76,1.45,1.32,2.02.56.58,1.22,1.03,2,1.35.77.32,1.61.49,2.51.49s1.68-.16,2.46-.49c.77-.32,1.44-.77,2-1.35.56-.58,1.01-1.24,1.35-2,.34-.76.51-1.57.51-2.43s-.17-1.68-.51-2.46c-.34-.77-.79-1.45-1.35-2.03-.56-.58-1.22-1.03-2-1.35-.77-.32-1.59-.49-2.46-.49s-1.68.16-2.46.49c-.77.32-1.44.77-2,1.35-.56.58-1.01,1.23-1.35,1.97-.34.74-.51,1.54-.51,2.4Z"/>
      <path d="M154.62,67.48c0-.76.14-1.47.43-2.13.29-.67.68-1.25,1.19-1.75.5-.5,1.09-.9,1.75-1.19.67-.29,1.38-.43,2.13-.43s1.47.14,2.13.43c.67.29,1.25.68,1.75,1.19.5.5.9,1.09,1.19,1.75.29.67.43,1.38.43,2.13s-.14,1.47-.43,2.13c-.29.67-.68,1.25-1.19,1.75-.5.5-1.09.9-1.75,1.19-.67.29-1.38.43-2.13.43s-1.47-.14-2.13-.43c-.67-.29-1.25-.68-1.75-1.19-.5-.5-.9-1.09-1.19-1.75-.29-.67-.43-1.38-.43-2.13ZM165.04,78.12v27.7h-9.77v-27.7h9.77Z"/>
      <path d="M171.73,78.12h9.77v3.4c2.66-2.56,5.65-3.83,8.96-3.83,4.1,0,7.24,1.73,9.4,5.18,2.2-3.49,5.33-5.24,9.4-5.24,1.3,0,2.52.19,3.67.57s2.14.97,2.97,1.78,1.49,1.86,1.97,3.16c.49,1.3.73,2.86.73,4.7v17.98h-9.77v-13.66c0-1.4-.1-2.56-.3-3.46-.2-.9-.49-1.6-.86-2.11-.38-.5-.82-.85-1.32-1.03-.5-.18-1.04-.27-1.62-.27-3.13,0-4.7,2.29-4.7,6.86v13.66h-9.77v-13.66c0-1.4-.09-2.56-.27-3.48s-.44-1.65-.78-2.19c-.34-.54-.78-.91-1.32-1.11-.54-.2-1.17-.3-1.89-.3-.61,0-1.19.09-1.73.27-.54.18-1.02.53-1.43,1.05-.42.52-.74,1.24-.97,2.16s-.35,2.12-.35,3.59v13.66h-9.77v-27.7Z"/>
      <path d="M243.28,74.07h-17.01v-8.96h33.43l-23.33,40.72h-11.66l18.58-31.75Z"/>
    </g>
    <rect x="59" y="128.36" width="182" height="11.64" rx="3.42" ry="3.42"/>
    <g>
      <circle cx="69" cy="315" r="25" filter="url(#drop-shadow-1)"/>
      <path d="M66.45,308.44h-3.74v-5.64h10.4v25.64h-6.66v-19.99Z" fill="#fff"/>
    </g>
    <g>
      <circle cx="121" cy="388" r="25" filter="url(#drop-shadow-2)"/>
      <path d="M119.61,385.79c.18.02.33.03.46.03h.32c.84,0,1.52-.25,2.04-.75.52-.5.78-1.14.78-1.94s-.24-1.39-.73-1.87c-.49-.48-1.12-.71-1.89-.71-.82,0-1.47.27-1.97.82-.5.54-.75,1.25-.75,2.11h-6.15c.16-1.34.49-2.53,1-3.57.51-1.04,1.16-1.92,1.96-2.63.79-.71,1.72-1.26,2.79-1.63,1.06-.37,2.24-.56,3.54-.56s2.42.18,3.45.53,1.92.85,2.65,1.5c.74.65,1.3,1.43,1.7,2.35.4.92.59,1.94.59,3.08,0,1.22-.23,2.23-.7,3.01-.46.78-1.13,1.46-1.99,2.02,1.31.41,2.34,1.14,3.08,2.19.74,1.05,1.11,2.35,1.11,3.89,0,1.27-.25,2.43-.75,3.47-.5,1.04-1.2,1.94-2.09,2.69-.9.75-1.96,1.33-3.2,1.73-1.24.41-2.59.61-4.06.61-1.97,0-3.75-.39-5.34-1.16-1.59-.77-2.86-1.99-3.81-3.67-.43-.75-.72-1.5-.87-2.24s-.22-1.51-.22-2.28h6.6c.04,1.2.4,2.11,1.05,2.74.66.62,1.54.94,2.65.94,1.18,0,2.04-.32,2.58-.95s.82-1.42.82-2.35c0-1.11-.33-1.95-.99-2.52-.66-.57-1.44-.85-2.35-.85-.23,0-.44.02-.65.05s-.43.07-.68.12v-4.18Z" fill="#fff"/>
    </g>
    <g>
      <circle cx="179" cy="315" r="25" filter="url(#drop-shadow-3)"/>
      <path d="M189.03,328.43h-20.64l6.36-6.6c1.68-1.75,2.99-3.22,3.94-4.44.95-1.21,1.66-2.24,2.12-3.08.46-.84.75-1.52.87-2.04.11-.52.17-.96.17-1.33,0-.38-.06-.76-.19-1.12-.12-.36-.31-.68-.56-.97-.25-.28-.55-.51-.9-.68s-.76-.25-1.24-.25c-.91,0-1.62.29-2.12.88-.51.59-.77,1.33-.77,2.21,0,.25.03.61.1,1.09h-7.28c0-1.5.24-2.86.73-4.08.49-1.22,1.17-2.28,2.06-3.16s1.93-1.56,3.14-2.04c1.21-.48,2.54-.71,4-.71s2.75.23,3.96.68c1.21.45,2.26,1.09,3.15,1.9.88.82,1.58,1.79,2.07,2.91.5,1.12.75,2.34.75,3.66,0,1.41-.3,2.7-.9,3.89-.6,1.19-1.56,2.41-2.87,3.65l-4.25,3.98h8.3v5.64Z" fill="#fff"/>
    </g>
    <g>
      <circle cx="230" cy="388" r="25" filter="url(#drop-shadow-4)"/>
      <path d="M237.48,391.06h3.09v5.1h-3.09v5.27h-6.19v-5.27h-12.38v-4.28l9.79-16.08h8.77v15.27ZM231.29,391.06v-10.1l-5.88,10.1h5.88Z" fill="#fff"/>
    </g>
  </g>
</svg>