<?xml version="1.0" encoding="utf-8"?>
<!-- Generator: Adobe Illustrator 29.8.2, SVG Export Plug-In . SVG Version: 9.03 Build 0)  -->
<svg version="1.1" xmlns="http://www.w3.org/2000/svg" xmlns:xlink="http://www.w3.org/1999/xlink" x="0px" y="0px"
	 viewBox="0 0 300 480" style="enable-background:new 0 0 300 480;" xml:space="preserve">
<style type="text/css">
	.st0{display:none;}
	.st1{display:inline;fill:#993333;}
	.st2{fill:none;stroke:#000000;stroke-width:5;stroke-miterlimit:10;}
	.st3{fill:none;stroke:#000000;stroke-width:4;stroke-miterlimit:10;}
	.st4{fill:#FFFFFF;}
</style>
<g id="Layer_3" class="st0">
	<rect x="-17" y="-7" class="st1" width="350" height="503"/>
</g>
<g id="Layer_1">
	<rect x="68.86" y="137.32" class="st2" width="162.28" height="285.01"/>
	<g>
		<line class="st2" x1="68.54" y1="207.58" x2="231.46" y2="207.58"/>
		<line class="st2" x1="69.99" y1="279.82" x2="230.01" y2="279.82"/>
		<line class="st2" x1="69.99" y1="352.06" x2="230.01" y2="352.06"/>
	</g>
	<g>
		<line class="st3" x1="121.45" y1="138" x2="121.45" y2="424"/>
		<line class="st3" x1="178.55" y1="138" x2="178.55" y2="424"/>
	</g>
</g>
<g id="Text">
	<g>
		<path d="M165.58,78.71c-2.45-2.99-5.47-4.48-9.07-4.48c-1.58,0-3.05,0.29-4.4,0.86c-1.35,0.58-2.51,1.36-3.48,2.35
			c-0.97,0.99-1.74,2.17-2.29,3.54c-0.56,1.37-0.84,2.84-0.84,4.43c0,1.62,0.28,3.11,0.84,4.48c0.56,1.37,1.33,2.56,2.32,3.56
			c0.99,1.01,2.15,1.8,3.48,2.38c1.33,0.58,2.77,0.86,4.32,0.86c3.38,0,6.43-1.44,9.13-4.32v12.53l-1.08,0.38
			c-1.62,0.58-3.13,1-4.54,1.27c-1.4,0.27-2.79,0.4-4.16,0.4c-2.81,0-5.5-0.53-8.07-1.59c-2.57-1.06-4.84-2.56-6.8-4.48
			c-1.96-1.93-3.54-4.21-4.72-6.86c-1.19-2.65-1.78-5.54-1.78-8.67c0-3.13,0.58-6,1.75-8.61c1.17-2.61,2.74-4.86,4.7-6.75
			s4.24-3.37,6.83-4.43c2.59-1.06,5.31-1.59,8.15-1.59c1.62,0,3.21,0.17,4.78,0.51c1.57,0.34,3.21,0.87,4.94,1.59V78.71z"/>
	</g>
	<path d="M237.58,140H62.42c-1.89,0-3.42-1.53-3.42-3.42v-4.8c0-1.89,1.53-3.42,3.42-3.42h175.16c1.89,0,3.42,1.53,3.42,3.42v4.8
		C241,138.47,239.47,140,237.58,140z"/>
	<g>
		<circle cx="70" cy="173" r="25"/>
	</g>
	<g>
		<g>
			<circle cx="231" cy="387" r="25"/>
		</g>
		<g>
			<path class="st4" d="M238.48,390.06h3.09v5.1h-3.09v5.27h-6.19v-5.27h-12.38v-4.28l9.79-16.08h8.77V390.06z M232.29,390.06v-10.1
				l-5.88,10.1H232.29z"/>
		</g>
	</g>
	<g>
		<circle cx="230" cy="173" r="25"/>
	</g>
	<rect x="69.12" y="148" width="162.5" height="50"/>
	<g>
		<path class="st4" d="M147.82,166.4h-3.74v-5.64h10.4v25.64h-6.66V166.4z"/>
	</g>
	<g>
		<path d="M263.3,166.48H260v-4.98h9.18v22.62h-5.88V166.48z"/>
		<path d="M292.76,184.12h-18.21l5.61-5.82c1.48-1.54,2.64-2.85,3.48-3.92c0.84-1.07,1.46-1.98,1.88-2.72
			c0.41-0.74,0.66-1.34,0.76-1.8c0.1-0.46,0.15-0.85,0.15-1.17c0-0.34-0.05-0.67-0.16-0.99c-0.11-0.32-0.28-0.6-0.5-0.85
			c-0.22-0.25-0.48-0.45-0.79-0.6c-0.31-0.15-0.67-0.22-1.09-0.22c-0.8,0-1.42,0.26-1.88,0.78c-0.45,0.52-0.67,1.17-0.67,1.95
			c0,0.22,0.03,0.54,0.09,0.96H275c0-1.32,0.21-2.52,0.64-3.6s1.04-2.01,1.82-2.79c0.78-0.78,1.71-1.38,2.77-1.8
			c1.07-0.42,2.25-0.63,3.53-0.63c1.26,0,2.42,0.2,3.5,0.6c1.07,0.4,2,0.96,2.77,1.68c0.78,0.72,1.39,1.57,1.83,2.56
			c0.44,0.99,0.66,2.07,0.66,3.23c0,1.24-0.26,2.38-0.79,3.44c-0.53,1.05-1.38,2.12-2.54,3.22l-3.75,3.51h7.32V184.12z"/>
	</g>
</g>
</svg>
