<?xml version="1.0" encoding="utf-8"?>
<!-- Generator: Adobe Illustrator 29.8.2, SVG Export Plug-In . SVG Version: 9.03 Build 0)  -->
<svg version="1.1" xmlns="http://www.w3.org/2000/svg" xmlns:xlink="http://www.w3.org/1999/xlink" x="0px" y="0px"
	 viewBox="0 0 300 480" style="enable-background:new 0 0 300 480;" xml:space="preserve">
<style type="text/css">
	.st0{display:none;}
	.st1{display:inline;fill:#993333;}
	.st2{display:inline;}
	.st3{fill:none;stroke:#000000;stroke-width:5;stroke-miterlimit:10;}
	.st4{fill:none;stroke:#000000;stroke-width:4;stroke-miterlimit:10;}
	.st5{fill:#FFFFFF;}
</style>
<g id="Layer_3" class="st0">
	<rect x="-17" y="-7" class="st1" width="350" height="503"/>
	<g class="st2">
		<g>
			<circle cx="466" cy="330" r="25"/>
		</g>
		<rect x="414" y="305" width="52" height="50"/>
		<g>
			<circle cx="414" cy="330" r="25"/>
		</g>
		<rect x="419.74" y="315.21" style="fill:none;" width="42.52" height="34.58"/>
		<text transform="matrix(1 0 0 1 429.4409 343.4276)" class="st5" style="font-family:'Futura-Bold'; font-size:34px;">1</text>
	</g>
</g>
<g id="Layer_1">
	<rect x="68.86" y="137.32" class="st3" width="162.28" height="285.01"/>
	<g>
		<line class="st3" x1="68.54" y1="207.58" x2="231.46" y2="207.58"/>
		<line class="st3" x1="69.99" y1="279.82" x2="230.01" y2="279.82"/>
		<line class="st3" x1="69.99" y1="352.06" x2="230.01" y2="352.06"/>
	</g>
	<g>
		<line class="st4" x1="121.45" y1="138" x2="121.45" y2="424"/>
		<line class="st4" x1="178.55" y1="138" x2="178.55" y2="424"/>
	</g>
</g>
<g id="Text">
	<g>
		<path d="M131.78,78.71c-2.45-2.99-5.47-4.48-9.07-4.48c-1.58,0-3.05,0.29-4.4,0.86c-1.35,0.58-2.51,1.36-3.48,2.35
			c-0.97,0.99-1.74,2.17-2.29,3.54c-0.56,1.37-0.84,2.84-0.84,4.43c0,1.62,0.28,3.11,0.84,4.48c0.56,1.37,1.33,2.56,2.32,3.56
			c0.99,1.01,2.15,1.8,3.48,2.38c1.33,0.58,2.77,0.86,4.32,0.86c3.38,0,6.43-1.44,9.13-4.32v12.53l-1.08,0.38
			c-1.62,0.58-3.13,1-4.54,1.27c-1.4,0.27-2.79,0.4-4.16,0.4c-2.81,0-5.5-0.53-8.07-1.59c-2.57-1.06-4.84-2.56-6.8-4.48
			c-1.96-1.93-3.54-4.21-4.72-6.86c-1.19-2.65-1.78-5.54-1.78-8.67c0-3.13,0.58-6,1.75-8.61c1.17-2.61,2.74-4.86,4.7-6.75
			s4.24-3.37,6.83-4.43c2.59-1.06,5.31-1.59,8.15-1.59c1.62,0,3.21,0.17,4.78,0.51c1.57,0.34,3.21,0.87,4.94,1.59V78.71z"/>
		<path d="M156.34,61h7.72l-22.25,54.16h-7.67L156.34,61z"/>
		<path d="M168.71,65.1h15.77c3.74,0,6.59,0.9,8.53,2.7c1.94,1.8,2.92,4.39,2.92,7.78c0,2.05-0.37,3.75-1.11,5.1
			c-0.74,1.35-1.86,2.49-3.38,3.43c1.51,0.29,2.8,0.73,3.86,1.32c1.06,0.59,1.92,1.32,2.59,2.19c0.67,0.86,1.14,1.84,1.43,2.92
			c0.29,1.08,0.43,2.23,0.43,3.46c0,1.91-0.33,3.6-1,5.08c-0.67,1.48-1.6,2.72-2.81,3.73c-1.21,1.01-2.67,1.76-4.4,2.27
			c-1.73,0.5-3.67,0.76-5.83,0.76h-17.01V65.1z M179.29,81.09h1.94c3.31,0,4.97-1.31,4.97-3.94c0-2.63-1.66-3.94-4.97-3.94h-1.94
			V81.09z M179.29,97.61h2.32c2.66,0,4.57-0.34,5.72-1.03c1.15-0.68,1.73-1.78,1.73-3.29c0-1.51-0.58-2.61-1.73-3.29
			c-1.15-0.68-3.06-1.03-5.72-1.03h-2.32V97.61z"/>
	</g>
	<path d="M237.58,140H62.42c-1.89,0-3.42-1.53-3.42-3.42v-4.8c0-1.89,1.53-3.42,3.42-3.42h175.16c1.89,0,3.42,1.53,3.42,3.42v4.8
		C241,138.47,239.47,140,237.58,140z"/>
	<g>
		<circle cx="231" cy="174" r="25"/>
	</g>
	<g>
		<circle cx="179" cy="174" r="25"/>
	</g>
	<g>
		<g>
			<circle cx="121" cy="244" r="25"/>
		</g>
		<g>
			<path class="st5" d="M119.61,241.79c0.18,0.02,0.33,0.03,0.46,0.03c0.12,0,0.23,0,0.32,0c0.84,0,1.52-0.25,2.04-0.75
				c0.52-0.5,0.78-1.14,0.78-1.94c0-0.77-0.24-1.39-0.73-1.87s-1.12-0.71-1.89-0.71c-0.82,0-1.47,0.27-1.97,0.82
				c-0.5,0.54-0.75,1.25-0.75,2.11h-6.15c0.16-1.34,0.49-2.53,1-3.57c0.51-1.04,1.16-1.92,1.96-2.64c0.79-0.71,1.72-1.26,2.79-1.63
				c1.06-0.37,2.24-0.56,3.54-0.56c1.27,0,2.42,0.18,3.45,0.53c1.03,0.35,1.92,0.85,2.65,1.5c0.74,0.65,1.3,1.43,1.7,2.35
				c0.4,0.92,0.59,1.94,0.59,3.08c0,1.22-0.23,2.23-0.7,3.01c-0.46,0.78-1.13,1.46-1.99,2.02c1.31,0.41,2.34,1.14,3.08,2.19
				c0.74,1.05,1.11,2.35,1.11,3.89c0,1.27-0.25,2.43-0.75,3.47c-0.5,1.04-1.2,1.94-2.09,2.69c-0.9,0.75-1.96,1.33-3.2,1.73
				c-1.24,0.41-2.59,0.61-4.06,0.61c-1.97,0-3.75-0.39-5.34-1.16c-1.59-0.77-2.86-1.99-3.81-3.67c-0.43-0.75-0.72-1.5-0.87-2.24
				s-0.22-1.51-0.22-2.28h6.6c0.04,1.2,0.4,2.11,1.05,2.74c0.66,0.62,1.54,0.94,2.65,0.94c1.18,0,2.04-0.32,2.58-0.95
				s0.82-1.42,0.82-2.35c0-1.11-0.33-1.95-0.99-2.52c-0.66-0.57-1.44-0.85-2.35-0.85c-0.23,0-0.44,0.02-0.65,0.05
				s-0.43,0.07-0.68,0.12V241.79z"/>
		</g>
	</g>
	<g>
		<g>
			<circle cx="69" cy="242" r="25"/>
		</g>
		<g>
			<path class="st5" d="M79.03,255.43H58.39l6.36-6.6c1.68-1.75,2.99-3.22,3.94-4.44c0.95-1.21,1.66-2.24,2.12-3.08
				c0.46-0.84,0.75-1.52,0.87-2.04c0.11-0.52,0.17-0.96,0.17-1.33c0-0.39-0.06-0.76-0.19-1.12c-0.12-0.36-0.31-0.69-0.56-0.97
				c-0.25-0.28-0.55-0.51-0.9-0.68s-0.76-0.25-1.24-0.25c-0.91,0-1.62,0.29-2.12,0.88c-0.51,0.59-0.77,1.33-0.77,2.21
				c0,0.25,0.03,0.61,0.1,1.09H58.9c0-1.5,0.24-2.86,0.73-4.08c0.49-1.22,1.17-2.28,2.06-3.16s1.93-1.56,3.14-2.04
				c1.21-0.48,2.54-0.71,4-0.71c1.43,0,2.75,0.23,3.96,0.68c1.21,0.45,2.26,1.09,3.15,1.9s1.58,1.79,2.07,2.91
				c0.5,1.12,0.75,2.34,0.75,3.66c0,1.41-0.3,2.7-0.9,3.89c-0.6,1.19-1.56,2.41-2.87,3.65l-4.25,3.98h8.3V255.43z"/>
		</g>
	</g>
	<rect x="179" y="149" width="52" height="50"/>
	<g>
		<path class="st5" d="M200.45,167.44h-3.74v-5.64h10.4v25.64h-6.66V167.44z"/>
	</g>
	<g>
		<path d="M33.79,169.65c0.29,0.04,0.53,0.05,0.73,0.05c0.2,0,0.37,0,0.51,0c1.33,0,2.41-0.4,3.24-1.19
			c0.83-0.79,1.24-1.82,1.24-3.08c0-1.22-0.39-2.21-1.16-2.97c-0.77-0.76-1.77-1.13-3-1.13c-1.3,0-2.34,0.43-3.13,1.3
			c-0.79,0.86-1.19,1.98-1.19,3.35h-9.77c0.25-2.12,0.78-4.01,1.59-5.67c0.81-1.66,1.84-3.05,3.1-4.19c1.26-1.13,2.74-2,4.43-2.59
			c1.69-0.59,3.56-0.89,5.62-0.89c2.02,0,3.84,0.28,5.48,0.84c1.64,0.56,3.04,1.35,4.21,2.38c1.17,1.03,2.07,2.27,2.7,3.73
			c0.63,1.46,0.95,3.09,0.95,4.89c0,1.94-0.37,3.54-1.11,4.78c-0.74,1.24-1.79,2.31-3.16,3.21c2.09,0.65,3.72,1.81,4.89,3.48
			c1.17,1.67,1.76,3.74,1.76,6.18c0,2.02-0.4,3.85-1.19,5.51c-0.79,1.66-1.9,3.08-3.32,4.27c-1.42,1.19-3.11,2.11-5.08,2.75
			c-1.96,0.65-4.11,0.97-6.45,0.97c-3.13,0-5.96-0.61-8.48-1.84c-2.52-1.22-4.54-3.17-6.05-5.83c-0.68-1.19-1.14-2.38-1.38-3.56
			c-0.23-1.19-0.35-2.39-0.35-3.62H29.9c0.07,1.91,0.63,3.36,1.67,4.35c1.04,0.99,2.45,1.49,4.21,1.49c1.87,0,3.24-0.5,4.1-1.51
			c0.86-1.01,1.3-2.25,1.3-3.73c0-1.76-0.52-3.1-1.57-4c-1.04-0.9-2.29-1.35-3.73-1.35c-0.36,0-0.7,0.03-1.03,0.08
			c-0.32,0.05-0.68,0.12-1.08,0.19V169.65z"/>
	</g>
</g>
</svg>
