<?xml version="1.0" encoding="utf-8"?>
<!-- Generator: Adobe Illustrator 29.8.2, SVG Export Plug-In . SVG Version: 9.03 Build 0)  -->
<svg version="1.1" xmlns="http://www.w3.org/2000/svg" xmlns:xlink="http://www.w3.org/1999/xlink" x="0px" y="0px"
	 viewBox="0 0 300 480" style="enable-background:new 0 0 300 480;" xml:space="preserve">
<style type="text/css">
	.st0{display:none;}
	.st1{display:inline;fill:#993333;}
	.st2{fill:none;stroke:#000000;stroke-width:5;stroke-miterlimit:10;}
	.st3{fill:none;stroke:#000000;stroke-width:4;stroke-miterlimit:10;}
</style>
<g id="Layer_3" class="st0">
	<rect x="-17" y="-7" class="st1" width="350" height="503"/>
</g>
<g id="Layer_1">
	<rect x="68.86" y="137.32" class="st2" width="162.28" height="285.01"/>
	<g>
		<line class="st2" x1="68.54" y1="207.58" x2="231.46" y2="207.58"/>
		<line class="st2" x1="69.99" y1="279.82" x2="230.01" y2="279.82"/>
		<line class="st2" x1="69.99" y1="352.06" x2="230.01" y2="352.06"/>
	</g>
	<g>
		<line class="st3" x1="121.45" y1="138" x2="121.45" y2="424"/>
		<line class="st3" x1="178.55" y1="138" x2="178.55" y2="424"/>
	</g>
</g>
<g id="Text">
	<g>
		<path d="M147.22,78.71c-2.45-2.99-5.47-4.48-9.07-4.48c-1.58,0-3.05,0.29-4.4,0.86c-1.35,0.58-2.51,1.36-3.48,2.35
			c-0.97,0.99-1.74,2.17-2.29,3.54c-0.56,1.37-0.84,2.84-0.84,4.43c0,1.62,0.28,3.11,0.84,4.48c0.56,1.37,1.33,2.56,2.32,3.56
			c0.99,1.01,2.15,1.8,3.48,2.38c1.33,0.58,2.77,0.86,4.32,0.86c3.38,0,6.43-1.44,9.13-4.32v12.53l-1.08,0.38
			c-1.62,0.58-3.13,1-4.54,1.27c-1.4,0.27-2.79,0.4-4.16,0.4c-2.81,0-5.5-0.53-8.07-1.59c-2.57-1.06-4.84-2.56-6.8-4.48
			c-1.96-1.93-3.54-4.21-4.72-6.86c-1.19-2.65-1.78-5.54-1.78-8.67c0-3.13,0.58-6,1.75-8.61c1.17-2.61,2.74-4.86,4.7-6.75
			s4.24-3.37,6.83-4.43c2.59-1.06,5.31-1.59,8.15-1.59c1.62,0,3.21,0.17,4.78,0.51c1.57,0.34,3.21,0.87,4.94,1.59V78.71z"/>
		<path d="M178.76,65.1L167.2,78.39h0.22c1.01-0.61,1.84-0.98,2.48-1.11c0.65-0.13,1.22-0.19,1.73-0.19c1.98,0,3.8,0.38,5.45,1.13
			c1.66,0.76,3.1,1.79,4.32,3.11c1.22,1.31,2.18,2.85,2.86,4.62c0.68,1.76,1.03,3.65,1.03,5.67c0,2.16-0.4,4.17-1.19,6.02
			c-0.79,1.85-1.94,3.47-3.43,4.86c-1.5,1.39-3.3,2.48-5.43,3.27c-2.12,0.79-4.52,1.19-7.18,1.19c-2.7,0-5.11-0.4-7.24-1.19
			c-2.12-0.79-3.93-1.87-5.43-3.24c-1.49-1.37-2.64-2.96-3.43-4.78c-0.79-1.82-1.19-3.75-1.19-5.8c0-2.3,0.51-4.8,1.54-7.48
			c1.03-2.68,2.6-5.32,4.73-7.91l9.45-11.45H178.76z M161.26,91.83c0,0.94,0.18,1.81,0.54,2.62c0.36,0.81,0.84,1.52,1.46,2.13
			c0.61,0.61,1.32,1.1,2.13,1.46c0.81,0.36,1.68,0.54,2.62,0.54c0.94,0,1.81-0.18,2.62-0.54c0.81-0.36,1.52-0.85,2.13-1.46
			c0.61-0.61,1.1-1.32,1.46-2.13c0.36-0.81,0.54-1.68,0.54-2.62c0-0.94-0.18-1.81-0.54-2.62c-0.36-0.81-0.85-1.52-1.46-2.13
			c-0.61-0.61-1.32-1.1-2.13-1.46c-0.81-0.36-1.68-0.54-2.62-0.54c-0.94,0-1.81,0.18-2.62,0.54c-0.81,0.36-1.52,0.85-2.13,1.46
			c-0.61,0.61-1.1,1.32-1.46,2.13C161.44,90.02,161.26,90.9,161.26,91.83z"/>
	</g>
	<path d="M237.58,140H62.42c-1.89,0-3.42-1.53-3.42-3.42v-4.8c0-1.89,1.53-3.42,3.42-3.42h175.16c1.89,0,3.42,1.53,3.42,3.42v4.8
		C241,138.47,239.47,140,237.58,140z"/>
</g>
</svg>
