<?xml version="1.0" encoding="utf-8"?>
<!-- Generator: Adobe Illustrator 29.8.2, SVG Export Plug-In . SVG Version: 9.03 Build 0)  -->
<svg version="1.1" xmlns="http://www.w3.org/2000/svg" xmlns:xlink="http://www.w3.org/1999/xlink" x="0px" y="0px"
	 viewBox="0 0 300 480" style="enable-background:new 0 0 300 480;" xml:space="preserve">
<style type="text/css">
	.st0{display:none;}
	.st1{display:inline;fill:#993333;}
	.st2{display:inline;}
	.st3{fill:none;stroke:#000000;stroke-width:5;stroke-miterlimit:10;}
	.st4{fill:none;stroke:#000000;stroke-width:4;stroke-miterlimit:10;}
	.st5{fill:#FFFFFF;}
</style>
<g id="Layer_3" class="st0">
	<rect x="-17" y="-7" class="st1" width="350" height="503"/>
	<g class="st2">
		<g>
			<circle cx="466" cy="330" r="25"/>
		</g>
		<rect x="414" y="305" width="52" height="50"/>
		<g>
			<circle cx="414" cy="330" r="25"/>
		</g>
		<rect x="419.74" y="315.21" style="fill:none;" width="42.52" height="34.58"/>
		<text transform="matrix(1 0 0 1 429.4409 343.4276)" class="st5" style="font-family:'Futura-Bold'; font-size:34px;">1</text>
	</g>
</g>
<g id="Layer_1">
	<rect x="68.86" y="137.32" class="st3" width="162.28" height="285.01"/>
	<g>
		<line class="st3" x1="68.54" y1="207.58" x2="231.46" y2="207.58"/>
		<line class="st3" x1="69.99" y1="279.82" x2="230.01" y2="279.82"/>
		<line class="st3" x1="69.99" y1="352.06" x2="230.01" y2="352.06"/>
	</g>
	<g>
		<line class="st4" x1="121.45" y1="138" x2="121.45" y2="424"/>
		<line class="st4" x1="178.55" y1="138" x2="178.55" y2="424"/>
	</g>
</g>
<g id="Text">
	<g>
		<path d="M90.44,78.71c-2.45-2.99-5.47-4.48-9.07-4.48c-1.58,0-3.05,0.29-4.4,0.86c-1.35,0.58-2.51,1.36-3.48,2.35
			c-0.97,0.99-1.74,2.17-2.29,3.54c-0.56,1.37-0.84,2.84-0.84,4.43c0,1.62,0.28,3.11,0.84,4.48c0.56,1.37,1.33,2.56,2.32,3.56
			c0.99,1.01,2.15,1.8,3.48,2.38c1.33,0.58,2.77,0.86,4.32,0.86c3.38,0,6.43-1.44,9.13-4.32v12.53l-1.08,0.38
			c-1.62,0.58-3.13,1-4.54,1.27c-1.4,0.27-2.79,0.4-4.16,0.4c-2.81,0-5.5-0.53-8.07-1.59c-2.57-1.06-4.84-2.56-6.8-4.48
			c-1.96-1.93-3.54-4.21-4.72-6.86c-1.19-2.65-1.78-5.54-1.78-8.67c0-3.13,0.58-6,1.75-8.61c1.17-2.61,2.74-4.86,4.7-6.75
			s4.24-3.37,6.83-4.43c2.59-1.06,5.31-1.59,8.15-1.59c1.62,0,3.21,0.17,4.78,0.51c1.57,0.34,3.21,0.87,4.94,1.59V78.71z"/>
		<path d="M117.6,78.12h9.83v27.7h-9.83v-3.08c-2.09,2.63-4.91,3.94-8.48,3.94c-2.02,0-3.87-0.37-5.56-1.11
			c-1.69-0.74-3.17-1.77-4.43-3.1c-1.26-1.33-2.24-2.9-2.94-4.7c-0.7-1.8-1.05-3.76-1.05-5.89c0-1.98,0.34-3.86,1.03-5.64
			c0.68-1.78,1.64-3.34,2.86-4.67c1.22-1.33,2.68-2.38,4.37-3.16c1.69-0.77,3.56-1.16,5.62-1.16c3.46,0,6.32,1.21,8.59,3.62V78.12z
			 M105.29,91.89c0,0.9,0.16,1.74,0.49,2.51c0.32,0.77,0.76,1.45,1.32,2.02c0.56,0.58,1.22,1.03,2,1.35
			c0.77,0.32,1.61,0.49,2.51,0.49c0.86,0,1.68-0.16,2.46-0.49c0.77-0.32,1.44-0.77,2-1.35c0.56-0.58,1.01-1.24,1.35-2
			c0.34-0.76,0.51-1.57,0.51-2.43c0-0.86-0.17-1.68-0.51-2.46c-0.34-0.77-0.79-1.45-1.35-2.03c-0.56-0.58-1.22-1.03-2-1.35
			c-0.77-0.32-1.59-0.49-2.46-0.49c-0.9,0-1.74,0.16-2.51,0.49c-0.77,0.32-1.44,0.77-2,1.35c-0.56,0.58-1,1.23-1.32,1.97
			C105.45,90.22,105.29,91.02,105.29,91.89z"/>
		<path d="M155.46,61h9.83v44.82h-9.83v-3.08c-2.09,2.63-4.91,3.94-8.48,3.94c-2.02,0-3.87-0.38-5.56-1.13
			c-1.69-0.76-3.17-1.8-4.43-3.13c-1.26-1.33-2.24-2.9-2.94-4.7c-0.7-1.8-1.05-3.74-1.05-5.83c0-1.98,0.33-3.86,1-5.64
			c0.67-1.78,1.61-3.34,2.83-4.67c1.22-1.33,2.69-2.38,4.4-3.16c1.71-0.77,3.59-1.16,5.64-1.16c3.46,0,6.32,1.21,8.59,3.62V61z
			 M143.14,91.89c0,0.9,0.16,1.74,0.49,2.51c0.32,0.77,0.76,1.45,1.32,2.02c0.56,0.58,1.22,1.03,2,1.35
			c0.77,0.32,1.61,0.49,2.51,0.49c0.86,0,1.68-0.16,2.46-0.49c0.77-0.32,1.44-0.77,2-1.35c0.56-0.58,1.01-1.24,1.35-2
			c0.34-0.76,0.51-1.57,0.51-2.43c0-0.86-0.17-1.68-0.51-2.46c-0.34-0.77-0.79-1.45-1.35-2.03c-0.56-0.58-1.22-1.03-2-1.35
			c-0.77-0.32-1.59-0.49-2.46-0.49c-0.86,0-1.68,0.16-2.46,0.49c-0.77,0.32-1.44,0.77-2,1.35c-0.56,0.58-1.01,1.23-1.35,1.97
			C143.31,90.22,143.14,91.02,143.14,91.89z"/>
		<path d="M193.31,61h9.83v44.82h-9.83v-3.08c-2.09,2.63-4.91,3.94-8.48,3.94c-2.02,0-3.87-0.38-5.56-1.13
			c-1.69-0.76-3.17-1.8-4.43-3.13c-1.26-1.33-2.24-2.9-2.94-4.7c-0.7-1.8-1.05-3.74-1.05-5.83c0-1.98,0.33-3.86,1-5.64
			c0.67-1.78,1.61-3.34,2.83-4.67c1.22-1.33,2.69-2.38,4.4-3.16c1.71-0.77,3.59-1.16,5.64-1.16c3.46,0,6.32,1.21,8.59,3.62V61z
			 M181,91.89c0,0.9,0.16,1.74,0.49,2.51c0.32,0.77,0.76,1.45,1.32,2.02c0.56,0.58,1.22,1.03,2,1.35c0.77,0.32,1.61,0.49,2.51,0.49
			c0.86,0,1.68-0.16,2.46-0.49c0.77-0.32,1.44-0.77,2-1.35c0.56-0.58,1.01-1.24,1.35-2c0.34-0.76,0.51-1.57,0.51-2.43
			c0-0.86-0.17-1.68-0.51-2.46c-0.34-0.77-0.79-1.45-1.35-2.03c-0.56-0.58-1.22-1.03-2-1.35c-0.77-0.32-1.59-0.49-2.46-0.49
			c-0.86,0-1.68,0.16-2.46,0.49c-0.77,0.32-1.44,0.77-2,1.35c-0.56,0.58-1.01,1.23-1.35,1.97C181.17,90.22,181,91.02,181,91.89z"/>
		<path d="M214.04,105.82l11.56-13.28h-0.22c-1.01,0.61-1.84,0.98-2.48,1.11c-0.65,0.13-1.22,0.19-1.73,0.19
			c-1.98,0-3.81-0.38-5.48-1.13s-3.11-1.79-4.32-3.1c-1.21-1.31-2.15-2.85-2.83-4.62c-0.68-1.76-1.03-3.65-1.03-5.67
			c0-2.16,0.4-4.17,1.19-6.02c0.79-1.85,1.94-3.47,3.43-4.86c1.49-1.39,3.3-2.47,5.43-3.27c2.12-0.79,4.52-1.19,7.18-1.19
			c2.7,0,5.11,0.4,7.24,1.19c2.12,0.79,3.93,1.87,5.43,3.24c1.49,1.37,2.64,2.96,3.43,4.78c0.79,1.82,1.19,3.75,1.19,5.81
			c0,2.3-0.51,4.8-1.54,7.48c-1.03,2.68-2.6,5.32-4.72,7.91l-9.45,11.45H214.04z M231.54,79.09c0-0.94-0.18-1.81-0.54-2.62
			c-0.36-0.81-0.85-1.52-1.46-2.13c-0.61-0.61-1.32-1.1-2.13-1.46c-0.81-0.36-1.68-0.54-2.62-0.54c-0.94,0-1.81,0.18-2.62,0.54
			c-0.81,0.36-1.52,0.85-2.13,1.46c-0.61,0.61-1.1,1.32-1.46,2.13c-0.36,0.81-0.54,1.68-0.54,2.62c0,0.94,0.18,1.81,0.54,2.62
			c0.36,0.81,0.84,1.52,1.46,2.13c0.61,0.61,1.32,1.1,2.13,1.46c0.81,0.36,1.68,0.54,2.62,0.54c0.94,0,1.81-0.18,2.62-0.54
			c0.81-0.36,1.52-0.85,2.13-1.46c0.61-0.61,1.1-1.32,1.46-2.13C231.36,80.9,231.54,80.03,231.54,79.09z"/>
	</g>
	<path d="M237.58,140H62.42c-1.89,0-3.42-1.53-3.42-3.42v-4.8c0-1.89,1.53-3.42,3.42-3.42h175.16c1.89,0,3.42,1.53,3.42,3.42v4.8
		C241,138.47,239.47,140,237.58,140z"/>
	<g>
		<g>
			<circle cx="231" cy="315" r="25"/>
		</g>
		<g>
			<path class="st5" d="M229.61,312.79c0.18,0.02,0.33,0.03,0.46,0.03c0.12,0,0.23,0,0.32,0c0.84,0,1.52-0.25,2.04-0.75
				c0.52-0.5,0.78-1.14,0.78-1.94c0-0.77-0.24-1.39-0.73-1.87c-0.49-0.48-1.12-0.71-1.89-0.71c-0.82,0-1.47,0.27-1.97,0.82
				c-0.5,0.54-0.75,1.25-0.75,2.11h-6.15c0.16-1.34,0.49-2.53,1-3.57c0.51-1.04,1.16-1.92,1.96-2.63c0.79-0.71,1.72-1.26,2.79-1.63
				c1.06-0.37,2.24-0.56,3.54-0.56c1.27,0,2.42,0.18,3.45,0.53s1.92,0.85,2.65,1.5c0.74,0.65,1.3,1.43,1.7,2.35
				c0.4,0.92,0.59,1.94,0.59,3.08c0,1.22-0.23,2.23-0.7,3.01c-0.46,0.78-1.13,1.46-1.99,2.02c1.31,0.41,2.34,1.14,3.08,2.19
				c0.74,1.05,1.11,2.35,1.11,3.89c0,1.27-0.25,2.43-0.75,3.47c-0.5,1.04-1.2,1.94-2.09,2.69c-0.9,0.75-1.96,1.33-3.2,1.73
				c-1.24,0.41-2.59,0.61-4.06,0.61c-1.97,0-3.75-0.39-5.34-1.16c-1.59-0.77-2.86-1.99-3.81-3.67c-0.43-0.75-0.72-1.5-0.87-2.24
				s-0.22-1.51-0.22-2.28h6.6c0.04,1.2,0.4,2.11,1.05,2.74c0.66,0.62,1.54,0.94,2.65,0.94c1.18,0,2.04-0.32,2.58-0.95
				s0.82-1.42,0.82-2.35c0-1.11-0.33-1.95-0.99-2.52c-0.66-0.57-1.44-0.85-2.35-0.85c-0.23,0-0.44,0.02-0.65,0.05
				s-0.43,0.07-0.68,0.12V312.79z"/>
		</g>
	</g>
	<g>
		<g>
			<circle cx="121" cy="244" r="25"/>
		</g>
		<g>
			<path class="st5" d="M118.45,237.44h-3.74v-5.64h10.4v25.64h-6.66V237.44z"/>
		</g>
	</g>
</g>
</svg>
