<?xml version="1.0" encoding="utf-8"?>
<!-- Generator: Adobe Illustrator 29.8.2, SVG Export Plug-In . SVG Version: 9.03 Build 0)  -->
<svg version="1.1" xmlns="http://www.w3.org/2000/svg" xmlns:xlink="http://www.w3.org/1999/xlink" x="0px" y="0px"
	 viewBox="0 0 300 480" style="enable-background:new 0 0 300 480;" xml:space="preserve">
<style type="text/css">
	.st0{display:none;}
	.st1{display:inline;fill:#993333;}
	.st2{fill:none;stroke:#000000;stroke-width:5;stroke-miterlimit:10;}
	.st3{fill:none;stroke:#000000;stroke-width:4;stroke-miterlimit:10;}
	.st4{fill:#FFFFFF;}
</style>
<g id="Layer_3" class="st0">
	<rect x="-17" y="-7" class="st1" width="350" height="503"/>
</g>
<g id="Layer_1">
	<rect x="68.86" y="137.32" class="st2" width="162.28" height="285.01"/>
	<g>
		<line class="st2" x1="68.54" y1="207.58" x2="231.46" y2="207.58"/>
		<line class="st2" x1="69.99" y1="279.82" x2="230.01" y2="279.82"/>
		<line class="st2" x1="69.99" y1="352.06" x2="230.01" y2="352.06"/>
	</g>
	<g>
		<line class="st3" x1="121.45" y1="138" x2="121.45" y2="424"/>
		<line class="st3" x1="178.55" y1="138" x2="178.55" y2="424"/>
	</g>
</g>
<g id="Text">
	<g>
		<path d="M120.44,78.71c-2.45-2.99-5.47-4.48-9.07-4.48c-1.58,0-3.05,0.29-4.4,0.86c-1.35,0.58-2.51,1.36-3.48,2.35
			c-0.97,0.99-1.74,2.17-2.29,3.54c-0.56,1.37-0.84,2.84-0.84,4.43c0,1.62,0.28,3.11,0.84,4.48c0.56,1.37,1.33,2.56,2.32,3.56
			c0.99,1.01,2.15,1.8,3.48,2.38c1.33,0.58,2.77,0.86,4.32,0.86c3.38,0,6.43-1.44,9.13-4.32v12.53l-1.08,0.38
			c-1.62,0.58-3.13,1-4.54,1.27c-1.4,0.27-2.79,0.4-4.16,0.4c-2.81,0-5.5-0.53-8.07-1.59c-2.57-1.06-4.84-2.56-6.8-4.48
			c-1.96-1.93-3.54-4.21-4.72-6.86c-1.19-2.65-1.78-5.54-1.78-8.67c0-3.13,0.58-6,1.75-8.61c1.17-2.61,2.74-4.86,4.7-6.75
			s4.24-3.37,6.83-4.43c2.59-1.06,5.31-1.59,8.15-1.59c1.62,0,3.21,0.17,4.78,0.51c1.57,0.34,3.21,0.87,4.94,1.59V78.71z"/>
		<path d="M157.16,87.62v7.02h-6.48l-1.46,11.18h-8.05l1.46-11.18h-5.24l-1.46,11.18h-7.99l1.51-11.18h-5.62v-7.02h6.48l0.65-5.18
			h-5.51v-6.97h6.43l1.35-10.37h7.94l-1.35,10.37h5.24l1.4-10.37h7.99l-1.35,10.37h5.51v6.97h-6.37l-0.7,5.18H157.16z M144.2,82.44
			h-5.24l-0.7,5.18h5.24L144.2,82.44z"/>
		<path d="M162.93,78.12h9.77v3.4c2.66-2.56,5.65-3.83,8.96-3.83c4.1,0,7.24,1.73,9.4,5.18c2.2-3.49,5.33-5.24,9.4-5.24
			c1.3,0,2.52,0.19,3.67,0.57s2.14,0.97,2.97,1.78s1.49,1.86,1.97,3.16c0.49,1.3,0.73,2.86,0.73,4.7v17.98h-9.77V92.16
			c0-1.4-0.1-2.56-0.3-3.46c-0.2-0.9-0.49-1.6-0.86-2.11c-0.38-0.5-0.82-0.85-1.32-1.03c-0.5-0.18-1.04-0.27-1.62-0.27
			c-3.13,0-4.7,2.29-4.7,6.86v13.66h-9.77V92.16c0-1.4-0.09-2.56-0.27-3.48s-0.44-1.65-0.78-2.19c-0.34-0.54-0.78-0.91-1.32-1.11
			c-0.54-0.2-1.17-0.3-1.89-0.3c-0.61,0-1.19,0.09-1.73,0.27c-0.54,0.18-1.02,0.53-1.43,1.05c-0.42,0.52-0.74,1.24-0.97,2.16
			s-0.35,2.12-0.35,3.59v13.66h-9.77V78.12z"/>
	</g>
	<g>
		<circle cx="68.84" cy="315" r="25"/>
	</g>
	<g>
		<path class="st4" d="M67.44,312.81c0.18,0.02,0.33,0.03,0.46,0.03c0.12,0,0.23,0,0.32,0c0.84,0,1.52-0.25,2.04-0.75
			c0.52-0.5,0.78-1.14,0.78-1.94c0-0.77-0.24-1.39-0.73-1.87c-0.49-0.48-1.12-0.71-1.89-0.71c-0.82,0-1.47,0.27-1.97,0.82
			c-0.5,0.54-0.75,1.25-0.75,2.11h-6.15c0.16-1.34,0.49-2.53,1-3.57s1.16-1.92,1.96-2.64c0.79-0.71,1.72-1.26,2.79-1.63
			c1.06-0.37,2.24-0.56,3.54-0.56c1.27,0,2.42,0.18,3.45,0.53c1.03,0.35,1.92,0.85,2.65,1.5c0.74,0.65,1.3,1.43,1.7,2.35
			c0.4,0.92,0.59,1.94,0.59,3.08c0,1.22-0.23,2.23-0.7,3.01s-1.13,1.46-1.99,2.02c1.31,0.41,2.34,1.14,3.08,2.19
			c0.74,1.05,1.11,2.35,1.11,3.89c0,1.27-0.25,2.43-0.75,3.47c-0.5,1.04-1.2,1.94-2.09,2.69c-0.9,0.75-1.96,1.33-3.2,1.73
			c-1.24,0.41-2.59,0.61-4.06,0.61c-1.97,0-3.75-0.39-5.34-1.16c-1.59-0.77-2.86-1.99-3.81-3.67c-0.43-0.75-0.72-1.5-0.87-2.24
			s-0.22-1.51-0.22-2.28H65c0.04,1.2,0.4,2.11,1.05,2.74c0.66,0.62,1.54,0.94,2.65,0.94c1.18,0,2.04-0.32,2.58-0.95
			s0.82-1.42,0.82-2.35c0-1.11-0.33-1.95-0.99-2.52c-0.66-0.57-1.44-0.85-2.35-0.85c-0.23,0-0.44,0.02-0.65,0.05
			s-0.43,0.07-0.68,0.12V312.81z"/>
	</g>
	<g>
		<circle cx="70" cy="173" r="25"/>
	</g>
	<g>
		<circle cx="230" cy="173" r="25"/>
	</g>
	<rect x="69.12" y="148" width="162.5" height="50"/>
	<g>
		<path class="st4" d="M147.82,166.4h-3.74v-5.64h10.4v25.64h-6.66V166.4z"/>
	</g>
	<g>
		<path d="M36.61,174.65h4.91v8.1h-4.91v8.37h-9.83v-8.37H7.13v-6.8l15.55-25.54h13.93V174.65z M26.78,174.65v-16.04l-9.34,16.04
			H26.78z"/>
	</g>
	<g>
		<path d="M36.61,174.65h4.91v8.1h-4.91v8.37h-9.83v-8.37H7.13v-6.8l15.55-25.54h13.93V174.65z M26.78,174.65v-16.04l-9.34,16.04
			H26.78z"/>
	</g>
</g>
</svg>
