<?xml version="1.0" encoding="utf-8"?>
<!-- Generator: Adobe Illustrator 29.8.2, SVG Export Plug-In . SVG Version: 9.03 Build 0)  -->
<svg version="1.1" xmlns="http://www.w3.org/2000/svg" xmlns:xlink="http://www.w3.org/1999/xlink" x="0px" y="0px"
	 viewBox="0 0 300 480" style="enable-background:new 0 0 300 480;" xml:space="preserve">
<style type="text/css">
	.st0{display:none;}
	.st1{display:inline;fill:#993333;}
	.st2{fill:none;stroke:#000000;stroke-width:5;stroke-miterlimit:10;}
	.st3{fill:none;stroke:#000000;stroke-width:4;stroke-miterlimit:10;}
	.st4{fill:#FFFFFF;}
</style>
<g id="Layer_3" class="st0">
	<rect x="-17" y="-7" class="st1" width="350" height="503"/>
</g>
<g id="Layer_1">
	<rect x="68.86" y="137.32" class="st2" width="162.28" height="285.01"/>
	<g>
		<line class="st2" x1="68.54" y1="207.58" x2="231.46" y2="207.58"/>
		<line class="st2" x1="69.99" y1="279.82" x2="230.01" y2="279.82"/>
		<line class="st2" x1="69.99" y1="352.06" x2="230.01" y2="352.06"/>
	</g>
	<g>
		<line class="st3" x1="121.45" y1="138" x2="121.45" y2="424"/>
		<line class="st3" x1="178.55" y1="138" x2="178.55" y2="424"/>
	</g>
</g>
<g id="Text">
	<g>
		<path d="M114.68,65.1h15.66c2.77,0,5.37,0.56,7.8,1.67c2.43,1.12,4.55,2.6,6.37,4.46c1.82,1.85,3.25,4.01,4.29,6.48
			c1.04,2.47,1.57,5.05,1.57,7.75c0,2.66-0.51,5.23-1.54,7.69c-1.03,2.47-2.45,4.64-4.27,6.51c-1.82,1.87-3.94,3.37-6.37,4.48
			c-2.43,1.12-5.05,1.67-7.86,1.67h-15.66V65.1z M125.27,96.86h2.43c1.84,0,3.47-0.29,4.91-0.86c1.44-0.58,2.65-1.37,3.64-2.38
			c0.99-1.01,1.75-2.2,2.27-3.59c0.52-1.39,0.78-2.91,0.78-4.56c0-1.62-0.27-3.13-0.81-4.54s-1.31-2.61-2.29-3.62
			c-0.99-1.01-2.21-1.8-3.65-2.38c-1.44-0.58-3.06-0.86-4.86-0.86h-2.43V96.86z"/>
		<path d="M181.97,65.1l-11.56,13.28h0.22c1.01-0.61,1.84-0.98,2.48-1.11c0.65-0.13,1.22-0.19,1.73-0.19c1.98,0,3.8,0.38,5.45,1.13
			c1.66,0.76,3.1,1.79,4.32,3.11c1.22,1.31,2.18,2.85,2.86,4.62c0.68,1.76,1.03,3.65,1.03,5.67c0,2.16-0.4,4.17-1.19,6.02
			c-0.79,1.85-1.94,3.47-3.43,4.86c-1.5,1.39-3.3,2.48-5.43,3.27c-2.12,0.79-4.52,1.19-7.18,1.19c-2.7,0-5.11-0.4-7.24-1.19
			c-2.12-0.79-3.93-1.87-5.43-3.24c-1.49-1.37-2.64-2.96-3.43-4.78c-0.79-1.82-1.19-3.75-1.19-5.8c0-2.3,0.51-4.8,1.54-7.48
			c1.03-2.68,2.6-5.32,4.73-7.91l9.45-11.45H181.97z M164.47,91.83c0,0.94,0.18,1.81,0.54,2.62c0.36,0.81,0.84,1.52,1.46,2.13
			c0.61,0.61,1.32,1.1,2.13,1.46c0.81,0.36,1.68,0.54,2.62,0.54c0.94,0,1.81-0.18,2.62-0.54c0.81-0.36,1.52-0.85,2.13-1.46
			c0.61-0.61,1.1-1.32,1.46-2.13c0.36-0.81,0.54-1.68,0.54-2.62c0-0.94-0.18-1.81-0.54-2.62c-0.36-0.81-0.85-1.52-1.46-2.13
			c-0.61-0.61-1.32-1.1-2.13-1.46c-0.81-0.36-1.68-0.54-2.62-0.54c-0.94,0-1.81,0.18-2.62,0.54c-0.81,0.36-1.52,0.85-2.13,1.46
			c-0.61,0.61-1.1,1.32-1.46,2.13C164.65,90.02,164.47,90.9,164.47,91.83z"/>
	</g>
	<path d="M237.58,140H62.42c-1.89,0-3.42-1.53-3.42-3.42v-4.8c0-1.89,1.53-3.42,3.42-3.42h175.16c1.89,0,3.42,1.53,3.42,3.42v4.8
		C241,138.47,239.47,140,237.58,140z"/>
	<g>
		<g>
			<g>
				<circle cx="69" cy="243" r="25"/>
			</g>
		</g>
		<g>
			<g>
				<circle cx="231" cy="243" r="25"/>
			</g>
		</g>
		<rect x="69" y="218" width="162" height="50"/>
		<g>
			<path class="st4" d="M147.45,234.81h-3.74v-5.64h10.4v25.64h-6.66V234.81z"/>
		</g>
	</g>
</g>
</svg>
