<?xml version="1.0" encoding="utf-8"?>
<!-- Generator: Adobe Illustrator 29.8.2, SVG Export Plug-In . SVG Version: 9.03 Build 0)  -->
<svg version="1.1" xmlns="http://www.w3.org/2000/svg" xmlns:xlink="http://www.w3.org/1999/xlink" x="0px" y="0px"
	 viewBox="0 0 300 480" style="enable-background:new 0 0 300 480;" xml:space="preserve">
<style type="text/css">
	.st0{display:none;}
	.st1{display:inline;fill:#993333;}
	.st2{fill:none;stroke:#000000;stroke-width:5;stroke-miterlimit:10;}
	.st3{fill:none;stroke:#000000;stroke-width:4;stroke-miterlimit:10;}
	.st4{fill:#FFFFFF;}
</style>
<g id="Layer_3" class="st0">
	<rect x="-17" y="-7" class="st1" width="350" height="503"/>
</g>
<g id="Layer_1">
	<rect x="68.86" y="137.32" class="st2" width="162.28" height="285.01"/>
	<g>
		<line class="st2" x1="68.54" y1="207.58" x2="231.46" y2="207.58"/>
		<line class="st2" x1="69.99" y1="279.82" x2="230.01" y2="279.82"/>
		<line class="st2" x1="69.99" y1="352.06" x2="230.01" y2="352.06"/>
	</g>
	<g>
		<line class="st3" x1="121.45" y1="138" x2="121.45" y2="424"/>
		<line class="st3" x1="178.55" y1="138" x2="178.55" y2="424"/>
	</g>
</g>
<g id="Text">
	<g>
		<path d="M114.68,65.1h15.66c2.77,0,5.37,0.56,7.8,1.67c2.43,1.12,4.55,2.6,6.37,4.46c1.82,1.85,3.25,4.01,4.29,6.48
			c1.04,2.47,1.57,5.05,1.57,7.75c0,2.66-0.51,5.23-1.54,7.69c-1.03,2.47-2.45,4.64-4.27,6.51c-1.82,1.87-3.94,3.37-6.37,4.48
			c-2.43,1.12-5.05,1.67-7.86,1.67h-15.66V65.1z M125.27,96.86h2.43c1.84,0,3.47-0.29,4.91-0.86c1.44-0.58,2.65-1.37,3.64-2.38
			c0.99-1.01,1.75-2.2,2.27-3.59c0.52-1.39,0.78-2.91,0.78-4.56c0-1.62-0.27-3.13-0.81-4.54s-1.31-2.61-2.29-3.62
			c-0.99-1.01-2.21-1.8-3.65-2.38c-1.44-0.58-3.06-0.86-4.86-0.86h-2.43V96.86z"/>
		<path d="M174.19,74.07h-17.01V65.1h33.43l-23.33,40.72h-11.66L174.19,74.07z"/>
	</g>
	<g>
		<circle cx="69" cy="171" r="25"/>
	</g>
	<g>
		<circle cx="232" cy="171" r="25"/>
	</g>
	<rect x="66" y="146.25" width="165" height="50"/>
	<g>
		<path d="M35.22,159.97H21.12l-0.7,4.48c0.65-0.07,1.24-0.14,1.78-0.19s1.1-0.08,1.67-0.08c2.05,0,3.96,0.36,5.72,1.08
			c1.76,0.72,3.28,1.71,4.54,2.97c1.26,1.26,2.25,2.77,2.97,4.54c0.72,1.76,1.08,3.69,1.08,5.78c0,2.2-0.41,4.18-1.21,5.94
			c-0.81,1.76-1.95,3.27-3.43,4.51c-1.48,1.24-3.28,2.2-5.4,2.86c-2.12,0.67-4.48,1-7.07,1c-2.45,0-4.78-0.3-6.99-0.89
			c-2.21-0.59-4.29-1.5-6.24-2.73l1.57-9.94c1.8,1.55,3.64,2.73,5.51,3.54c1.87,0.81,3.65,1.21,5.35,1.21
			c2.16,0,3.87-0.58,5.13-1.75c1.26-1.17,1.89-2.62,1.89-4.35c0-2.02-0.85-3.65-2.54-4.89s-3.91-1.86-6.64-1.86
			c-1.22,0-2.48,0.13-3.78,0.4c-1.3,0.27-2.57,0.69-3.83,1.27l3.4-21.87h21.33V159.97z"/>
	</g>
	<g>
		<g>
			<g>
				<circle cx="121" cy="245" r="25"/>
			</g>
		</g>
		<g>
			<path class="st4" d="M131.43,258.8h-20.64l6.36-6.6c1.68-1.75,2.99-3.22,3.94-4.44c0.95-1.21,1.66-2.24,2.12-3.08
				c0.46-0.84,0.75-1.52,0.87-2.04c0.11-0.52,0.17-0.96,0.17-1.33c0-0.39-0.06-0.76-0.19-1.12c-0.12-0.36-0.31-0.69-0.56-0.97
				c-0.25-0.28-0.55-0.51-0.9-0.68s-0.76-0.25-1.24-0.25c-0.91,0-1.62,0.29-2.12,0.88c-0.51,0.59-0.77,1.33-0.77,2.21
				c0,0.25,0.03,0.61,0.1,1.09h-7.28c0-1.5,0.24-2.86,0.73-4.08c0.49-1.22,1.17-2.28,2.06-3.16s1.93-1.56,3.14-2.04
				c1.21-0.48,2.54-0.71,4-0.71c1.43,0,2.75,0.23,3.96,0.68c1.21,0.45,2.26,1.09,3.15,1.9s1.58,1.79,2.07,2.91
				c0.5,1.12,0.75,2.34,0.75,3.66c0,1.41-0.3,2.7-0.9,3.89c-0.6,1.19-1.56,2.41-2.87,3.65l-4.25,3.98h8.3V258.8z"/>
		</g>
	</g>
</g>
</svg>
