<?xml version="1.0" encoding="utf-8"?>
<!-- Generator: Adobe Illustrator 29.8.2, SVG Export Plug-In . SVG Version: 9.03 Build 0)  -->
<svg version="1.1" xmlns="http://www.w3.org/2000/svg" xmlns:xlink="http://www.w3.org/1999/xlink" x="0px" y="0px"
	 viewBox="0 0 300 480" style="enable-background:new 0 0 300 480;" xml:space="preserve">
<style type="text/css">
	.st0{display:none;}
	.st1{display:inline;fill:#993333;}
	.st2{fill:none;stroke:#000000;stroke-width:5;stroke-miterlimit:10;}
	.st3{fill:none;stroke:#000000;stroke-width:4;stroke-miterlimit:10;}
	.st4{fill:#FFFFFF;}
</style>
<g id="Layer_3" class="st0">
	<rect x="-17" y="-7" class="st1" width="350" height="503"/>
</g>
<g id="Layer_1">
	<rect x="68.86" y="137.32" class="st2" width="162.28" height="285.01"/>
	<g>
		<line class="st2" x1="68.54" y1="207.58" x2="231.46" y2="207.58"/>
		<line class="st2" x1="69.99" y1="279.82" x2="230.01" y2="279.82"/>
		<line class="st2" x1="69.99" y1="352.06" x2="230.01" y2="352.06"/>
	</g>
	<g>
		<line class="st3" x1="121.45" y1="138" x2="121.45" y2="424"/>
		<line class="st3" x1="178.55" y1="138" x2="178.55" y2="424"/>
	</g>
</g>
<g id="Text">
	<g>
		<path d="M50.78,65.1h15.66c2.77,0,5.37,0.56,7.8,1.67c2.43,1.12,4.55,2.6,6.37,4.46c1.82,1.85,3.25,4.01,4.29,6.48
			c1.04,2.47,1.57,5.05,1.57,7.75c0,2.66-0.51,5.23-1.54,7.69c-1.03,2.47-2.45,4.64-4.27,6.51c-1.82,1.87-3.94,3.37-6.37,4.48
			c-2.43,1.12-5.05,1.67-7.86,1.67H50.78V65.1z M61.36,96.86h2.43c1.84,0,3.47-0.29,4.91-0.86c1.44-0.58,2.65-1.37,3.64-2.38
			c0.99-1.01,1.75-2.2,2.27-3.59c0.52-1.39,0.78-2.91,0.78-4.56c0-1.62-0.27-3.13-0.81-4.54s-1.31-2.61-2.29-3.62
			c-0.99-1.01-2.21-1.8-3.65-2.38c-1.44-0.58-3.06-0.86-4.86-0.86h-2.43V96.86z"/>
		<path d="M110.28,74.07H93.27V65.1h33.43l-23.33,40.72H91.71L110.28,74.07z"/>
		<path d="M147.38,85.25c-1.8-0.94-3.56-1.4-5.29-1.4c-0.9,0-1.63,0.18-2.19,0.54c-0.56,0.36-0.84,0.85-0.84,1.46
			c0,0.32,0.04,0.59,0.14,0.78c0.09,0.2,0.29,0.39,0.59,0.57c0.31,0.18,0.76,0.34,1.35,0.49c0.59,0.14,1.38,0.32,2.35,0.54
			c2.7,0.54,4.72,1.5,6.05,2.89c1.33,1.39,2,3.16,2,5.32c0,1.62-0.32,3.08-0.97,4.37c-0.65,1.3-1.55,2.39-2.7,3.27
			c-1.15,0.88-2.54,1.57-4.16,2.05c-1.62,0.49-3.4,0.73-5.35,0.73c-3.75,0-7.43-1.06-11.07-3.19l3.56-6.91
			c2.74,1.87,5.33,2.81,7.78,2.81c0.9,0,1.64-0.2,2.21-0.59c0.58-0.4,0.86-0.9,0.86-1.51c0-0.36-0.05-0.66-0.13-0.89
			c-0.09-0.23-0.28-0.45-0.57-0.65c-0.29-0.2-0.71-0.38-1.27-0.54c-0.56-0.16-1.29-0.33-2.19-0.51c-3.02-0.61-5.14-1.52-6.34-2.73
			c-1.21-1.21-1.81-2.87-1.81-5c0-1.55,0.29-2.94,0.86-4.19c0.58-1.24,1.4-2.29,2.48-3.16c1.08-0.86,2.38-1.53,3.92-2
			c1.53-0.47,3.23-0.7,5.1-0.7c3.06,0,6.03,0.59,8.91,1.78L147.38,85.25z"/>
		<path d="M166.28,78.12v15.61c0,3.42,1.66,5.13,4.97,5.13c3.31,0,4.97-1.71,4.97-5.13V78.12h9.77v17.5c0,3.74-1.23,6.55-3.7,8.42
			c-2.47,1.87-6.15,2.81-11.04,2.81c-4.9,0-8.58-0.94-11.04-2.81c-2.47-1.87-3.7-4.68-3.7-8.42v-17.5H166.28z"/>
		<path d="M210.99,85.25c-1.8-0.94-3.56-1.4-5.29-1.4c-0.9,0-1.63,0.18-2.19,0.54c-0.56,0.36-0.84,0.85-0.84,1.46
			c0,0.32,0.04,0.59,0.14,0.78c0.09,0.2,0.29,0.39,0.59,0.57c0.31,0.18,0.76,0.34,1.35,0.49c0.59,0.14,1.38,0.32,2.35,0.54
			c2.7,0.54,4.72,1.5,6.05,2.89c1.33,1.39,2,3.16,2,5.32c0,1.62-0.32,3.08-0.97,4.37c-0.65,1.3-1.55,2.39-2.7,3.27
			c-1.15,0.88-2.54,1.57-4.16,2.05c-1.62,0.49-3.4,0.73-5.35,0.73c-3.75,0-7.43-1.06-11.07-3.19l3.56-6.91
			c2.74,1.87,5.33,2.81,7.78,2.81c0.9,0,1.64-0.2,2.21-0.59c0.58-0.4,0.86-0.9,0.86-1.51c0-0.36-0.05-0.66-0.13-0.89
			c-0.09-0.23-0.28-0.45-0.57-0.65c-0.29-0.2-0.71-0.38-1.27-0.54c-0.56-0.16-1.29-0.33-2.19-0.51c-3.02-0.61-5.14-1.52-6.34-2.73
			c-1.21-1.21-1.81-2.87-1.81-5c0-1.55,0.29-2.94,0.86-4.19c0.58-1.24,1.4-2.29,2.48-3.16c1.08-0.86,2.38-1.53,3.92-2
			c1.53-0.47,3.23-0.7,5.1-0.7c3.06,0,6.03,0.59,8.91,1.78L210.99,85.25z"/>
		<path d="M251.06,105.82h-32.78l10.1-10.48c2.66-2.77,4.75-5.12,6.26-7.05c1.51-1.93,2.64-3.55,3.38-4.89
			c0.74-1.33,1.2-2.41,1.38-3.24c0.18-0.83,0.27-1.53,0.27-2.11c0-0.61-0.1-1.21-0.3-1.78c-0.2-0.58-0.5-1.09-0.89-1.54
			c-0.4-0.45-0.87-0.81-1.43-1.08c-0.56-0.27-1.22-0.4-1.97-0.4c-1.44,0-2.56,0.47-3.38,1.4c-0.81,0.94-1.21,2.11-1.21,3.51
			c0,0.4,0.05,0.97,0.16,1.73h-11.56c0-2.38,0.39-4.54,1.16-6.48c0.77-1.94,1.86-3.62,3.27-5.02c1.4-1.4,3.07-2.48,5-3.24
			c1.93-0.76,4.04-1.13,6.34-1.13c2.27,0,4.37,0.36,6.29,1.08c1.93,0.72,3.59,1.73,5,3.02s2.5,2.83,3.29,4.62
			c0.79,1.78,1.19,3.72,1.19,5.81c0,2.23-0.48,4.29-1.43,6.18s-2.48,3.83-4.56,5.8l-6.75,6.32h13.18V105.82z"/>
	</g>
	<g>
		<path d="M39.27,191.72H6.49l10.1-10.48c2.66-2.77,4.75-5.12,6.26-7.05c1.51-1.92,2.64-3.55,3.38-4.89
			c0.74-1.33,1.2-2.41,1.38-3.24c0.18-0.83,0.27-1.53,0.27-2.11c0-0.61-0.1-1.21-0.3-1.78c-0.2-0.58-0.5-1.09-0.89-1.54
			c-0.4-0.45-0.87-0.81-1.43-1.08c-0.56-0.27-1.22-0.4-1.97-0.4c-1.44,0-2.56,0.47-3.38,1.4c-0.81,0.94-1.21,2.11-1.21,3.51
			c0,0.4,0.05,0.97,0.16,1.73H7.3c0-2.38,0.39-4.54,1.16-6.48c0.77-1.94,1.86-3.62,3.27-5.02c1.4-1.4,3.07-2.48,5-3.24
			c1.93-0.76,4.04-1.13,6.34-1.13c2.27,0,4.37,0.36,6.29,1.08c1.93,0.72,3.59,1.73,5,3.02s2.5,2.83,3.29,4.62
			c0.79,1.78,1.19,3.72,1.19,5.81c0,2.23-0.48,4.29-1.43,6.18s-2.48,3.83-4.56,5.8l-6.75,6.32h13.18V191.72z"/>
	</g>
	<g>
		<g>
			<g>
				<circle cx="121" cy="173" r="25"/>
			</g>
		</g>
		<g>
			<path class="st4" d="M118.85,166.81h-3.74v-5.64h10.4v25.64h-6.66V166.81z"/>
		</g>
	</g>
	<g>
		<g>
			<g>
				<circle cx="69" cy="390" r="25"/>
			</g>
		</g>
		<g>
			<path class="st4" d="M76.88,383.81H68l-0.44,2.82c0.41-0.05,0.78-0.08,1.12-0.12s0.69-0.05,1.05-0.05c1.29,0,2.49,0.23,3.6,0.68
				s2.06,1.08,2.86,1.87c0.79,0.79,1.42,1.75,1.87,2.86c0.45,1.11,0.68,2.32,0.68,3.64c0,1.38-0.25,2.63-0.77,3.74
				c-0.51,1.11-1.23,2.06-2.16,2.84c-0.93,0.78-2.06,1.38-3.4,1.8c-1.34,0.42-2.82,0.63-4.45,0.63c-1.54,0-3.01-0.19-4.4-0.56
				c-1.39-0.37-2.7-0.95-3.93-1.72l0.99-6.26c1.13,0.98,2.29,1.72,3.47,2.23s2.3,0.76,3.37,0.76c1.36,0,2.44-0.37,3.23-1.1
				c0.79-0.74,1.19-1.65,1.19-2.74c0-1.27-0.53-2.29-1.6-3.08c-1.07-0.78-2.46-1.17-4.18-1.17c-0.77,0-1.56,0.08-2.38,0.25
				c-0.82,0.17-1.62,0.44-2.41,0.8l2.14-13.77h13.43V383.81z"/>
		</g>
	</g>
</g>
</svg>
