<?xml version="1.0" encoding="utf-8"?>
<!-- Generator: Adobe Illustrator 29.8.2, SVG Export Plug-In . SVG Version: 9.03 Build 0)  -->
<svg version="1.1" id="Layer_1" xmlns="http://www.w3.org/2000/svg" xmlns:xlink="http://www.w3.org/1999/xlink" x="0px" y="0px"
	 viewBox="0 0 300 480" style="enable-background:new 0 0 300 480;" xml:space="preserve">
<style type="text/css">
	.st0{display:none;}
	.st1{display:inline;fill:#993333;}
	.st2{fill:none;stroke:#000000;stroke-width:5;stroke-miterlimit:10;}
	.st3{fill:none;stroke:#000000;stroke-width:4;stroke-miterlimit:10;}
	.st4{fill:#FFFFFF;}
</style>
<g id="Layer_3" class="st0">
	<rect x="-17" y="-7" class="st1" width="350" height="503"/>
</g>
<g id="Layer_1_00000140733225576100267140000010607778436519705000_">
	<rect x="68.86" y="137.32" class="st2" width="162.28" height="285.01"/>
	<g>
		<line class="st2" x1="68.54" y1="207.58" x2="231.46" y2="207.58"/>
		<line class="st2" x1="69.99" y1="279.82" x2="230.01" y2="279.82"/>
		<line class="st2" x1="69.99" y1="352.06" x2="230.01" y2="352.06"/>
	</g>
	<g>
		<line class="st3" x1="121.45" y1="138" x2="121.45" y2="424"/>
		<line class="st3" x1="178.55" y1="138" x2="178.55" y2="424"/>
	</g>
</g>
<g id="Text">
	<g>
		<circle cx="70" cy="173" r="25"/>
	</g>
	<g>
		<g>
			<circle cx="231" cy="387" r="25"/>
		</g>
		<g>
			<path class="st4" d="M238.48,390.06h3.09v5.1h-3.09v5.27h-6.19v-5.27h-12.38v-4.28l9.79-16.08h8.77v15.26H238.48z M232.29,390.06
				v-10.1l-5.88,10.1H232.29z"/>
		</g>
	</g>
	<g>
		<circle cx="230" cy="173" r="25"/>
	</g>
	<rect x="69.12" y="148" width="162.5" height="50"/>
	<g>
		<path class="st4" d="M147.82,166.4h-3.74v-5.64h10.4v25.64h-6.66L147.82,166.4L147.82,166.4z"/>
	</g>
	<g>
		<path d="M40.66,191.12H7.88l10.1-10.48c2.66-2.77,4.75-5.12,6.26-7.05c1.51-1.93,2.64-3.55,3.38-4.89
			c0.74-1.33,1.2-2.41,1.38-3.24c0.18-0.83,0.27-1.53,0.27-2.11c0-0.61-0.1-1.21-0.3-1.78c-0.2-0.58-0.5-1.09-0.89-1.54
			c-0.4-0.45-0.87-0.81-1.43-1.08s-1.21-0.4-1.97-0.4c-1.44,0-2.56,0.47-3.38,1.4c-0.81,0.94-1.22,2.11-1.22,3.51
			c0,0.4,0.05,0.97,0.16,1.73H8.69c0-2.38,0.39-4.54,1.16-6.48s1.86-3.62,3.27-5.02c1.4-1.4,3.07-2.48,5-3.24
			c1.93-0.76,4.04-1.13,6.34-1.13c2.27,0,4.36,0.36,6.29,1.08s3.59,1.73,5,3.02s2.5,2.83,3.29,4.62c0.79,1.78,1.19,3.72,1.19,5.81
			c0,2.23-0.48,4.29-1.43,6.18s-2.48,3.83-4.56,5.8l-6.75,6.32h13.18L40.66,191.12L40.66,191.12z"/>
	</g>
	<g>
		<g>
			<circle cx="121" cy="317" r="25"/>
		</g>
		<g>
			<path class="st4" d="M131.03,330.43h-20.64l6.36-6.6c1.68-1.75,2.99-3.22,3.94-4.44c0.95-1.21,1.66-2.24,2.12-3.08
				s0.75-1.52,0.87-2.04c0.11-0.52,0.17-0.96,0.17-1.33c0-0.38-0.06-0.76-0.19-1.12c-0.12-0.36-0.31-0.68-0.56-0.97
				c-0.25-0.28-0.55-0.51-0.9-0.68s-0.76-0.25-1.24-0.25c-0.91,0-1.62,0.29-2.12,0.88c-0.51,0.59-0.77,1.33-0.77,2.21
				c0,0.25,0.03,0.61,0.1,1.09h-7.28c0-1.5,0.24-2.86,0.73-4.08c0.49-1.22,1.17-2.28,2.06-3.16s1.93-1.56,3.14-2.04
				s2.54-0.71,4-0.71c1.43,0,2.75,0.23,3.96,0.68c1.21,0.45,2.26,1.09,3.15,1.9c0.88,0.82,1.58,1.79,2.07,2.91
				c0.5,1.12,0.75,2.34,0.75,3.66c0,1.41-0.3,2.7-0.9,3.89c-0.6,1.19-1.56,2.41-2.87,3.65l-4.25,3.98h8.3L131.03,330.43
				L131.03,330.43z"/>
		</g>
	</g>
	<g>
		<path d="M57.9,65.1h15.66c2.77,0,5.37,0.56,7.8,1.67c2.43,1.12,4.55,2.6,6.37,4.46c1.82,1.85,3.25,4.01,4.29,6.48
			s1.57,5.05,1.57,7.75c0,2.66-0.51,5.23-1.54,7.69c-1.03,2.47-2.45,4.64-4.27,6.51s-3.94,3.37-6.37,4.48
			c-2.43,1.12-5.05,1.67-7.86,1.67H57.9V65.1z M68.49,96.86h2.43c1.84,0,3.47-0.29,4.91-0.86c1.44-0.58,2.65-1.37,3.64-2.38
			c0.99-1.01,1.75-2.2,2.27-3.59s0.78-2.91,0.78-4.56c0-1.62-0.27-3.13-0.81-4.54s-1.31-2.61-2.29-3.62
			c-0.99-1.01-2.21-1.8-3.65-2.38c-1.44-0.58-3.06-0.86-4.86-0.86h-2.43v22.79H68.49z"/>
		<path d="M120.81,78.12h9.83v27.7h-9.83v-3.08c-2.09,2.63-4.91,3.94-8.48,3.94c-2.02,0-3.87-0.37-5.56-1.11
			c-1.69-0.74-3.17-1.77-4.43-3.1s-2.24-2.9-2.94-4.7c-0.7-1.8-1.05-3.76-1.05-5.89c0-1.98,0.34-3.86,1.03-5.64
			c0.68-1.78,1.64-3.34,2.86-4.67s2.68-2.38,4.37-3.16c1.69-0.77,3.56-1.16,5.62-1.16c3.46,0,6.32,1.21,8.59,3.62v-2.75H120.81z
			 M108.5,91.89c0,0.9,0.16,1.74,0.49,2.51c0.32,0.77,0.76,1.45,1.32,2.02c0.56,0.58,1.22,1.03,2,1.35
			c0.77,0.32,1.61,0.49,2.51,0.49c0.86,0,1.68-0.16,2.46-0.49c0.77-0.32,1.44-0.77,2-1.35s1.01-1.24,1.35-2s0.51-1.57,0.51-2.43
			s-0.17-1.68-0.51-2.46c-0.34-0.77-0.79-1.45-1.35-2.03s-1.22-1.03-2-1.35c-0.77-0.32-1.59-0.49-2.46-0.49
			c-0.9,0-1.74,0.16-2.51,0.49c-0.77,0.32-1.44,0.77-2,1.35s-1,1.23-1.32,1.97C108.66,90.22,108.5,91.02,108.5,91.89z"/>
		<path d="M158.67,61h9.83v44.82h-9.83v-3.08c-2.09,2.63-4.91,3.94-8.48,3.94c-2.02,0-3.87-0.38-5.56-1.13
			c-1.69-0.76-3.17-1.8-4.43-3.13c-1.26-1.33-2.24-2.9-2.94-4.7c-0.7-1.8-1.05-3.74-1.05-5.83c0-1.98,0.33-3.86,1-5.64
			s1.61-3.34,2.83-4.67s2.69-2.38,4.4-3.16c1.71-0.77,3.59-1.16,5.64-1.16c3.46,0,6.32,1.21,8.59,3.62V61z M146.36,91.89
			c0,0.9,0.16,1.74,0.49,2.51c0.32,0.77,0.76,1.45,1.32,2.02c0.56,0.58,1.22,1.03,2,1.35c0.77,0.32,1.61,0.49,2.51,0.49
			c0.86,0,1.68-0.16,2.46-0.49c0.77-0.32,1.44-0.77,2-1.35s1.01-1.24,1.35-2c0.34-0.76,0.51-1.57,0.51-2.43s-0.17-1.68-0.51-2.46
			c-0.34-0.77-0.79-1.45-1.35-2.03c-0.56-0.58-1.22-1.03-2-1.35c-0.77-0.32-1.59-0.49-2.46-0.49c-0.86,0-1.68,0.16-2.46,0.49
			c-0.77,0.32-1.44,0.77-2,1.35s-1.01,1.23-1.35,1.97C146.53,90.22,146.36,91.02,146.36,91.89z"/>
		<path d="M196.52,61h9.83v44.82h-9.83v-3.08c-2.09,2.63-4.91,3.94-8.48,3.94c-2.02,0-3.87-0.38-5.56-1.13
			c-1.69-0.76-3.17-1.8-4.43-3.13c-1.26-1.33-2.24-2.9-2.94-4.7c-0.7-1.8-1.05-3.74-1.05-5.83c0-1.98,0.33-3.86,1-5.64
			s1.61-3.34,2.83-4.67s2.69-2.38,4.4-3.16c1.71-0.77,3.59-1.16,5.64-1.16c3.46,0,6.32,1.21,8.59,3.62V61z M184.21,91.89
			c0,0.9,0.16,1.74,0.49,2.51c0.32,0.77,0.76,1.45,1.32,2.02c0.56,0.58,1.22,1.03,2,1.35c0.77,0.32,1.61,0.49,2.51,0.49
			c0.86,0,1.68-0.16,2.46-0.49c0.77-0.32,1.44-0.77,2-1.35s1.01-1.24,1.35-2c0.34-0.76,0.51-1.57,0.51-2.43s-0.17-1.68-0.51-2.46
			c-0.34-0.77-0.79-1.45-1.35-2.03c-0.56-0.58-1.22-1.03-2-1.35c-0.77-0.32-1.59-0.49-2.46-0.49c-0.86,0-1.68,0.16-2.46,0.49
			c-0.77,0.32-1.44,0.77-2,1.35s-1.01,1.23-1.35,1.97C184.38,90.22,184.21,91.02,184.21,91.89z"/>
		<g>
			<path d="M220.54,104.52l11.56-13.28h-0.22c-1.01,0.61-1.84,0.98-2.48,1.11c-0.65,0.13-1.22,0.19-1.73,0.19
				c-1.98,0-3.81-0.38-5.48-1.13c-1.67-0.76-3.12-1.79-4.32-3.1c-1.21-1.31-2.15-2.85-2.83-4.62c-0.68-1.76-1.03-3.65-1.03-5.67
				c0-2.16,0.4-4.17,1.19-6.02c0.79-1.85,1.93-3.47,3.43-4.86c1.49-1.39,3.3-2.47,5.43-3.27c2.12-0.79,4.52-1.19,7.18-1.19
				c2.7,0,5.11,0.4,7.24,1.19c2.12,0.79,3.93,1.87,5.43,3.24c1.49,1.37,2.64,2.96,3.43,4.78c0.79,1.82,1.19,3.75,1.19,5.81
				c0,2.3-0.51,4.8-1.54,7.48c-1.03,2.68-2.6,5.32-4.72,7.91l-9.45,11.45H220.54z M238.04,77.79c0-0.94-0.18-1.81-0.54-2.62
				c-0.36-0.81-0.85-1.52-1.46-2.13c-0.61-0.61-1.32-1.1-2.13-1.46c-0.81-0.36-1.68-0.54-2.62-0.54c-0.94,0-1.81,0.18-2.62,0.54
				c-0.81,0.36-1.52,0.85-2.13,1.46c-0.61,0.61-1.1,1.32-1.46,2.13c-0.36,0.81-0.54,1.68-0.54,2.62c0,0.94,0.18,1.81,0.54,2.62
				c0.36,0.81,0.85,1.52,1.46,2.13c0.61,0.61,1.32,1.1,2.13,1.46c0.81,0.36,1.68,0.54,2.62,0.54c0.94,0,1.81-0.18,2.62-0.54
				c0.81-0.36,1.52-0.85,2.13-1.46c0.61-0.61,1.1-1.32,1.46-2.13C237.86,79.6,238.04,78.73,238.04,77.79z"/>
		</g>
	</g>
</g>
</svg>
