<?xml version="1.0" encoding="utf-8"?>
<!-- Generator: Adobe Illustrator 29.8.2, SVG Export Plug-In . SVG Version: 9.03 Build 0)  -->
<svg version="1.1" xmlns="http://www.w3.org/2000/svg" xmlns:xlink="http://www.w3.org/1999/xlink" x="0px" y="0px"
	 viewBox="0 0 300 480" style="enable-background:new 0 0 300 480;" xml:space="preserve">
<style type="text/css">
	.st0{display:none;}
	.st1{display:inline;fill:#993333;}
	.st2{fill:none;stroke:#000000;stroke-width:5;stroke-miterlimit:10;}
	.st3{fill:none;stroke:#000000;stroke-width:4;stroke-miterlimit:10;}
	.st4{fill:#FFFFFF;}
</style>
<g id="Layer_3" class="st0">
	<rect x="-17" y="-7" class="st1" width="350" height="503"/>
</g>
<g id="Layer_1">
	<rect x="68.86" y="137.32" class="st2" width="162.28" height="285.01"/>
	<g>
		<line class="st2" x1="68.54" y1="207.58" x2="231.46" y2="207.58"/>
		<line class="st2" x1="69.99" y1="279.82" x2="230.01" y2="279.82"/>
		<line class="st2" x1="69.99" y1="352.06" x2="230.01" y2="352.06"/>
	</g>
	<g>
		<line class="st3" x1="121.45" y1="138" x2="121.45" y2="424"/>
		<line class="st3" x1="178.55" y1="138" x2="178.55" y2="424"/>
	</g>
</g>
<g id="Text">
	<g>
		<path d="M114.12,65.1h15.66c2.77,0,5.37,0.56,7.8,1.67c2.43,1.12,4.55,2.6,6.37,4.46c1.82,1.85,3.25,4.01,4.29,6.48
			c1.04,2.47,1.57,5.05,1.57,7.75c0,2.66-0.51,5.23-1.54,7.69c-1.03,2.47-2.45,4.64-4.27,6.51c-1.82,1.87-3.94,3.37-6.37,4.48
			c-2.43,1.12-5.05,1.67-7.86,1.67h-15.66V65.1z M124.7,96.86h2.43c1.84,0,3.47-0.29,4.91-0.86c1.44-0.58,2.65-1.37,3.64-2.38
			c0.99-1.01,1.75-2.2,2.27-3.59c0.52-1.39,0.78-2.91,0.78-4.56c0-1.62-0.27-3.13-0.81-4.54s-1.31-2.61-2.29-3.62
			c-0.99-1.01-2.21-1.8-3.65-2.38c-1.44-0.58-3.06-0.86-4.86-0.86h-2.43V96.86z"/>
		<path d="M165.42,61v19.87c2.3-2.41,5.18-3.62,8.64-3.62c2.05,0,3.93,0.39,5.64,1.16c1.71,0.77,3.17,1.82,4.37,3.13
			c1.21,1.31,2.15,2.86,2.83,4.64c0.68,1.78,1.03,3.68,1.03,5.7c0,2.05-0.35,3.98-1.05,5.78c-0.7,1.8-1.68,3.37-2.94,4.7
			c-1.26,1.33-2.75,2.39-4.45,3.16c-1.71,0.77-3.56,1.16-5.54,1.16c-3.6,0-6.45-1.31-8.53-3.94v3.08h-9.77V61H165.42z M177.73,92.05
			c0-0.86-0.16-1.68-0.49-2.46c-0.32-0.77-0.77-1.45-1.35-2.02c-0.58-0.58-1.24-1.03-2-1.38c-0.76-0.34-1.58-0.51-2.48-0.51
			c-0.86,0-1.67,0.16-2.43,0.49c-0.76,0.32-1.41,0.77-1.97,1.35c-0.56,0.58-1.01,1.25-1.35,2.03c-0.34,0.77-0.51,1.59-0.51,2.46
			c0,0.86,0.16,1.67,0.49,2.43s0.77,1.41,1.35,1.97c0.58,0.56,1.25,1.01,2.02,1.35c0.77,0.34,1.59,0.51,2.46,0.51
			s1.67-0.16,2.43-0.49c0.76-0.32,1.41-0.77,1.97-1.35c0.56-0.58,1.01-1.24,1.35-2C177.56,93.67,177.73,92.88,177.73,92.05z"/>
	</g>
	<path d="M237.58,140H62.42c-1.89,0-3.42-1.53-3.42-3.42v-4.8c0-1.89,1.53-3.42,3.42-3.42h175.16c1.89,0,3.42,1.53,3.42,3.42v4.8
		C241,138.47,239.47,140,237.58,140z"/>
	<g>
		<circle cx="231" cy="388" r="25"/>
	</g>
	<g>
		<path class="st4" d="M238.88,391.43h3.09v5.1h-3.09v5.27h-6.19v-5.27h-12.38v-4.28l9.79-16.08h8.77V391.43z M232.69,391.43v-10.1
			l-5.88,10.1H232.69z"/>
	</g>
	<g>
		<circle cx="70" cy="173" r="25"/>
	</g>
	<g>
		<circle cx="230" cy="173" r="25"/>
	</g>
	<rect x="69.12" y="148" width="162.5" height="50"/>
	<g>
		<path class="st4" d="M147.82,166.4h-3.74v-5.64h10.4v25.64h-6.66V166.4z"/>
	</g>
</g>
</svg>
