<?xml version="1.0" encoding="utf-8"?>
<!-- Generator: Adobe Illustrator 29.8.2, SVG Export Plug-In . SVG Version: 9.03 Build 0)  -->
<svg version="1.1" xmlns="http://www.w3.org/2000/svg" xmlns:xlink="http://www.w3.org/1999/xlink" x="0px" y="0px"
	 viewBox="0 0 300 480" style="enable-background:new 0 0 300 480;" xml:space="preserve">
<style type="text/css">
	.st0{display:none;}
	.st1{display:inline;fill:#993333;}
	.st2{fill:none;stroke:#000000;stroke-width:5;stroke-miterlimit:10;}
	.st3{fill:none;stroke:#000000;stroke-width:4;stroke-miterlimit:10;}
	.st4{fill:#FFFFFF;}
</style>
<g id="Layer_3" class="st0">
	<rect x="-17" y="-7" class="st1" width="350" height="503"/>
</g>
<g id="Layer_1">
	<rect x="68.86" y="137.32" class="st2" width="162.28" height="285.01"/>
	<g>
		<line class="st2" x1="68.54" y1="207.58" x2="231.46" y2="207.58"/>
		<line class="st2" x1="69.99" y1="279.82" x2="230.01" y2="279.82"/>
		<line class="st2" x1="69.99" y1="352.06" x2="230.01" y2="352.06"/>
	</g>
	<g>
		<line class="st3" x1="121.45" y1="138" x2="121.45" y2="424"/>
		<line class="st3" x1="178.55" y1="138" x2="178.55" y2="424"/>
	</g>
</g>
<g id="Text">
	<g>
		<path d="M87.9,65.1h15.66c2.77,0,5.37,0.56,7.8,1.67c2.43,1.12,4.55,2.6,6.37,4.46c1.82,1.85,3.25,4.01,4.29,6.48
			c1.04,2.47,1.57,5.05,1.57,7.75c0,2.66-0.51,5.23-1.54,7.69c-1.03,2.47-2.45,4.64-4.27,6.51c-1.82,1.87-3.94,3.37-6.37,4.48
			c-2.43,1.12-5.05,1.67-7.86,1.67H87.9V65.1z M98.48,96.86h2.43c1.84,0,3.47-0.29,4.91-0.86c1.44-0.58,2.65-1.37,3.64-2.38
			c0.99-1.01,1.75-2.2,2.27-3.59c0.52-1.39,0.78-2.91,0.78-4.56c0-1.62-0.27-3.13-0.81-4.54s-1.31-2.61-2.29-3.62
			c-0.99-1.01-2.21-1.8-3.65-2.38c-1.44-0.58-3.06-0.86-4.86-0.86h-2.43V96.86z"/>
		<path d="M129.43,78.12h9.77v3.4c2.66-2.56,5.65-3.83,8.96-3.83c4.1,0,7.24,1.73,9.4,5.18c2.2-3.49,5.33-5.24,9.4-5.24
			c1.3,0,2.52,0.19,3.67,0.57s2.14,0.97,2.97,1.78s1.49,1.86,1.97,3.16c0.49,1.3,0.73,2.86,0.73,4.7v17.98h-9.77V92.16
			c0-1.4-0.1-2.56-0.3-3.46c-0.2-0.9-0.49-1.6-0.86-2.11c-0.38-0.5-0.82-0.85-1.32-1.03c-0.5-0.18-1.04-0.27-1.62-0.27
			c-3.13,0-4.7,2.29-4.7,6.86v13.66h-9.77V92.16c0-1.4-0.09-2.56-0.27-3.48s-0.44-1.65-0.78-2.19c-0.34-0.54-0.78-0.91-1.32-1.11
			c-0.54-0.2-1.17-0.3-1.89-0.3c-0.61,0-1.19,0.09-1.73,0.27c-0.54,0.18-1.02,0.53-1.43,1.05c-0.42,0.52-0.74,1.24-0.97,2.16
			s-0.35,2.12-0.35,3.59v13.66h-9.77V78.12z"/>
		<path d="M200.98,74.07h-17.01V65.1h33.43l-23.33,40.72H182.4L200.98,74.07z"/>
	</g>
	<g>
		<g>
			<circle cx="69" cy="172" r="25"/>
		</g>
		<g>
			<circle cx="230" cy="172" r="25"/>
		</g>
		<rect x="66" y="147.25" width="165" height="50"/>
		<g>
			<path class="st4" d="M147.45,163.15h-3.74v-5.64h10.4v25.64h-6.66V163.15z"/>
		</g>
		<g>
			<path d="M36.61,159.37H22.52l-0.7,4.48c0.65-0.07,1.24-0.13,1.78-0.19s1.1-0.08,1.67-0.08c2.05,0,3.96,0.36,5.72,1.08
				c1.76,0.72,3.28,1.71,4.54,2.97c1.26,1.26,2.25,2.77,2.97,4.54c0.72,1.76,1.08,3.69,1.08,5.78c0,2.2-0.4,4.18-1.21,5.94
				c-0.81,1.76-1.95,3.27-3.43,4.51c-1.48,1.24-3.28,2.2-5.4,2.86c-2.12,0.67-4.48,1-7.07,1c-2.45,0-4.78-0.3-6.99-0.89
				c-2.21-0.59-4.29-1.5-6.24-2.73l1.57-9.94c1.8,1.55,3.64,2.73,5.51,3.54c1.87,0.81,3.65,1.21,5.35,1.21
				c2.16,0,3.87-0.58,5.13-1.75c1.26-1.17,1.89-2.62,1.89-4.35c0-2.02-0.85-3.65-2.54-4.89c-1.69-1.24-3.91-1.86-6.64-1.86
				c-1.22,0-2.48,0.14-3.78,0.4c-1.3,0.27-2.57,0.69-3.83,1.27l3.4-21.87h21.33V159.37z"/>
		</g>
	</g>
</g>
</svg>
