<?xml version="1.0" encoding="utf-8"?>
<!-- Generator: Adobe Illustrator 29.8.2, SVG Export Plug-In . SVG Version: 9.03 Build 0)  -->
<svg version="1.1" xmlns="http://www.w3.org/2000/svg" xmlns:xlink="http://www.w3.org/1999/xlink" x="0px" y="0px"
	 viewBox="0 0 300 480" style="enable-background:new 0 0 300 480;" xml:space="preserve">
<style type="text/css">
	.st0{display:none;}
	.st1{display:inline;fill:#993333;}
	.st2{fill:none;stroke:#000000;stroke-width:5;stroke-miterlimit:10;}
	.st3{fill:none;stroke:#000000;stroke-width:4;stroke-miterlimit:10;}
	.st4{fill:#FFFFFF;}
</style>
<g id="Layer_3" class="st0">
	<rect x="-17" y="-7" class="st1" width="350" height="503"/>
</g>
<g id="Layer_1">
	<rect x="68.86" y="137.32" class="st2" width="162.28" height="285.01"/>
	<g>
		<line class="st2" x1="68.54" y1="207.58" x2="231.46" y2="207.58"/>
		<line class="st2" x1="69.99" y1="279.82" x2="230.01" y2="279.82"/>
		<line class="st2" x1="69.99" y1="352.06" x2="230.01" y2="352.06"/>
	</g>
	<g>
		<line class="st3" x1="121.45" y1="138" x2="121.45" y2="424"/>
		<line class="st3" x1="178.55" y1="138" x2="178.55" y2="424"/>
	</g>
</g>
<g id="Text">
	<g>
		<path d="M96.32,65.1h15.66c2.77,0,5.37,0.56,7.8,1.67c2.43,1.12,4.55,2.6,6.37,4.46c1.82,1.85,3.25,4.01,4.29,6.48
			c1.04,2.47,1.57,5.05,1.57,7.75c0,2.66-0.51,5.23-1.54,7.69c-1.03,2.47-2.45,4.64-4.27,6.51c-1.82,1.87-3.94,3.37-6.37,4.48
			c-2.43,1.12-5.05,1.67-7.86,1.67H96.32V65.1z M106.91,96.86h2.43c1.84,0,3.47-0.29,4.91-0.86c1.44-0.58,2.65-1.37,3.64-2.38
			c0.99-1.01,1.75-2.2,2.27-3.59c0.52-1.39,0.78-2.91,0.78-4.56c0-1.62-0.27-3.13-0.81-4.54s-1.31-2.61-2.29-3.62
			c-0.99-1.01-2.21-1.8-3.65-2.38c-1.44-0.58-3.06-0.86-4.86-0.86h-2.43V96.86z"/>
		<path d="M168.79,87.62v7.02h-6.48l-1.46,11.18h-8.05l1.46-11.18h-5.24l-1.46,11.18h-7.99l1.51-11.18h-5.62v-7.02h6.48l0.65-5.18
			h-5.51v-6.97h6.43l1.35-10.37h7.94l-1.35,10.37h5.24l1.4-10.37h7.99l-1.35,10.37h5.51v6.97h-6.37l-0.7,5.18H168.79z M155.83,82.44
			h-5.24l-0.7,5.18h5.24L155.83,82.44z"/>
		<path d="M192.55,74.07h-17.01V65.1h33.43l-23.33,40.72h-11.66L192.55,74.07z"/>
	</g>
	<path d="M237.58,140H62.42c-1.89,0-3.42-1.53-3.42-3.42v-4.8c0-1.89,1.53-3.42,3.42-3.42h175.16c1.89,0,3.42,1.53,3.42,3.42v4.8
		C241,138.47,239.47,140,237.58,140z"/>
	<g>
		<circle cx="231" cy="244" r="25"/>
	</g>
	<g>
		<path class="st4" d="M241.43,257.8h-20.64l6.36-6.6c1.68-1.75,2.99-3.22,3.94-4.44c0.95-1.21,1.66-2.24,2.12-3.08
			c0.46-0.84,0.75-1.52,0.87-2.04c0.11-0.52,0.17-0.96,0.17-1.33c0-0.39-0.06-0.76-0.19-1.12c-0.12-0.36-0.31-0.69-0.56-0.97
			c-0.25-0.28-0.55-0.51-0.9-0.68s-0.76-0.25-1.24-0.25c-0.91,0-1.62,0.29-2.12,0.88c-0.51,0.59-0.77,1.33-0.77,2.21
			c0,0.25,0.03,0.61,0.1,1.09h-7.28c0-1.5,0.24-2.86,0.73-4.08c0.49-1.22,1.17-2.28,2.06-3.16s1.93-1.56,3.14-2.04
			c1.21-0.48,2.54-0.71,4-0.71c1.43,0,2.75,0.23,3.96,0.68c1.21,0.45,2.26,1.09,3.15,1.9s1.58,1.79,2.07,2.91
			c0.5,1.12,0.75,2.34,0.75,3.66c0,1.41-0.3,2.7-0.9,3.89c-0.6,1.19-1.56,2.41-2.87,3.65l-4.25,3.98h8.3V257.8z"/>
	</g>
	<g>
		<circle cx="70" cy="173" r="25"/>
	</g>
	<g>
		<circle cx="230" cy="173" r="25"/>
	</g>
	<rect x="69.12" y="148" width="162.5" height="50"/>
	<g>
		<path class="st4" d="M147.82,166.4h-3.74v-5.64h10.4v25.64h-6.66V166.4z"/>
	</g>
	<g>
		<path d="M22.52,166.28c0.29,0.04,0.53,0.05,0.73,0.05c0.2,0,0.37,0,0.51,0c1.33,0,2.41-0.4,3.24-1.19
			c0.83-0.79,1.24-1.82,1.24-3.08c0-1.22-0.39-2.21-1.16-2.97c-0.77-0.76-1.77-1.13-3-1.13c-1.3,0-2.34,0.43-3.13,1.3
			c-0.79,0.86-1.19,1.98-1.19,3.35H9.99c0.25-2.12,0.78-4.01,1.59-5.67c0.81-1.66,1.84-3.05,3.1-4.19c1.26-1.13,2.74-2,4.43-2.59
			c1.69-0.59,3.56-0.89,5.62-0.89c2.02,0,3.84,0.28,5.48,0.84c1.64,0.56,3.04,1.35,4.21,2.38c1.17,1.03,2.07,2.27,2.7,3.73
			c0.63,1.46,0.95,3.09,0.95,4.89c0,1.94-0.37,3.54-1.11,4.78c-0.74,1.24-1.79,2.31-3.16,3.21c2.09,0.65,3.72,1.81,4.89,3.48
			c1.17,1.67,1.76,3.74,1.76,6.18c0,2.02-0.4,3.85-1.19,5.51c-0.79,1.66-1.9,3.08-3.32,4.27c-1.42,1.19-3.11,2.11-5.08,2.75
			c-1.96,0.65-4.11,0.97-6.45,0.97c-3.13,0-5.96-0.61-8.48-1.84c-2.52-1.22-4.54-3.17-6.05-5.83c-0.68-1.19-1.14-2.38-1.38-3.56
			c-0.23-1.19-0.35-2.39-0.35-3.62h10.48c0.07,1.91,0.63,3.36,1.67,4.35c1.04,0.99,2.45,1.49,4.21,1.49c1.87,0,3.24-0.5,4.1-1.51
			c0.86-1.01,1.3-2.25,1.3-3.73c0-1.76-0.52-3.1-1.57-4c-1.04-0.9-2.29-1.35-3.73-1.35c-0.36,0-0.7,0.03-1.03,0.08
			c-0.32,0.05-0.68,0.12-1.08,0.19V166.28z"/>
	</g>
</g>
</svg>
