<?xml version="1.0" encoding="utf-8"?>
<!-- Generator: Adobe Illustrator 29.8.2, SVG Export Plug-In . SVG Version: 9.03 Build 0)  -->
<svg version="1.1" xmlns="http://www.w3.org/2000/svg" xmlns:xlink="http://www.w3.org/1999/xlink" x="0px" y="0px"
	 viewBox="0 0 300 480" style="enable-background:new 0 0 300 480;" xml:space="preserve">
<style type="text/css">
	.st0{display:none;}
	.st1{display:inline;fill:#993333;}
	.st2{display:inline;}
	.st3{fill:none;stroke:#000000;stroke-width:5;stroke-miterlimit:10;}
	.st4{fill:none;stroke:#000000;stroke-width:4;stroke-miterlimit:10;}
	.st5{fill:#FFFFFF;}
</style>
<g id="Layer_3" class="st0">
	<rect x="-17" y="-7" class="st1" width="350" height="503"/>
	<g class="st2">
		<g>
			<circle cx="466" cy="330" r="25"/>
		</g>
		<rect x="414" y="305" width="52" height="50"/>
		<g>
			<circle cx="414" cy="330" r="25"/>
		</g>
		<rect x="419.74" y="315.21" style="fill:none;" width="42.52" height="34.58"/>
		<text transform="matrix(1 0 0 1 429.4409 343.4276)" class="st5" style="font-family:'Futura-Bold'; font-size:34px;">1</text>
	</g>
</g>
<g id="Layer_1">
	<rect x="68.86" y="137.32" class="st3" width="162.28" height="285.01"/>
	<g>
		<line class="st3" x1="68.54" y1="207.58" x2="231.46" y2="207.58"/>
		<line class="st3" x1="69.99" y1="279.82" x2="230.01" y2="279.82"/>
		<line class="st3" x1="69.99" y1="352.06" x2="230.01" y2="352.06"/>
	</g>
	<g>
		<line class="st4" x1="121.45" y1="138" x2="121.45" y2="424"/>
		<line class="st4" x1="178.55" y1="138" x2="178.55" y2="424"/>
	</g>
</g>
<g id="Text">
	<g>
		<path d="M60.74,65.1H76.4c2.77,0,5.37,0.56,7.8,1.67c2.43,1.12,4.55,2.6,6.37,4.46c1.82,1.85,3.25,4.01,4.29,6.48
			c1.04,2.47,1.57,5.05,1.57,7.75c0,2.66-0.51,5.23-1.54,7.69c-1.03,2.47-2.45,4.64-4.27,6.51c-1.82,1.87-3.94,3.37-6.37,4.48
			c-2.43,1.12-5.05,1.67-7.86,1.67H60.74V65.1z M71.32,96.86h2.43c1.84,0,3.47-0.29,4.91-0.86c1.44-0.58,2.65-1.37,3.64-2.38
			c0.99-1.01,1.75-2.2,2.27-3.59c0.52-1.39,0.78-2.91,0.78-4.56c0-1.62-0.27-3.13-0.81-4.54s-1.31-2.61-2.29-3.62
			c-0.99-1.01-2.21-1.8-3.65-2.38c-1.44-0.58-3.06-0.86-4.86-0.86h-2.43V96.86z"/>
		<path d="M133.21,87.62v7.02h-6.48l-1.46,11.18h-8.05l1.46-11.18h-5.24l-1.46,11.18h-7.99l1.51-11.18h-5.62v-7.02h6.48l0.65-5.18
			h-5.51v-6.97h6.43l1.35-10.37h7.94l-1.35,10.37h5.24l1.4-10.37h7.99l-1.35,10.37h5.51v6.97h-6.37l-0.7,5.18H133.21z M120.25,82.44
			h-5.24l-0.7,5.18h5.24L120.25,82.44z"/>
		<path d="M160.37,61h9.83v44.82h-9.83v-3.08c-2.09,2.63-4.91,3.94-8.48,3.94c-2.02,0-3.87-0.38-5.56-1.13
			c-1.69-0.76-3.17-1.8-4.43-3.13c-1.26-1.33-2.24-2.9-2.94-4.7c-0.7-1.8-1.05-3.74-1.05-5.83c0-1.98,0.33-3.86,1-5.64
			c0.67-1.78,1.61-3.34,2.83-4.67c1.22-1.33,2.69-2.38,4.4-3.16c1.71-0.77,3.59-1.16,5.64-1.16c3.46,0,6.32,1.21,8.59,3.62V61z
			 M148.06,91.89c0,0.9,0.16,1.74,0.49,2.51c0.32,0.77,0.76,1.45,1.32,2.02c0.56,0.58,1.22,1.03,2,1.35
			c0.77,0.32,1.61,0.49,2.51,0.49c0.86,0,1.68-0.16,2.46-0.49c0.77-0.32,1.44-0.77,2-1.35c0.56-0.58,1.01-1.24,1.35-2
			c0.34-0.76,0.51-1.57,0.51-2.43c0-0.86-0.17-1.68-0.51-2.46c-0.34-0.77-0.79-1.45-1.35-2.03c-0.56-0.58-1.22-1.03-2-1.35
			c-0.77-0.32-1.59-0.49-2.46-0.49c-0.86,0-1.68,0.16-2.46,0.49c-0.77,0.32-1.44,0.77-2,1.35c-0.56,0.58-1.01,1.23-1.35,1.97
			C148.23,90.22,148.06,91.02,148.06,91.89z"/>
		<path d="M176.19,67.48c0-0.76,0.14-1.47,0.43-2.13c0.29-0.67,0.68-1.25,1.19-1.75c0.5-0.5,1.09-0.9,1.75-1.19
			c0.67-0.29,1.38-0.43,2.13-0.43s1.47,0.14,2.13,0.43c0.67,0.29,1.25,0.68,1.75,1.19c0.5,0.5,0.9,1.09,1.19,1.75
			c0.29,0.67,0.43,1.38,0.43,2.13c0,0.76-0.14,1.47-0.43,2.13c-0.29,0.67-0.68,1.25-1.19,1.75c-0.5,0.5-1.09,0.9-1.75,1.19
			c-0.67,0.29-1.38,0.43-2.13,0.43s-1.47-0.14-2.13-0.43c-0.67-0.29-1.25-0.68-1.75-1.19c-0.5-0.5-0.9-1.09-1.19-1.75
			C176.33,68.95,176.19,68.24,176.19,67.48z M186.61,78.12v27.7h-9.77v-27.7H186.61z"/>
		<path d="M193.31,78.12h9.77v3.4c2.66-2.56,5.65-3.83,8.96-3.83c4.1,0,7.24,1.73,9.4,5.18c2.2-3.49,5.33-5.24,9.4-5.24
			c1.3,0,2.52,0.19,3.67,0.57s2.14,0.97,2.97,1.78s1.49,1.86,1.97,3.16c0.49,1.3,0.73,2.86,0.73,4.7v17.98h-9.77V92.16
			c0-1.4-0.1-2.56-0.3-3.46c-0.2-0.9-0.49-1.6-0.86-2.11c-0.38-0.5-0.82-0.85-1.32-1.03c-0.5-0.18-1.04-0.27-1.62-0.27
			c-3.13,0-4.7,2.29-4.7,6.86v13.66h-9.77V92.16c0-1.4-0.09-2.56-0.27-3.48s-0.44-1.65-0.78-2.19c-0.34-0.54-0.78-0.91-1.32-1.11
			c-0.54-0.2-1.17-0.3-1.89-0.3c-0.61,0-1.19,0.09-1.73,0.27c-0.54,0.18-1.02,0.53-1.43,1.05c-0.42,0.52-0.74,1.24-0.97,2.16
			s-0.35,2.12-0.35,3.59v13.66h-9.77V78.12z"/>
	</g>
	<g>
		<g>
			<circle cx="121" cy="317" r="25"/>
		</g>
		<g>
			<path class="st5" d="M119.61,314.79c0.18,0.02,0.33,0.03,0.46,0.03c0.12,0,0.23,0,0.32,0c0.84,0,1.52-0.25,2.04-0.75
				c0.52-0.5,0.78-1.14,0.78-1.94c0-0.77-0.24-1.39-0.73-1.87c-0.49-0.48-1.12-0.71-1.89-0.71c-0.82,0-1.47,0.27-1.97,0.82
				c-0.5,0.54-0.75,1.25-0.75,2.11h-6.15c0.16-1.34,0.49-2.53,1-3.57c0.51-1.04,1.16-1.92,1.96-2.63c0.79-0.71,1.72-1.26,2.79-1.63
				c1.06-0.37,2.24-0.56,3.54-0.56c1.27,0,2.42,0.18,3.45,0.53s1.92,0.85,2.65,1.5c0.74,0.65,1.3,1.43,1.7,2.35
				c0.4,0.92,0.59,1.94,0.59,3.08c0,1.22-0.23,2.23-0.7,3.01c-0.46,0.78-1.13,1.46-1.99,2.02c1.31,0.41,2.34,1.14,3.08,2.19
				c0.74,1.05,1.11,2.35,1.11,3.89c0,1.27-0.25,2.43-0.75,3.47c-0.5,1.04-1.2,1.94-2.09,2.69c-0.9,0.75-1.96,1.33-3.2,1.73
				c-1.24,0.41-2.59,0.61-4.06,0.61c-1.97,0-3.75-0.39-5.34-1.16c-1.59-0.77-2.86-1.99-3.81-3.67c-0.43-0.75-0.72-1.5-0.87-2.24
				s-0.22-1.51-0.22-2.28h6.6c0.04,1.2,0.4,2.11,1.05,2.74c0.66,0.62,1.54,0.94,2.65,0.94c1.18,0,2.04-0.32,2.58-0.95
				s0.82-1.42,0.82-2.35c0-1.11-0.33-1.95-0.99-2.52c-0.66-0.57-1.44-0.85-2.35-0.85c-0.23,0-0.44,0.02-0.65,0.05
				s-0.43,0.07-0.68,0.12V314.79z"/>
		</g>
	</g>
	<g>
		<g>
			<circle cx="179" cy="244" r="25"/>
		</g>
		<g>
			<path class="st5" d="M189.03,257.43h-20.64l6.36-6.6c1.68-1.75,2.99-3.22,3.94-4.44c0.95-1.21,1.66-2.24,2.12-3.08
				c0.46-0.84,0.75-1.52,0.87-2.04c0.11-0.52,0.17-0.96,0.17-1.33c0-0.39-0.06-0.76-0.19-1.12c-0.12-0.36-0.31-0.69-0.56-0.97
				c-0.25-0.28-0.55-0.51-0.9-0.68s-0.76-0.25-1.24-0.25c-0.91,0-1.62,0.29-2.12,0.88c-0.51,0.59-0.77,1.33-0.77,2.21
				c0,0.25,0.03,0.61,0.1,1.09h-7.28c0-1.5,0.24-2.86,0.73-4.08c0.49-1.22,1.17-2.28,2.06-3.16s1.93-1.56,3.14-2.04
				c1.21-0.48,2.54-0.71,4-0.71c1.43,0,2.75,0.23,3.96,0.68c1.21,0.45,2.26,1.09,3.15,1.9s1.58,1.79,2.07,2.91
				c0.5,1.12,0.75,2.34,0.75,3.66c0,1.41-0.3,2.7-0.9,3.89c-0.6,1.19-1.56,2.41-2.87,3.65l-4.25,3.98h8.3V257.43z"/>
		</g>
	</g>
	<g>
		<g>
			<circle cx="70" cy="244" r="25"/>
		</g>
		<g>
			<path class="st5" d="M67.45,237.44h-3.74v-5.64h10.4v25.64h-6.66V237.44z"/>
		</g>
	</g>
	<path d="M237.58,140H62.42c-1.89,0-3.42-1.53-3.42-3.42v-4.8c0-1.89,1.53-3.42,3.42-3.42h175.16c1.89,0,3.42,1.53,3.42,3.42v4.8
		C241,138.47,239.47,140,237.58,140z"/>
</g>
</svg>
