<?xml version="1.0" encoding="utf-8"?>
<!-- Generator: Adobe Illustrator 29.8.2, SVG Export Plug-In . SVG Version: 9.03 Build 0)  -->
<svg version="1.1" xmlns="http://www.w3.org/2000/svg" xmlns:xlink="http://www.w3.org/1999/xlink" x="0px" y="0px"
	 viewBox="0 0 300 480" style="enable-background:new 0 0 300 480;" xml:space="preserve">
<style type="text/css">
	.st0{display:none;}
	.st1{display:inline;fill:#993333;}
	.st2{fill:none;stroke:#000000;stroke-width:5;stroke-miterlimit:10;}
	.st3{fill:none;stroke:#000000;stroke-width:4;stroke-miterlimit:10;}
	.st4{fill:#FFFFFF;}
</style>
<g id="Layer_3" class="st0">
	<rect x="-17" y="-7" class="st1" width="350" height="503"/>
</g>
<g id="Layer_1">
	<rect x="68.86" y="137.32" class="st2" width="162.28" height="285.01"/>
	<g>
		<line class="st2" x1="68.54" y1="207.58" x2="231.46" y2="207.58"/>
		<line class="st2" x1="69.99" y1="279.82" x2="230.01" y2="279.82"/>
		<line class="st2" x1="69.99" y1="352.06" x2="230.01" y2="352.06"/>
	</g>
	<g>
		<line class="st3" x1="121.45" y1="138" x2="121.45" y2="424"/>
		<line class="st3" x1="178.55" y1="138" x2="178.55" y2="424"/>
	</g>
</g>
<g id="Text">
	<g>
		<path d="M69.14,65.1H84.8c2.77,0,5.37,0.56,7.8,1.67c2.43,1.12,4.55,2.6,6.37,4.46c1.82,1.85,3.25,4.01,4.29,6.48
			c1.04,2.47,1.57,5.05,1.57,7.75c0,2.66-0.51,5.23-1.54,7.69c-1.03,2.47-2.45,4.64-4.27,6.51c-1.82,1.87-3.94,3.37-6.37,4.48
			c-2.43,1.12-5.05,1.67-7.86,1.67H69.14V65.1z M79.72,96.86h2.43c1.84,0,3.47-0.29,4.91-0.86c1.44-0.58,2.65-1.37,3.64-2.38
			c0.99-1.01,1.75-2.2,2.27-3.59c0.52-1.39,0.78-2.91,0.78-4.56c0-1.62-0.27-3.13-0.81-4.54s-1.31-2.61-2.29-3.62
			c-0.99-1.01-2.21-1.8-3.65-2.38c-1.44-0.58-3.06-0.86-4.86-0.86h-2.43V96.86z"/>
		<path d="M129.02,85.25c-1.8-0.94-3.56-1.4-5.29-1.4c-0.9,0-1.63,0.18-2.19,0.54c-0.56,0.36-0.84,0.85-0.84,1.46
			c0,0.32,0.04,0.59,0.14,0.78c0.09,0.2,0.29,0.39,0.59,0.57c0.31,0.18,0.76,0.34,1.35,0.49c0.59,0.14,1.38,0.32,2.35,0.54
			c2.7,0.54,4.72,1.5,6.05,2.89c1.33,1.39,2,3.16,2,5.32c0,1.62-0.32,3.08-0.97,4.37c-0.65,1.3-1.55,2.39-2.7,3.27
			c-1.15,0.88-2.54,1.57-4.16,2.05c-1.62,0.49-3.4,0.73-5.35,0.73c-3.75,0-7.43-1.06-11.07-3.19l3.56-6.91
			c2.74,1.87,5.33,2.81,7.78,2.81c0.9,0,1.64-0.2,2.21-0.59c0.58-0.4,0.86-0.9,0.86-1.51c0-0.36-0.05-0.66-0.13-0.89
			c-0.09-0.23-0.28-0.45-0.57-0.65c-0.29-0.2-0.71-0.38-1.27-0.54c-0.56-0.16-1.29-0.33-2.19-0.51c-3.02-0.61-5.14-1.52-6.34-2.73
			c-1.21-1.21-1.81-2.87-1.81-5c0-1.55,0.29-2.94,0.86-4.19c0.58-1.24,1.4-2.29,2.48-3.16c1.08-0.86,2.38-1.53,3.92-2
			c1.53-0.47,3.23-0.7,5.1-0.7c3.06,0,6.03,0.59,8.91,1.78L129.02,85.25z"/>
		<path d="M147.92,78.12v15.61c0,3.42,1.66,5.13,4.97,5.13c3.31,0,4.97-1.71,4.97-5.13V78.12h9.77v17.5c0,3.74-1.23,6.55-3.7,8.42
			c-2.47,1.87-6.15,2.81-11.04,2.81c-4.9,0-8.58-0.94-11.04-2.81c-2.47-1.87-3.7-4.68-3.7-8.42v-17.5H147.92z"/>
		<path d="M192.63,85.25c-1.8-0.94-3.56-1.4-5.29-1.4c-0.9,0-1.63,0.18-2.19,0.54c-0.56,0.36-0.84,0.85-0.84,1.46
			c0,0.32,0.04,0.59,0.14,0.78c0.09,0.2,0.29,0.39,0.59,0.57c0.31,0.18,0.76,0.34,1.35,0.49c0.59,0.14,1.38,0.32,2.35,0.54
			c2.7,0.54,4.72,1.5,6.05,2.89c1.33,1.39,2,3.16,2,5.32c0,1.62-0.32,3.08-0.97,4.37c-0.65,1.3-1.55,2.39-2.7,3.27
			c-1.15,0.88-2.54,1.57-4.16,2.05c-1.62,0.49-3.4,0.73-5.35,0.73c-3.75,0-7.43-1.06-11.07-3.19l3.56-6.91
			c2.74,1.87,5.33,2.81,7.78,2.81c0.9,0,1.64-0.2,2.21-0.59c0.58-0.4,0.86-0.9,0.86-1.51c0-0.36-0.05-0.66-0.13-0.89
			c-0.09-0.23-0.28-0.45-0.57-0.65c-0.29-0.2-0.71-0.38-1.27-0.54c-0.56-0.16-1.29-0.33-2.19-0.51c-3.02-0.61-5.14-1.52-6.34-2.73
			c-1.21-1.21-1.81-2.87-1.81-5c0-1.55,0.29-2.94,0.86-4.19c0.58-1.24,1.4-2.29,2.48-3.16c1.08-0.86,2.38-1.53,3.92-2
			c1.53-0.47,3.23-0.7,5.1-0.7c3.06,0,6.03,0.59,8.91,1.78L192.63,85.25z"/>
		<path d="M228.65,89.35h4.91v8.1h-4.91v8.37h-9.83v-8.37h-19.66v-6.8l15.55-25.54h13.93V89.35z M218.82,89.35V73.31l-9.34,16.04
			H218.82z"/>
	</g>
	<path d="M237.58,140H62.42c-1.89,0-3.42-1.53-3.42-3.42v-4.8c0-1.89,1.53-3.42,3.42-3.42h175.16c1.89,0,3.42,1.53,3.42,3.42v4.8
		C241,138.47,239.47,140,237.58,140z"/>
	<g>
		<g>
			<circle cx="230" cy="174" r="25"/>
		</g>
		<rect x="178" y="149" width="52" height="50"/>
		<g>
			<circle cx="178" cy="174" r="25"/>
		</g>
		<g>
			<path class="st4" d="M202.45,167.44h-3.74v-5.64h10.4v25.64h-6.66V167.44z"/>
		</g>
	</g>
	<g>
		<path d="M46.92,162.21h-8.87l-0.44,2.82c0.41-0.05,0.78-0.08,1.12-0.12c0.34-0.03,0.69-0.05,1.05-0.05c1.29,0,2.49,0.23,3.6,0.68
			c1.11,0.45,2.06,1.08,2.86,1.87c0.79,0.79,1.42,1.75,1.87,2.86c0.45,1.11,0.68,2.32,0.68,3.64c0,1.38-0.26,2.63-0.77,3.74
			c-0.51,1.11-1.23,2.06-2.16,2.84c-0.93,0.78-2.06,1.38-3.4,1.8c-1.34,0.42-2.82,0.63-4.45,0.63c-1.54,0-3.01-0.19-4.4-0.56
			s-2.7-0.95-3.93-1.72l0.99-6.26c1.13,0.97,2.29,1.72,3.47,2.23c1.18,0.51,2.3,0.76,3.37,0.76c1.36,0,2.44-0.37,3.23-1.1
			c0.79-0.74,1.19-1.65,1.19-2.74c0-1.27-0.53-2.29-1.6-3.08c-1.07-0.78-2.46-1.17-4.18-1.17c-0.77,0-1.56,0.08-2.38,0.25
			c-0.82,0.17-1.62,0.44-2.41,0.8l2.14-13.77h13.43V162.21z"/>
	</g>
	<g>
		<g>
			<circle cx="122" cy="316" r="25"/>
		</g>
		<rect x="70" y="291" width="52" height="50"/>
		<g>
			<circle cx="70" cy="316" r="25"/>
		</g>
		<g>
			<path class="st4" d="M107.03,329.43H86.39l6.36-6.6c1.68-1.75,2.99-3.22,3.94-4.44c0.95-1.21,1.66-2.24,2.12-3.08
				c0.46-0.84,0.75-1.52,0.87-2.04c0.11-0.52,0.17-0.96,0.17-1.33c0-0.38-0.06-0.76-0.19-1.12c-0.12-0.36-0.31-0.68-0.56-0.97
				c-0.25-0.28-0.55-0.51-0.9-0.68s-0.76-0.25-1.24-0.25c-0.91,0-1.62,0.29-2.12,0.88c-0.51,0.59-0.77,1.33-0.77,2.21
				c0,0.25,0.03,0.61,0.1,1.09H86.9c0-1.5,0.24-2.86,0.73-4.08c0.49-1.22,1.17-2.28,2.06-3.16s1.93-1.56,3.14-2.04
				c1.21-0.48,2.54-0.71,4-0.71c1.43,0,2.75,0.23,3.96,0.68c1.21,0.45,2.26,1.09,3.15,1.9c0.88,0.82,1.58,1.79,2.07,2.91
				c0.5,1.12,0.75,2.34,0.75,3.66c0,1.41-0.3,2.7-0.9,3.89c-0.6,1.19-1.56,2.41-2.87,3.65l-4.25,3.98h8.3V329.43z"/>
		</g>
	</g>
</g>
</svg>
