<?xml version="1.0" encoding="utf-8"?>
<!-- Generator: Adobe Illustrator 29.8.2, SVG Export Plug-In . SVG Version: 9.03 Build 0)  -->
<svg version="1.1" xmlns="http://www.w3.org/2000/svg" xmlns:xlink="http://www.w3.org/1999/xlink" x="0px" y="0px"
	 viewBox="0 0 300 480" style="enable-background:new 0 0 300 480;" xml:space="preserve">
<style type="text/css">
	.st0{display:none;}
	.st1{display:inline;fill:#993333;}
	.st2{fill:none;stroke:#000000;stroke-width:5;stroke-miterlimit:10;}
	.st3{fill:none;stroke:#000000;stroke-width:4;stroke-miterlimit:10;}
	.st4{fill:#FFFFFF;}
</style>
<g id="Layer_3" class="st0">
	<rect x="-17" y="-7" class="st1" width="350" height="503"/>
</g>
<g id="Layer_1">
	<rect x="68.86" y="137.32" class="st2" width="162.28" height="285.01"/>
	<g>
		<line class="st2" x1="68.54" y1="207.58" x2="231.46" y2="207.58"/>
		<line class="st2" x1="69.99" y1="279.82" x2="230.01" y2="279.82"/>
		<line class="st2" x1="69.99" y1="352.06" x2="230.01" y2="352.06"/>
	</g>
	<g>
		<line class="st3" x1="121.45" y1="138" x2="121.45" y2="424"/>
		<line class="st3" x1="178.55" y1="138" x2="178.55" y2="424"/>
	</g>
</g>
<g id="Text">
	<g>
		<g>
			<circle cx="121" cy="244" r="25"/>
		</g>
		<rect x="69" y="219" width="52" height="50"/>
		<g>
			<circle cx="69" cy="244" r="25"/>
		</g>
		<g>
			<path class="st4" d="M93.45,237.44h-3.74v-5.64h10.4v25.64h-6.66V237.44z"/>
		</g>
	</g>
	<g>
		<path d="M69.14,65.1H84.8c2.77,0,5.37,0.56,7.8,1.67c2.43,1.12,4.55,2.6,6.37,4.46c1.82,1.85,3.25,4.01,4.29,6.48
			c1.04,2.47,1.57,5.05,1.57,7.75c0,2.66-0.51,5.23-1.54,7.69c-1.03,2.47-2.45,4.64-4.27,6.51c-1.82,1.87-3.94,3.37-6.37,4.48
			c-2.43,1.12-5.05,1.67-7.86,1.67H69.14V65.1z M79.72,96.86h2.43c1.84,0,3.47-0.29,4.91-0.86c1.44-0.58,2.65-1.37,3.64-2.38
			c0.99-1.01,1.75-2.2,2.27-3.59c0.52-1.39,0.78-2.91,0.78-4.56c0-1.62-0.27-3.13-0.81-4.54s-1.31-2.61-2.29-3.62
			c-0.99-1.01-2.21-1.8-3.65-2.38c-1.44-0.58-3.06-0.86-4.86-0.86h-2.43V96.86z"/>
		<path d="M129.02,85.25c-1.8-0.94-3.56-1.4-5.29-1.4c-0.9,0-1.63,0.18-2.19,0.54c-0.56,0.36-0.84,0.85-0.84,1.46
			c0,0.32,0.04,0.59,0.14,0.78c0.09,0.2,0.29,0.39,0.59,0.57c0.31,0.18,0.76,0.34,1.35,0.49c0.59,0.14,1.38,0.32,2.35,0.54
			c2.7,0.54,4.72,1.5,6.05,2.89c1.33,1.39,2,3.16,2,5.32c0,1.62-0.32,3.08-0.97,4.37c-0.65,1.3-1.55,2.39-2.7,3.27
			c-1.15,0.88-2.54,1.57-4.16,2.05c-1.62,0.49-3.4,0.73-5.35,0.73c-3.75,0-7.43-1.06-11.07-3.19l3.56-6.91
			c2.74,1.87,5.33,2.81,7.78,2.81c0.9,0,1.64-0.2,2.21-0.59c0.58-0.4,0.86-0.9,0.86-1.51c0-0.36-0.05-0.66-0.13-0.89
			c-0.09-0.23-0.28-0.45-0.57-0.65c-0.29-0.2-0.71-0.38-1.27-0.54c-0.56-0.16-1.29-0.33-2.19-0.51c-3.02-0.61-5.14-1.52-6.34-2.73
			c-1.21-1.21-1.81-2.87-1.81-5c0-1.55,0.29-2.94,0.86-4.19c0.58-1.24,1.4-2.29,2.48-3.16c1.08-0.86,2.38-1.53,3.92-2
			c1.53-0.47,3.23-0.7,5.1-0.7c3.06,0,6.03,0.59,8.91,1.78L129.02,85.25z"/>
		<path d="M147.92,78.12v15.61c0,3.42,1.66,5.13,4.97,5.13c3.31,0,4.97-1.71,4.97-5.13V78.12h9.77v17.5c0,3.74-1.23,6.55-3.7,8.42
			c-2.47,1.87-6.15,2.81-11.04,2.81c-4.9,0-8.58-0.94-11.04-2.81c-2.47-1.87-3.7-4.68-3.7-8.42v-17.5H147.92z"/>
		<path d="M192.63,85.25c-1.8-0.94-3.56-1.4-5.29-1.4c-0.9,0-1.63,0.18-2.19,0.54c-0.56,0.36-0.84,0.85-0.84,1.46
			c0,0.32,0.04,0.59,0.14,0.78c0.09,0.2,0.29,0.39,0.59,0.57c0.31,0.18,0.76,0.34,1.35,0.49c0.59,0.14,1.38,0.32,2.35,0.54
			c2.7,0.54,4.72,1.5,6.05,2.89c1.33,1.39,2,3.16,2,5.32c0,1.62-0.32,3.08-0.97,4.37c-0.65,1.3-1.55,2.39-2.7,3.27
			c-1.15,0.88-2.54,1.57-4.16,2.05c-1.62,0.49-3.4,0.73-5.35,0.73c-3.75,0-7.43-1.06-11.07-3.19l3.56-6.91
			c2.74,1.87,5.33,2.81,7.78,2.81c0.9,0,1.64-0.2,2.21-0.59c0.58-0.4,0.86-0.9,0.86-1.51c0-0.36-0.05-0.66-0.13-0.89
			c-0.09-0.23-0.28-0.45-0.57-0.65c-0.29-0.2-0.71-0.38-1.27-0.54c-0.56-0.16-1.29-0.33-2.19-0.51c-3.02-0.61-5.14-1.52-6.34-2.73
			c-1.21-1.21-1.81-2.87-1.81-5c0-1.55,0.29-2.94,0.86-4.19c0.58-1.24,1.4-2.29,2.48-3.16c1.08-0.86,2.38-1.53,3.92-2
			c1.53-0.47,3.23-0.7,5.1-0.7c3.06,0,6.03,0.59,8.91,1.78L192.63,85.25z"/>
		<path d="M228.65,89.35h4.91v8.1h-4.91v8.37h-9.83v-8.37h-19.66v-6.8l15.55-25.54h13.93V89.35z M218.82,89.35V73.31l-9.34,16.04
			H218.82z"/>
	</g>
	<path d="M237.58,140H62.42c-1.89,0-3.42-1.53-3.42-3.42v-4.8c0-1.89,1.53-3.42,3.42-3.42h175.16c1.89,0,3.42,1.53,3.42,3.42v4.8
		C241,138.47,239.47,140,237.58,140z"/>
	<g>
		<g>
			<circle cx="179" cy="317" r="25"/>
		</g>
		<g>
			<path class="st4" d="M177.61,314.79c0.18,0.02,0.33,0.03,0.46,0.03c0.12,0,0.23,0,0.32,0c0.84,0,1.52-0.25,2.04-0.75
				c0.52-0.5,0.78-1.14,0.78-1.94c0-0.77-0.24-1.39-0.73-1.87c-0.49-0.48-1.12-0.71-1.89-0.71c-0.82,0-1.47,0.27-1.97,0.82
				c-0.5,0.54-0.75,1.25-0.75,2.11h-6.15c0.16-1.34,0.49-2.53,1-3.57c0.51-1.04,1.16-1.92,1.96-2.63c0.79-0.71,1.72-1.26,2.79-1.63
				c1.06-0.37,2.24-0.56,3.54-0.56c1.27,0,2.42,0.18,3.45,0.53s1.92,0.85,2.65,1.5c0.74,0.65,1.3,1.43,1.7,2.35
				c0.4,0.92,0.59,1.94,0.59,3.08c0,1.22-0.23,2.23-0.7,3.01c-0.46,0.78-1.13,1.46-1.99,2.02c1.31,0.41,2.34,1.14,3.08,2.19
				c0.74,1.05,1.11,2.35,1.11,3.89c0,1.27-0.25,2.43-0.75,3.47c-0.5,1.04-1.2,1.94-2.09,2.69c-0.9,0.75-1.96,1.33-3.2,1.73
				c-1.24,0.41-2.59,0.61-4.06,0.61c-1.97,0-3.75-0.39-5.34-1.16c-1.59-0.77-2.86-1.99-3.81-3.67c-0.43-0.75-0.72-1.5-0.87-2.24
				s-0.22-1.51-0.22-2.28h6.6c0.04,1.2,0.4,2.11,1.05,2.74c0.66,0.62,1.54,0.94,2.65,0.94c1.18,0,2.04-0.32,2.58-0.95
				s0.82-1.42,0.82-2.35c0-1.11-0.33-1.95-0.99-2.52c-0.66-0.57-1.44-0.85-2.35-0.85c-0.23,0-0.44,0.02-0.65,0.05
				s-0.43,0.07-0.68,0.12V314.79z"/>
		</g>
	</g>
</g>
</svg>
