<?xml version="1.0" encoding="utf-8"?>
<!-- Generator: Adobe Illustrator 29.8.2, SVG Export Plug-In . SVG Version: 9.03 Build 0)  -->
<svg version="1.1" xmlns="http://www.w3.org/2000/svg" xmlns:xlink="http://www.w3.org/1999/xlink" x="0px" y="0px"
	 viewBox="0 0 300 480" style="enable-background:new 0 0 300 480;" xml:space="preserve">
<style type="text/css">
	.st0{display:none;}
	.st1{display:inline;fill:#993333;}
	.st2{fill:none;stroke:#000000;stroke-width:5;stroke-miterlimit:10;}
	.st3{fill:none;stroke:#000000;stroke-width:4;stroke-miterlimit:10;}
	.st4{fill:#FFFFFF;}
</style>
<g id="Layer_3" class="st0">
	<rect x="-17" y="-7" class="st1" width="350" height="503"/>
</g>
<g id="Layer_1">
	<rect x="68.86" y="137.32" class="st2" width="162.28" height="285.01"/>
	<g>
		<line class="st2" x1="68.54" y1="207.58" x2="231.46" y2="207.58"/>
		<line class="st2" x1="69.99" y1="279.82" x2="230.01" y2="279.82"/>
		<line class="st2" x1="69.99" y1="352.06" x2="230.01" y2="352.06"/>
	</g>
	<g>
		<line class="st3" x1="121.45" y1="138" x2="121.45" y2="424"/>
		<line class="st3" x1="178.55" y1="138" x2="178.55" y2="424"/>
	</g>
</g>
<g id="Text">
	<g>
		<path d="M79.77,74.07H67.19v6.8h11.88v8.96H67.19v7.02h12.58v8.96H56.61V65.1h23.17V74.07z"/>
		<path d="M104.45,74.07H87.44V65.1h33.43l-23.33,40.72H85.88L104.45,74.07z"/>
		<path d="M141.55,85.25c-1.8-0.94-3.56-1.4-5.29-1.4c-0.9,0-1.63,0.18-2.19,0.54c-0.56,0.36-0.84,0.85-0.84,1.46
			c0,0.32,0.04,0.59,0.14,0.78c0.09,0.2,0.29,0.39,0.59,0.57c0.31,0.18,0.76,0.34,1.35,0.49c0.59,0.14,1.38,0.32,2.35,0.54
			c2.7,0.54,4.72,1.5,6.05,2.89c1.33,1.39,2,3.16,2,5.32c0,1.62-0.32,3.08-0.97,4.37c-0.65,1.3-1.55,2.39-2.7,3.27
			c-1.15,0.88-2.54,1.57-4.16,2.05c-1.62,0.49-3.4,0.73-5.35,0.73c-3.75,0-7.43-1.06-11.07-3.19l3.56-6.91
			c2.74,1.87,5.33,2.81,7.78,2.81c0.9,0,1.64-0.2,2.21-0.59c0.58-0.4,0.86-0.9,0.86-1.51c0-0.36-0.05-0.66-0.13-0.89
			c-0.09-0.23-0.28-0.45-0.57-0.65c-0.29-0.2-0.71-0.38-1.27-0.54c-0.56-0.16-1.29-0.33-2.19-0.51c-3.02-0.61-5.14-1.52-6.34-2.73
			c-1.21-1.21-1.81-2.87-1.81-5c0-1.55,0.29-2.94,0.86-4.19c0.58-1.24,1.4-2.29,2.48-3.16c1.08-0.86,2.38-1.53,3.92-2
			c1.53-0.47,3.23-0.7,5.1-0.7c3.06,0,6.03,0.59,8.91,1.78L141.55,85.25z"/>
		<path d="M160.45,78.12v15.61c0,3.42,1.66,5.13,4.97,5.13c3.31,0,4.97-1.71,4.97-5.13V78.12h9.77v17.5c0,3.74-1.23,6.55-3.7,8.42
			c-2.47,1.87-6.15,2.81-11.04,2.81c-4.9,0-8.58-0.94-11.04-2.81c-2.47-1.87-3.7-4.68-3.7-8.42v-17.5H160.45z"/>
		<path d="M205.16,85.25c-1.8-0.94-3.56-1.4-5.29-1.4c-0.9,0-1.63,0.18-2.19,0.54c-0.56,0.36-0.84,0.85-0.84,1.46
			c0,0.32,0.04,0.59,0.14,0.78c0.09,0.2,0.29,0.39,0.59,0.57c0.31,0.18,0.76,0.34,1.35,0.49c0.59,0.14,1.38,0.32,2.35,0.54
			c2.7,0.54,4.72,1.5,6.05,2.89c1.33,1.39,2,3.16,2,5.32c0,1.62-0.32,3.08-0.97,4.37c-0.65,1.3-1.55,2.39-2.7,3.27
			c-1.15,0.88-2.54,1.57-4.16,2.05c-1.62,0.49-3.4,0.73-5.35,0.73c-3.75,0-7.43-1.06-11.07-3.19l3.56-6.91
			c2.74,1.87,5.33,2.81,7.78,2.81c0.9,0,1.64-0.2,2.21-0.59c0.58-0.4,0.86-0.9,0.86-1.51c0-0.36-0.05-0.66-0.13-0.89
			c-0.09-0.23-0.28-0.45-0.57-0.65c-0.29-0.2-0.71-0.38-1.27-0.54c-0.56-0.16-1.29-0.33-2.19-0.51c-3.02-0.61-5.14-1.52-6.34-2.73
			c-1.21-1.21-1.81-2.87-1.81-5c0-1.55,0.29-2.94,0.86-4.19c0.58-1.24,1.4-2.29,2.48-3.16c1.08-0.86,2.38-1.53,3.92-2
			c1.53-0.47,3.23-0.7,5.1-0.7c3.06,0,6.03,0.59,8.91,1.78L205.16,85.25z"/>
		<path d="M241.18,89.35h4.91v8.1h-4.91v8.37h-9.83v-8.37h-19.66v-6.8l15.55-25.54h13.93V89.35z M231.35,89.35V73.31l-9.34,16.04
			H231.35z"/>
	</g>
	<path d="M237.58,140H62.42c-1.89,0-3.42-1.53-3.42-3.42v-4.8c0-1.89,1.53-3.42,3.42-3.42h175.16c1.89,0,3.42,1.53,3.42,3.42v4.8
		C241,138.47,239.47,140,237.58,140z"/>
	<g>
		<circle cx="70" cy="173" r="25"/>
	</g>
	<g>
		<g>
			<circle cx="231" cy="387" r="25"/>
		</g>
		<g>
			<path class="st4" d="M238.48,390.06h3.09v5.1h-3.09v5.27h-6.19v-5.27h-12.38v-4.28l9.79-16.08h8.77V390.06z M232.29,390.06v-10.1
				l-5.88,10.1H232.29z"/>
		</g>
	</g>
	<g>
		<circle cx="230" cy="173" r="25"/>
	</g>
	<rect x="69.12" y="148" width="162.5" height="50"/>
	<g>
		<path class="st4" d="M147.82,166.4h-3.74v-5.64h10.4v25.64h-6.66V166.4z"/>
	</g>
	<g>
		<path d="M36.61,174.65h4.91v8.1h-4.91v8.37h-9.83v-8.37H7.13v-6.8l15.55-25.54h13.93V174.65z M26.78,174.65v-16.04l-9.34,16.04
			H26.78z"/>
	</g>
	<g>
		<g>
			<circle cx="178.6" cy="245" r="25"/>
		</g>
		<g>
			<path class="st4" d="M188.63,258.43h-20.64l6.36-6.6c1.68-1.75,2.99-3.22,3.94-4.44c0.95-1.21,1.66-2.24,2.12-3.08
				c0.46-0.84,0.75-1.52,0.87-2.04c0.11-0.52,0.17-0.96,0.17-1.33c0-0.39-0.06-0.76-0.19-1.12c-0.12-0.36-0.31-0.69-0.56-0.97
				c-0.25-0.28-0.55-0.51-0.9-0.68s-0.76-0.25-1.24-0.25c-0.91,0-1.62,0.29-2.12,0.88c-0.51,0.59-0.77,1.33-0.77,2.21
				c0,0.25,0.03,0.61,0.1,1.09h-7.28c0-1.5,0.24-2.86,0.73-4.08c0.49-1.22,1.17-2.28,2.06-3.16s1.93-1.56,3.14-2.04
				c1.21-0.48,2.54-0.71,4-0.71c1.43,0,2.75,0.23,3.96,0.68c1.21,0.45,2.26,1.09,3.15,1.9s1.58,1.79,2.07,2.91
				c0.5,1.12,0.75,2.34,0.75,3.66c0,1.41-0.3,2.7-0.9,3.89c-0.6,1.19-1.56,2.41-2.87,3.65l-4.25,3.98h8.3V258.43z"/>
		</g>
	</g>
</g>
</svg>
