<?xml version="1.0" encoding="utf-8"?>
<!-- Generator: Adobe Illustrator 29.8.2, SVG Export Plug-In . SVG Version: 9.03 Build 0)  -->
<svg version="1.1" xmlns="http://www.w3.org/2000/svg" xmlns:xlink="http://www.w3.org/1999/xlink" x="0px" y="0px"
	 viewBox="0 0 300 480" style="enable-background:new 0 0 300 480;" xml:space="preserve">
<style type="text/css">
	.st0{display:none;}
	.st1{display:inline;fill:#993333;}
	.st2{fill:none;stroke:#000000;stroke-width:5;stroke-miterlimit:10;}
	.st3{fill:none;stroke:#000000;stroke-width:4;stroke-miterlimit:10;}
	.st4{fill:#FFFFFF;}
</style>
<g id="Layer_3" class="st0">
	<rect x="-17" y="-7" class="st1" width="350" height="503"/>
</g>
<g id="Layer_1">
	<rect x="68.86" y="137.32" class="st2" width="162.28" height="285.01"/>
	<g>
		<line class="st2" x1="68.54" y1="207.58" x2="231.46" y2="207.58"/>
		<line class="st2" x1="69.99" y1="279.82" x2="230.01" y2="279.82"/>
		<line class="st2" x1="69.99" y1="352.06" x2="230.01" y2="352.06"/>
	</g>
	<g>
		<line class="st3" x1="121.45" y1="138" x2="121.45" y2="424"/>
		<line class="st3" x1="178.55" y1="138" x2="178.55" y2="424"/>
	</g>
</g>
<g id="Text">
	<g>
		<path d="M143.12,74.07h-12.58v6.8h11.88v8.96h-11.88v7.02h12.58v8.96h-23.17V65.1h23.17V74.07z"/>
		<path d="M159.58,61v19.87c2.3-2.41,5.18-3.62,8.64-3.62c2.05,0,3.93,0.39,5.64,1.16c1.71,0.77,3.17,1.82,4.37,3.13
			c1.21,1.31,2.15,2.86,2.83,4.64c0.68,1.78,1.03,3.68,1.03,5.7c0,2.05-0.35,3.98-1.05,5.78c-0.7,1.8-1.68,3.37-2.94,4.7
			c-1.26,1.33-2.75,2.39-4.45,3.16c-1.71,0.77-3.56,1.16-5.54,1.16c-3.6,0-6.45-1.31-8.53-3.94v3.08h-9.77V61H159.58z M171.9,92.05
			c0-0.86-0.16-1.68-0.49-2.46c-0.32-0.77-0.77-1.45-1.35-2.02c-0.58-0.58-1.24-1.03-2-1.38c-0.76-0.34-1.58-0.51-2.48-0.51
			c-0.86,0-1.67,0.16-2.43,0.49c-0.76,0.32-1.41,0.77-1.97,1.35c-0.56,0.58-1.01,1.25-1.35,2.03c-0.34,0.77-0.51,1.59-0.51,2.46
			c0,0.86,0.16,1.67,0.49,2.43s0.77,1.41,1.35,1.97c0.58,0.56,1.25,1.01,2.02,1.35c0.77,0.34,1.59,0.51,2.46,0.51
			s1.67-0.16,2.43-0.49c0.76-0.32,1.41-0.77,1.97-1.35c0.56-0.58,1.01-1.24,1.35-2C171.73,93.67,171.9,92.88,171.9,92.05z"/>
	</g>
	<g>
		<circle cx="70" cy="173" r="25"/>
	</g>
	<g>
		<g>
			<circle cx="231" cy="387" r="25"/>
		</g>
		<g>
			<path class="st4" d="M238.48,390.06h3.09v5.1h-3.09v5.27h-6.19v-5.27h-12.38v-4.28l9.79-16.08h8.77V390.06z M232.29,390.06v-10.1
				l-5.88,10.1H232.29z"/>
		</g>
	</g>
	<g>
		<circle cx="230" cy="173" r="25"/>
	</g>
	<rect x="69.12" y="148" width="162.5" height="50"/>
	<g>
		<path class="st4" d="M147.82,166.4h-3.74v-5.64h10.4v25.64h-6.66V166.4z"/>
	</g>
	<g>
		<path d="M22.52,166.28c0.29,0.04,0.53,0.05,0.73,0.05c0.2,0,0.37,0,0.51,0c1.33,0,2.41-0.4,3.24-1.19
			c0.83-0.79,1.24-1.82,1.24-3.08c0-1.22-0.39-2.21-1.16-2.97c-0.77-0.76-1.77-1.13-3-1.13c-1.3,0-2.34,0.43-3.13,1.3
			c-0.79,0.86-1.19,1.98-1.19,3.35H9.99c0.25-2.12,0.78-4.01,1.59-5.67c0.81-1.66,1.84-3.05,3.1-4.19c1.26-1.13,2.74-2,4.43-2.59
			c1.69-0.59,3.56-0.89,5.62-0.89c2.02,0,3.84,0.28,5.48,0.84c1.64,0.56,3.04,1.35,4.21,2.38c1.17,1.03,2.07,2.27,2.7,3.73
			c0.63,1.46,0.95,3.09,0.95,4.89c0,1.94-0.37,3.54-1.11,4.78c-0.74,1.24-1.79,2.31-3.16,3.21c2.09,0.65,3.72,1.81,4.89,3.48
			c1.17,1.67,1.76,3.74,1.76,6.18c0,2.02-0.4,3.85-1.19,5.51c-0.79,1.66-1.9,3.08-3.32,4.27c-1.42,1.19-3.11,2.11-5.08,2.75
			c-1.96,0.65-4.11,0.97-6.45,0.97c-3.13,0-5.96-0.61-8.48-1.84c-2.52-1.22-4.54-3.17-6.05-5.83c-0.68-1.19-1.14-2.38-1.38-3.56
			c-0.23-1.19-0.35-2.39-0.35-3.62h10.48c0.07,1.91,0.63,3.36,1.67,4.35c1.04,0.99,2.45,1.49,4.21,1.49c1.87,0,3.24-0.5,4.1-1.51
			c0.86-1.01,1.3-2.25,1.3-3.73c0-1.76-0.52-3.1-1.57-4c-1.04-0.9-2.29-1.35-3.73-1.35c-0.36,0-0.7,0.03-1.03,0.08
			c-0.32,0.05-0.68,0.12-1.08,0.19V166.28z"/>
	</g>
</g>
</svg>
