<?xml version="1.0" encoding="utf-8"?>
<!-- Generator: Adobe Illustrator 29.8.2, SVG Export Plug-In . SVG Version: 9.03 Build 0)  -->
<svg version="1.1" xmlns="http://www.w3.org/2000/svg" xmlns:xlink="http://www.w3.org/1999/xlink" x="0px" y="0px"
	 viewBox="0 0 300 480" style="enable-background:new 0 0 300 480;" xml:space="preserve">
<style type="text/css">
	.st0{display:none;}
	.st1{display:inline;fill:#993333;}
	.st2{fill:none;stroke:#000000;stroke-width:5;stroke-miterlimit:10;}
	.st3{fill:none;stroke:#000000;stroke-width:4;stroke-miterlimit:10;}
	.st4{fill:#FFFFFF;}
</style>
<g id="Layer_3" class="st0">
	<rect x="-17" y="-7" class="st1" width="350" height="503"/>
</g>
<g id="Layer_1">
	<rect x="68.86" y="137.32" class="st2" width="162.28" height="285.01"/>
	<g>
		<line class="st2" x1="68.54" y1="207.58" x2="231.46" y2="207.58"/>
		<line class="st2" x1="69.99" y1="279.82" x2="230.01" y2="279.82"/>
		<line class="st2" x1="69.99" y1="352.06" x2="230.01" y2="352.06"/>
	</g>
	<g>
		<line class="st3" x1="121.45" y1="138" x2="121.45" y2="424"/>
		<line class="st3" x1="178.55" y1="138" x2="178.55" y2="424"/>
	</g>
</g>
<g id="Text">
	<g>
		<g>
			<circle cx="121" cy="173" r="25"/>
		</g>
		<g>
			<path class="st4" d="M118.45,166.44h-3.74v-5.64h10.4v25.64h-6.66V166.44z"/>
		</g>
	</g>
	<g>
		<path d="M89.74,74.07H77.16v6.8h11.88v8.96H77.16v7.02h12.58v8.96H66.57V65.1h23.17V74.07z"/>
		<path d="M117.82,61h9.83v44.82h-9.83v-3.08c-2.09,2.63-4.91,3.94-8.48,3.94c-2.02,0-3.87-0.38-5.56-1.13
			c-1.69-0.76-3.17-1.8-4.43-3.13c-1.26-1.33-2.24-2.9-2.94-4.7c-0.7-1.8-1.05-3.74-1.05-5.83c0-1.98,0.33-3.86,1-5.64
			c0.67-1.78,1.61-3.34,2.83-4.67c1.22-1.33,2.69-2.38,4.4-3.16c1.71-0.77,3.59-1.16,5.64-1.16c3.46,0,6.32,1.21,8.59,3.62V61z
			 M105.5,91.89c0,0.9,0.16,1.74,0.49,2.51c0.32,0.77,0.76,1.45,1.32,2.02c0.56,0.58,1.22,1.03,2,1.35
			c0.77,0.32,1.61,0.49,2.51,0.49c0.86,0,1.68-0.16,2.46-0.49c0.77-0.32,1.44-0.77,2-1.35c0.56-0.58,1.01-1.24,1.35-2
			c0.34-0.76,0.51-1.57,0.51-2.43c0-0.86-0.17-1.68-0.51-2.46c-0.34-0.77-0.79-1.45-1.35-2.03c-0.56-0.58-1.22-1.03-2-1.35
			c-0.77-0.32-1.59-0.49-2.46-0.49c-0.86,0-1.68,0.16-2.46,0.49c-0.77,0.32-1.44,0.77-2,1.35c-0.56,0.58-1.01,1.23-1.35,1.97
			C105.68,90.22,105.5,91.02,105.5,91.89z"/>
		<path d="M133.64,67.48c0-0.76,0.14-1.47,0.43-2.13c0.29-0.67,0.68-1.25,1.19-1.75c0.5-0.5,1.09-0.9,1.75-1.19
			c0.67-0.29,1.38-0.43,2.13-0.43s1.47,0.14,2.13,0.43c0.67,0.29,1.25,0.68,1.75,1.19c0.5,0.5,0.9,1.09,1.19,1.75
			c0.29,0.67,0.43,1.38,0.43,2.13c0,0.76-0.14,1.47-0.43,2.13c-0.29,0.67-0.68,1.25-1.19,1.75c-0.5,0.5-1.09,0.9-1.75,1.19
			c-0.67,0.29-1.38,0.43-2.13,0.43s-1.47-0.14-2.13-0.43c-0.67-0.29-1.25-0.68-1.75-1.19c-0.5-0.5-0.9-1.09-1.19-1.75
			C133.78,68.95,133.64,68.24,133.64,67.48z M144.06,78.12v27.7h-9.77v-27.7H144.06z"/>
		<path d="M150.76,78.12h9.77v3.4c2.66-2.56,5.65-3.83,8.96-3.83c4.1,0,7.24,1.73,9.4,5.18c2.2-3.49,5.33-5.24,9.4-5.24
			c1.3,0,2.52,0.19,3.67,0.57s2.14,0.97,2.97,1.78s1.49,1.86,1.97,3.16c0.49,1.3,0.73,2.86,0.73,4.7v17.98h-9.77V92.16
			c0-1.4-0.1-2.56-0.3-3.46c-0.2-0.9-0.49-1.6-0.86-2.11c-0.38-0.5-0.82-0.85-1.32-1.03c-0.5-0.18-1.04-0.27-1.62-0.27
			c-3.13,0-4.7,2.29-4.7,6.86v13.66h-9.77V92.16c0-1.4-0.09-2.56-0.27-3.48s-0.44-1.65-0.78-2.19c-0.34-0.54-0.78-0.91-1.32-1.11
			c-0.54-0.2-1.17-0.3-1.89-0.3c-0.61,0-1.19,0.09-1.73,0.27c-0.54,0.18-1.02,0.53-1.43,1.05c-0.42,0.52-0.74,1.24-0.97,2.16
			s-0.35,2.12-0.35,3.59v13.66h-9.77V78.12z"/>
		<path d="M222.31,74.07H205.3V65.1h33.43l-23.33,40.72h-11.66L222.31,74.07z"/>
	</g>
	<path d="M237.58,140H62.42c-1.89,0-3.42-1.53-3.42-3.42v-4.8c0-1.89,1.53-3.42,3.42-3.42h175.16c1.89,0,3.42,1.53,3.42,3.42v4.8
		C241,138.47,239.47,140,237.58,140z"/>
	<g>
		<g>
			<circle cx="231.5" cy="173" r="25"/>
		</g>
		<g>
			<path class="st4" d="M241.53,186.43h-20.64l6.36-6.6c1.68-1.75,2.99-3.22,3.94-4.44c0.95-1.21,1.66-2.24,2.12-3.08
				c0.46-0.84,0.75-1.52,0.87-2.04c0.11-0.52,0.17-0.96,0.17-1.33c0-0.39-0.06-0.76-0.19-1.12c-0.12-0.36-0.31-0.69-0.56-0.97
				c-0.25-0.28-0.55-0.51-0.9-0.68s-0.76-0.25-1.24-0.25c-0.91,0-1.62,0.29-2.12,0.88c-0.51,0.59-0.77,1.33-0.77,2.21
				c0,0.25,0.03,0.61,0.1,1.09h-7.28c0-1.5,0.24-2.86,0.73-4.08c0.49-1.22,1.17-2.28,2.06-3.16s1.93-1.56,3.14-2.04
				c1.21-0.48,2.54-0.71,4-0.71c1.43,0,2.75,0.23,3.96,0.68c1.21,0.45,2.26,1.09,3.15,1.9s1.58,1.79,2.07,2.91
				c0.5,1.12,0.75,2.34,0.75,3.66c0,1.41-0.3,2.7-0.9,3.89c-0.6,1.19-1.56,2.41-2.87,3.65l-4.25,3.98h8.3V186.43z"/>
		</g>
	</g>
</g>
</svg>
