<?xml version="1.0" encoding="utf-8"?>
<!-- Generator: Adobe Illustrator 29.8.2, SVG Export Plug-In . SVG Version: 9.03 Build 0)  -->
<svg version="1.1" xmlns="http://www.w3.org/2000/svg" xmlns:xlink="http://www.w3.org/1999/xlink" x="0px" y="0px"
	 viewBox="0 0 300 480" style="enable-background:new 0 0 300 480;" xml:space="preserve">
<style type="text/css">
	.st0{display:none;}
	.st1{display:inline;fill:#993333;}
	.st2{fill:none;stroke:#000000;stroke-width:5;stroke-miterlimit:10;}
	.st3{fill:none;stroke:#000000;stroke-width:4;stroke-miterlimit:10;}
	.st4{fill:#FFFFFF;}
</style>
<g id="Layer_3" class="st0">
	<rect x="-17" y="-7" class="st1" width="350" height="503"/>
</g>
<g id="Layer_1">
	<rect x="68.86" y="137.32" class="st2" width="162.28" height="285.01"/>
	<g>
		<line class="st2" x1="68.54" y1="207.58" x2="231.46" y2="207.58"/>
		<line class="st2" x1="69.99" y1="279.82" x2="230.01" y2="279.82"/>
		<line class="st2" x1="69.99" y1="352.06" x2="230.01" y2="352.06"/>
	</g>
	<g>
		<line class="st3" x1="121.45" y1="138" x2="121.45" y2="424"/>
		<line class="st3" x1="178.55" y1="138" x2="178.55" y2="424"/>
	</g>
</g>
<g id="Text">
	<g>
		<path d="M135.26,74.07h-12.58v6.8h11.88v8.96h-11.88v7.02h12.58v8.96h-23.17V65.1h23.17V74.07z"/>
		<path d="M141.95,78.12h9.77v3.4c2.66-2.56,5.65-3.83,8.96-3.83c4.1,0,7.24,1.73,9.4,5.18c2.2-3.49,5.33-5.24,9.4-5.24
			c1.3,0,2.52,0.19,3.67,0.57s2.14,0.97,2.97,1.78s1.49,1.86,1.97,3.16c0.49,1.3,0.73,2.86,0.73,4.7v17.98h-9.77V92.16
			c0-1.4-0.1-2.56-0.3-3.46c-0.2-0.9-0.49-1.6-0.86-2.11c-0.38-0.5-0.82-0.85-1.32-1.03c-0.5-0.18-1.04-0.27-1.62-0.27
			c-3.13,0-4.7,2.29-4.7,6.86v13.66h-9.77V92.16c0-1.4-0.09-2.56-0.27-3.48s-0.44-1.65-0.78-2.19c-0.34-0.54-0.78-0.91-1.32-1.11
			c-0.54-0.2-1.17-0.3-1.89-0.3c-0.61,0-1.19,0.09-1.73,0.27c-0.54,0.18-1.02,0.53-1.43,1.05c-0.42,0.52-0.74,1.24-0.97,2.16
			s-0.35,2.12-0.35,3.59v13.66h-9.77V78.12z"/>
	</g>
	<g>
		<g>
			<circle cx="120" cy="172" r="25"/>
		</g>
		<g>
			<circle cx="230" cy="172" r="25"/>
		</g>
		<rect x="122" y="147.25" width="109" height="50"/>
		<g>
			<path class="st4" d="M170.45,163.15h-3.74v-5.64h10.4v25.64h-6.66V163.15z"/>
		</g>
	</g>
	<g>
		<path d="M36.51,145.82H21.39v-7.97H51.1l-20.74,36.19H20L36.51,145.82z"/>
	</g>
</g>
</svg>
