<?xml version="1.0" encoding="utf-8"?>
<!-- Generator: Adobe Illustrator 29.8.2, SVG Export Plug-In . SVG Version: 9.03 Build 0)  -->
<svg version="1.1" xmlns="http://www.w3.org/2000/svg" xmlns:xlink="http://www.w3.org/1999/xlink" x="0px" y="0px"
	 viewBox="0 0 300 480" style="enable-background:new 0 0 300 480;" xml:space="preserve">
<style type="text/css">
	.st0{display:none;}
	.st1{display:inline;fill:#993333;}
	.st2{fill:none;stroke:#000000;stroke-width:5;stroke-miterlimit:10;}
	.st3{fill:none;stroke:#000000;stroke-width:4;stroke-miterlimit:10;}
	.st4{fill:#FFFFFF;}
</style>
<g id="Layer_3" class="st0">
	<rect x="-17" y="-7" class="st1" width="350" height="503"/>
</g>
<g id="Layer_1">
	<rect x="68.86" y="137.32" class="st2" width="162.28" height="285.01"/>
	<g>
		<line class="st2" x1="68.54" y1="207.58" x2="231.46" y2="207.58"/>
		<line class="st2" x1="69.99" y1="279.82" x2="230.01" y2="279.82"/>
		<line class="st2" x1="69.99" y1="352.06" x2="230.01" y2="352.06"/>
	</g>
	<g>
		<line class="st3" x1="121.45" y1="138" x2="121.45" y2="424"/>
		<line class="st3" x1="178.55" y1="138" x2="178.55" y2="424"/>
	</g>
</g>
<g id="Text">
	<g>
		<path d="M162.77,74.07h-12.74v6.8h11.61v8.96h-11.61v15.98h-10.58V65.1h23.33V74.07z"/>
	</g>
	<g>
		<circle cx="70" cy="173" r="25"/>
	</g>
	<g>
		<g>
			<circle cx="231" cy="387" r="25"/>
		</g>
		<g>
			<path class="st4" d="M238.48,390.06h3.09v5.1h-3.09v5.27h-6.19v-5.27h-12.38v-4.28l9.79-16.08h8.77V390.06z M232.29,390.06v-10.1
				l-5.88,10.1H232.29z"/>
		</g>
	</g>
	<g>
		<circle cx="230" cy="173" r="25"/>
	</g>
	<rect x="69.12" y="148" width="162.5" height="50"/>
	<g>
		<path class="st4" d="M147.82,166.4h-3.74v-5.64h10.4v25.64h-6.66V166.4z"/>
	</g>
	<g>
		<path d="M36.61,159.37H22.52l-0.7,4.48c0.65-0.07,1.24-0.13,1.78-0.19s1.1-0.08,1.67-0.08c2.05,0,3.96,0.36,5.72,1.08
			c1.76,0.72,3.28,1.71,4.54,2.97c1.26,1.26,2.25,2.77,2.97,4.54c0.72,1.76,1.08,3.69,1.08,5.78c0,2.2-0.4,4.18-1.21,5.94
			c-0.81,1.76-1.95,3.27-3.43,4.51c-1.48,1.24-3.28,2.2-5.4,2.86c-2.12,0.67-4.48,1-7.07,1c-2.45,0-4.78-0.3-6.99-0.89
			c-2.21-0.59-4.29-1.5-6.24-2.73l1.57-9.94c1.8,1.55,3.64,2.73,5.51,3.54c1.87,0.81,3.65,1.21,5.35,1.21
			c2.16,0,3.87-0.58,5.13-1.75c1.26-1.17,1.89-2.62,1.89-4.35c0-2.02-0.85-3.65-2.54-4.89c-1.69-1.24-3.91-1.86-6.64-1.86
			c-1.22,0-2.48,0.14-3.78,0.4c-1.3,0.27-2.57,0.69-3.83,1.27l3.4-21.87h21.33V159.37z"/>
	</g>
</g>
</svg>
