<?xml version="1.0" encoding="utf-8"?>
<!-- Generator: Adobe Illustrator 29.8.2, SVG Export Plug-In . SVG Version: 9.03 Build 0)  -->
<svg version="1.1" xmlns="http://www.w3.org/2000/svg" xmlns:xlink="http://www.w3.org/1999/xlink" x="0px" y="0px"
	 viewBox="0 0 300 480" style="enable-background:new 0 0 300 480;" xml:space="preserve">
<style type="text/css">
	.st0{display:none;}
	.st1{display:inline;fill:#993333;}
	.st2{fill:none;stroke:#000000;stroke-width:5;stroke-miterlimit:10;}
	.st3{fill:none;stroke:#000000;stroke-width:4;stroke-miterlimit:10;}
	.st4{fill:#FFFFFF;}
</style>
<g id="Layer_3" class="st0">
	<rect x="-17" y="-7" class="st1" width="350" height="503"/>
</g>
<g id="Layer_1">
	<rect x="68.86" y="137.32" class="st2" width="162.28" height="285.01"/>
	<g>
		<line class="st2" x1="68.54" y1="207.58" x2="231.46" y2="207.58"/>
		<line class="st2" x1="69.99" y1="279.82" x2="230.01" y2="279.82"/>
		<line class="st2" x1="69.99" y1="352.06" x2="230.01" y2="352.06"/>
	</g>
	<g>
		<line class="st3" x1="121.45" y1="138" x2="121.45" y2="424"/>
		<line class="st3" x1="178.55" y1="138" x2="178.55" y2="424"/>
	</g>
</g>
<g id="Text">
	<g>
		<path d="M144.41,74.07h-12.74v6.8h11.61v8.96h-11.61v15.98h-10.58V65.1h23.33V74.07z"/>
		<path d="M175.57,65.1l-11.56,13.28h0.22c1.01-0.61,1.84-0.98,2.48-1.11c0.65-0.13,1.22-0.19,1.73-0.19c1.98,0,3.8,0.38,5.45,1.13
			c1.66,0.76,3.1,1.79,4.32,3.11c1.22,1.31,2.18,2.85,2.86,4.62c0.68,1.76,1.03,3.65,1.03,5.67c0,2.16-0.4,4.17-1.19,6.02
			c-0.79,1.85-1.94,3.47-3.43,4.86c-1.5,1.39-3.3,2.48-5.43,3.27c-2.12,0.79-4.52,1.19-7.18,1.19c-2.7,0-5.11-0.4-7.24-1.19
			c-2.12-0.79-3.93-1.87-5.43-3.24c-1.49-1.37-2.64-2.96-3.43-4.78c-0.79-1.82-1.19-3.75-1.19-5.8c0-2.3,0.51-4.8,1.54-7.48
			c1.03-2.68,2.6-5.32,4.73-7.91l9.45-11.45H175.57z M158.07,91.83c0,0.94,0.18,1.81,0.54,2.62c0.36,0.81,0.84,1.52,1.46,2.13
			c0.61,0.61,1.32,1.1,2.13,1.46c0.81,0.36,1.68,0.54,2.62,0.54c0.94,0,1.81-0.18,2.62-0.54c0.81-0.36,1.52-0.85,2.13-1.46
			c0.61-0.61,1.1-1.32,1.46-2.13c0.36-0.81,0.54-1.68,0.54-2.62c0-0.94-0.18-1.81-0.54-2.62c-0.36-0.81-0.85-1.52-1.46-2.13
			c-0.61-0.61-1.32-1.1-2.13-1.46c-0.81-0.36-1.68-0.54-2.62-0.54c-0.94,0-1.81,0.18-2.62,0.54c-0.81,0.36-1.52,0.85-2.13,1.46
			c-0.61,0.61-1.1,1.32-1.46,2.13C158.25,90.02,158.07,90.9,158.07,91.83z"/>
	</g>
	<path d="M237.58,140H62.42c-1.89,0-3.42-1.53-3.42-3.42v-4.8c0-1.89,1.53-3.42,3.42-3.42h175.16c1.89,0,3.42,1.53,3.42,3.42v4.8
		C241,138.47,239.47,140,237.58,140z"/>
	<g>
		<circle cx="69" cy="173" r="25"/>
	</g>
	<g>
		<circle cx="230" cy="173" r="25"/>
	</g>
	<rect x="66" y="148.25" width="165" height="50"/>
	<g>
		<path class="st4" d="M147.45,164.15h-3.74v-5.64h10.4v25.64h-6.66V164.15z"/>
	</g>
	<g>
		<path d="M36.61,159.37H22.52l-0.7,4.48c0.65-0.07,1.24-0.13,1.78-0.19s1.1-0.08,1.67-0.08c2.05,0,3.96,0.36,5.72,1.08
			c1.76,0.72,3.28,1.71,4.54,2.97c1.26,1.26,2.25,2.77,2.97,4.54c0.72,1.76,1.08,3.69,1.08,5.78c0,2.2-0.4,4.18-1.21,5.94
			c-0.81,1.76-1.95,3.27-3.43,4.51c-1.48,1.24-3.28,2.2-5.4,2.86c-2.12,0.67-4.48,1-7.07,1c-2.45,0-4.78-0.3-6.99-0.89
			c-2.21-0.59-4.29-1.5-6.24-2.73l1.57-9.94c1.8,1.55,3.64,2.73,5.51,3.54c1.87,0.81,3.65,1.21,5.35,1.21
			c2.16,0,3.87-0.58,5.13-1.75c1.26-1.17,1.89-2.62,1.89-4.35c0-2.02-0.85-3.65-2.54-4.89c-1.69-1.24-3.91-1.86-6.64-1.86
			c-1.22,0-2.48,0.14-3.78,0.4c-1.3,0.27-2.57,0.69-3.83,1.27l3.4-21.87h21.33V159.37z"/>
	</g>
</g>
</svg>
