<?xml version="1.0" encoding="utf-8"?>
<!-- Generator: Adobe Illustrator 29.8.2, SVG Export Plug-In . SVG Version: 9.03 Build 0)  -->
<svg version="1.1" xmlns="http://www.w3.org/2000/svg" xmlns:xlink="http://www.w3.org/1999/xlink" x="0px" y="0px"
	 viewBox="0 0 300 480" style="enable-background:new 0 0 300 480;" xml:space="preserve">
<style type="text/css">
	.st0{display:none;}
	.st1{display:inline;fill:#993333;}
	.st2{fill:none;stroke:#000000;stroke-width:5;stroke-miterlimit:10;}
	.st3{fill:none;stroke:#000000;stroke-width:4;stroke-miterlimit:10;}
	.st4{fill:#FFFFFF;}
</style>
<g id="Layer_3" class="st0">
	<rect x="-17" y="-7" class="st1" width="350" height="503"/>
</g>
<g id="Layer_1">
	<rect x="68.86" y="137.32" class="st2" width="162.28" height="285.01"/>
	<g>
		<line class="st2" x1="68.54" y1="207.58" x2="231.46" y2="207.58"/>
		<line class="st2" x1="69.99" y1="279.82" x2="230.01" y2="279.82"/>
		<line class="st2" x1="69.99" y1="352.06" x2="230.01" y2="352.06"/>
	</g>
	<g>
		<line class="st3" x1="121.45" y1="138" x2="121.45" y2="424"/>
		<line class="st3" x1="178.55" y1="138" x2="178.55" y2="424"/>
	</g>
</g>
<g id="Text">
	<g>
		<path d="M144.41,74.07h-12.74v6.8h11.61v8.96h-11.61v15.98h-10.58V65.1h23.33V74.07z"/>
		<path d="M167.79,74.07h-17.01V65.1h33.43l-23.33,40.72h-11.66L167.79,74.07z"/>
	</g>
	<g>
		<path d="M40.43,145.82H27.9l-0.62,3.98c0.58-0.06,1.1-0.12,1.58-0.17c0.48-0.05,0.98-0.07,1.49-0.07c1.82,0,3.52,0.32,5.09,0.96
			c1.57,0.64,2.91,1.52,4.03,2.64s2,2.46,2.64,4.03c0.64,1.57,0.96,3.28,0.96,5.14c0,1.95-0.36,3.71-1.08,5.28
			c-0.72,1.57-1.74,2.9-3.05,4.01c-1.31,1.1-2.91,1.95-4.8,2.54c-1.89,0.59-3.98,0.89-6.29,0.89c-2.18,0-4.25-0.26-6.22-0.79
			c-1.97-0.53-3.82-1.34-5.54-2.42l1.39-8.83c1.6,1.38,3.23,2.42,4.9,3.14c1.66,0.72,3.25,1.08,4.75,1.08
			c1.92,0,3.44-0.52,4.56-1.56c1.12-1.04,1.68-2.33,1.68-3.86c0-1.79-0.75-3.24-2.26-4.34c-1.5-1.1-3.47-1.66-5.9-1.66
			c-1.09,0-2.21,0.12-3.36,0.36c-1.15,0.24-2.29,0.62-3.41,1.13l3.02-19.44h18.96V145.82z"/>
	</g>
	<g>
		<circle cx="69" cy="172" r="25"/>
	</g>
	<g>
		<circle cx="232" cy="172" r="25"/>
	</g>
	<rect x="66" y="147.25" width="165" height="50"/>
	<g>
		<path class="st4" d="M149.45,164.15h-3.74v-5.64h10.4v25.64h-6.66V164.15z"/>
	</g>
	<g>
		<circle cx="232" cy="243" r="25"/>
	</g>
	<g>
		<path class="st4" d="M242.43,256.8h-20.64l6.36-6.6c1.68-1.75,2.99-3.22,3.94-4.44c0.95-1.21,1.66-2.24,2.12-3.08
			c0.46-0.84,0.75-1.52,0.87-2.04c0.11-0.52,0.17-0.96,0.17-1.33c0-0.39-0.06-0.76-0.19-1.12c-0.12-0.36-0.31-0.69-0.56-0.97
			c-0.25-0.28-0.55-0.51-0.9-0.68s-0.76-0.25-1.24-0.25c-0.91,0-1.62,0.29-2.12,0.88c-0.51,0.59-0.77,1.33-0.77,2.21
			c0,0.25,0.03,0.61,0.1,1.09h-7.28c0-1.5,0.24-2.86,0.73-4.08c0.49-1.22,1.17-2.28,2.06-3.16s1.93-1.56,3.14-2.04
			c1.21-0.48,2.54-0.71,4-0.71c1.43,0,2.75,0.23,3.96,0.68c1.21,0.45,2.26,1.09,3.15,1.9s1.58,1.79,2.07,2.91
			c0.5,1.12,0.75,2.34,0.75,3.66c0,1.41-0.3,2.7-0.9,3.89c-0.6,1.19-1.56,2.41-2.87,3.65l-4.25,3.98h8.3V256.8z"/>
	</g>
</g>
</svg>
