<?xml version="1.0" encoding="utf-8"?>
<!-- Generator: Adobe Illustrator 29.8.2, SVG Export Plug-In . SVG Version: 9.03 Build 0)  -->
<svg version="1.1" xmlns="http://www.w3.org/2000/svg" xmlns:xlink="http://www.w3.org/1999/xlink" x="0px" y="0px"
	 viewBox="0 0 300 480" style="enable-background:new 0 0 300 480;" xml:space="preserve">
<style type="text/css">
	.st0{display:none;}
	.st1{display:inline;fill:#993333;}
	.st2{fill:none;stroke:#000000;stroke-width:5.5502;stroke-miterlimit:10;}
	.st3{fill:none;stroke:#000000;stroke-width:5;stroke-miterlimit:10;}
	.st4{fill:none;stroke:#000000;stroke-width:4.425;stroke-miterlimit:10;}
	.st5{fill:#FFFFFF;}
	.st6{stroke:#FFFFFF;stroke-miterlimit:10;}
</style>
<g id="Layer_3" class="st0">
	<rect x="-17" y="-7" class="st1" width="350" height="503"/>
</g>
<g id="Layer_1">
	<rect x="68.86" y="107.32" class="st2" width="162.28" height="351.18"/>
	<line class="st3" x1="68.54" y1="177.58" x2="231.46" y2="177.58"/>
	<line class="st3" x1="69.99" y1="249.82" x2="230.01" y2="249.82"/>
	<line class="st3" x1="69.99" y1="322.06" x2="230.01" y2="322.06"/>
	<g>
		<line class="st4" x1="121.45" y1="108" x2="121.45" y2="458"/>
		<line class="st4" x1="178.55" y1="108" x2="178.55" y2="458"/>
	</g>
	<line class="st3" x1="69.99" y1="394.06" x2="230.01" y2="394.06"/>
</g>
<g id="Text">
	<g>
		<path d="M162.77,44.07h-12.74v6.8h11.61v8.96h-11.61v15.98h-10.58V35.1h23.33V44.07z"/>
	</g>
	<path d="M237.58,110H62.42c-1.89,0-3.42-1.53-3.42-3.42v-4.8c0-1.89,1.53-3.42,3.42-3.42h175.16c1.89,0,3.42,1.53,3.42,3.42v4.8
		C241,108.47,239.47,110,237.58,110z"/>
	<g>
		<g>
			<circle cx="69" cy="426" r="25"/>
		</g>
	</g>
	<g>
		<g>
			<circle cx="179" cy="426" r="25"/>
		</g>
	</g>
	<rect x="69" y="401" width="110" height="50"/>
	<g>
		<path class="st5" d="M122.61,422.16c0.18,0.02,0.33,0.03,0.46,0.03c0.12,0,0.23,0,0.32,0c0.84,0,1.52-0.25,2.04-0.75
			c0.52-0.5,0.78-1.14,0.78-1.94c0-0.77-0.24-1.39-0.73-1.87c-0.49-0.48-1.12-0.71-1.89-0.71c-0.82,0-1.47,0.27-1.97,0.82
			c-0.5,0.54-0.75,1.25-0.75,2.11h-6.15c0.16-1.34,0.49-2.53,1-3.57c0.51-1.04,1.16-1.92,1.96-2.63c0.79-0.71,1.72-1.26,2.79-1.63
			c1.06-0.37,2.24-0.56,3.54-0.56c1.27,0,2.42,0.18,3.45,0.53s1.92,0.85,2.65,1.5c0.74,0.65,1.3,1.43,1.7,2.35
			c0.4,0.92,0.59,1.94,0.59,3.08c0,1.22-0.23,2.23-0.7,3.01c-0.46,0.78-1.13,1.46-1.99,2.02c1.31,0.41,2.34,1.14,3.08,2.19
			c0.74,1.05,1.11,2.35,1.11,3.89c0,1.27-0.25,2.43-0.75,3.47c-0.5,1.04-1.2,1.94-2.09,2.69c-0.9,0.75-1.96,1.33-3.2,1.73
			c-1.24,0.41-2.59,0.61-4.06,0.61c-1.97,0-3.75-0.39-5.34-1.16c-1.59-0.77-2.86-1.99-3.81-3.67c-0.43-0.75-0.72-1.5-0.87-2.24
			s-0.22-1.51-0.22-2.28h6.6c0.04,1.2,0.4,2.11,1.05,2.74c0.66,0.62,1.54,0.94,2.65,0.94c1.18,0,2.04-0.32,2.58-0.95
			s0.82-1.42,0.82-2.35c0-1.11-0.33-1.95-0.99-2.52c-0.66-0.57-1.44-0.85-2.35-0.85c-0.23,0-0.44,0.02-0.65,0.05
			s-0.43,0.07-0.68,0.12V422.16z"/>
	</g>
	<g>
		<path class="st6" d="M483.21,419.78l-12.69-19.01h13.07l5.51,10.53l6.8-10.53h13.07l-13.45,19.01l15.17,21.71h-12.91l-8.15-13.28
			l-9.56,13.28h-12.8L483.21,419.78z"/>
	</g>
	<g>
		<g>
			<circle cx="231" cy="286" r="25"/>
		</g>
	</g>
	<g>
		<path class="st5" d="M229.16,278.75h-3.74v-5.64h10.4v25.64h-6.66V278.75z"/>
	</g>
</g>
</svg>
