<?xml version="1.0" encoding="utf-8"?>
<!-- Generator: Adobe Illustrator 29.8.2, SVG Export Plug-In . SVG Version: 9.03 Build 0)  -->
<svg version="1.1" xmlns="http://www.w3.org/2000/svg" xmlns:xlink="http://www.w3.org/1999/xlink" x="0px" y="0px"
	 viewBox="0 0 300 480" style="enable-background:new 0 0 300 480;" xml:space="preserve">
<style type="text/css">
	.st0{display:none;}
	.st1{display:inline;fill:#993333;}
	.st2{display:inline;}
	.st3{fill:none;stroke:#000000;stroke-width:5;stroke-miterlimit:10;}
	.st4{fill:none;stroke:#000000;stroke-width:4;stroke-miterlimit:10;}
	.st5{fill:#FFFFFF;}
</style>
<g id="Layer_3" class="st0">
	<rect x="-17" y="-7" class="st1" width="350" height="503"/>
	<g class="st2">
		<g>
			<circle cx="466" cy="330" r="25"/>
		</g>
		<rect x="414" y="305" width="52" height="50"/>
		<g>
			<circle cx="414" cy="330" r="25"/>
		</g>
		<rect x="419.74" y="315.21" style="fill:none;" width="42.52" height="34.58"/>
		<text transform="matrix(1 0 0 1 429.4409 343.4276)" class="st5" style="font-family:'Futura-Bold'; font-size:34px;">1</text>
	</g>
</g>
<g id="Layer_1">
	<rect x="68.86" y="137.32" class="st3" width="162.28" height="285.01"/>
	<g>
		<line class="st3" x1="68.54" y1="207.58" x2="231.46" y2="207.58"/>
		<line class="st3" x1="69.99" y1="279.82" x2="230.01" y2="279.82"/>
		<line class="st3" x1="69.99" y1="352.06" x2="230.01" y2="352.06"/>
	</g>
	<g>
		<line class="st4" x1="121.45" y1="138" x2="121.45" y2="424"/>
		<line class="st4" x1="178.55" y1="138" x2="178.55" y2="424"/>
	</g>
</g>
<g id="Text">
	<g>
		<path d="M87.82,74.07H75.08v6.8h11.61v8.96H75.08v15.98H64.49V65.1h23.33V74.07z"/>
		<path d="M114.23,78.12h9.83v27.7h-9.83v-3.08c-2.09,2.63-4.91,3.94-8.48,3.94c-2.02,0-3.87-0.37-5.56-1.11
			c-1.69-0.74-3.17-1.77-4.43-3.1c-1.26-1.33-2.24-2.9-2.94-4.7c-0.7-1.8-1.05-3.76-1.05-5.89c0-1.98,0.34-3.86,1.03-5.64
			c0.68-1.78,1.64-3.34,2.86-4.67c1.22-1.33,2.68-2.38,4.37-3.16c1.69-0.77,3.56-1.16,5.62-1.16c3.46,0,6.32,1.21,8.59,3.62V78.12z
			 M101.91,91.89c0,0.9,0.16,1.74,0.49,2.51c0.32,0.77,0.76,1.45,1.32,2.02c0.56,0.58,1.22,1.03,2,1.35
			c0.77,0.32,1.61,0.49,2.51,0.49c0.86,0,1.68-0.16,2.46-0.49c0.77-0.32,1.44-0.77,2-1.35c0.56-0.58,1.01-1.24,1.35-2
			c0.34-0.76,0.51-1.57,0.51-2.43c0-0.86-0.17-1.68-0.51-2.46c-0.34-0.77-0.79-1.45-1.35-2.03c-0.56-0.58-1.22-1.03-2-1.35
			c-0.77-0.32-1.59-0.49-2.46-0.49c-0.9,0-1.74,0.16-2.51,0.49c-0.77,0.32-1.44,0.77-2,1.35c-0.56,0.58-1,1.23-1.32,1.97
			C102.08,90.22,101.91,91.02,101.91,91.89z"/>
		<path d="M152.08,61h9.83v44.82h-9.83v-3.08c-2.09,2.63-4.91,3.94-8.48,3.94c-2.02,0-3.87-0.38-5.56-1.13
			c-1.69-0.76-3.17-1.8-4.43-3.13c-1.26-1.33-2.24-2.9-2.94-4.7c-0.7-1.8-1.05-3.74-1.05-5.83c0-1.98,0.33-3.86,1-5.64
			c0.67-1.78,1.61-3.34,2.83-4.67c1.22-1.33,2.69-2.38,4.4-3.16c1.71-0.77,3.59-1.16,5.64-1.16c3.46,0,6.32,1.21,8.59,3.62V61z
			 M139.77,91.89c0,0.9,0.16,1.74,0.49,2.51c0.32,0.77,0.76,1.45,1.32,2.02c0.56,0.58,1.22,1.03,2,1.35
			c0.77,0.32,1.61,0.49,2.51,0.49c0.86,0,1.68-0.16,2.46-0.49c0.77-0.32,1.44-0.77,2-1.35c0.56-0.58,1.01-1.24,1.35-2
			c0.34-0.76,0.51-1.57,0.51-2.43c0-0.86-0.17-1.68-0.51-2.46c-0.34-0.77-0.79-1.45-1.35-2.03c-0.56-0.58-1.22-1.03-2-1.35
			c-0.77-0.32-1.59-0.49-2.46-0.49c-0.86,0-1.68,0.16-2.46,0.49c-0.77,0.32-1.44,0.77-2,1.35c-0.56,0.58-1.01,1.23-1.35,1.97
			C139.94,90.22,139.77,91.02,139.77,91.89z"/>
		<path d="M189.93,61h9.83v44.82h-9.83v-3.08c-2.09,2.63-4.91,3.94-8.48,3.94c-2.02,0-3.87-0.38-5.56-1.13
			c-1.69-0.76-3.17-1.8-4.43-3.13c-1.26-1.33-2.24-2.9-2.94-4.7c-0.7-1.8-1.05-3.74-1.05-5.83c0-1.98,0.33-3.86,1-5.64
			c0.67-1.78,1.61-3.34,2.83-4.67c1.22-1.33,2.69-2.38,4.4-3.16c1.71-0.77,3.59-1.16,5.64-1.16c3.46,0,6.32,1.21,8.59,3.62V61z
			 M177.62,91.89c0,0.9,0.16,1.74,0.49,2.51c0.32,0.77,0.76,1.45,1.32,2.02c0.56,0.58,1.22,1.03,2,1.35
			c0.77,0.32,1.61,0.49,2.51,0.49c0.86,0,1.68-0.16,2.46-0.49c0.77-0.32,1.44-0.77,2-1.35c0.56-0.58,1.01-1.24,1.35-2
			c0.34-0.76,0.51-1.57,0.51-2.43c0-0.86-0.17-1.68-0.51-2.46c-0.34-0.77-0.79-1.45-1.35-2.03c-0.56-0.58-1.22-1.03-2-1.35
			c-0.77-0.32-1.59-0.49-2.46-0.49c-0.86,0-1.68,0.16-2.46,0.49c-0.77,0.32-1.44,0.77-2,1.35c-0.56,0.58-1.01,1.23-1.35,1.97
			C177.79,90.22,177.62,91.02,177.62,91.89z"/>
		<path d="M210.67,105.82l11.56-13.28h-0.22c-1.01,0.61-1.84,0.98-2.48,1.11c-0.65,0.13-1.22,0.19-1.73,0.19
			c-1.98,0-3.81-0.38-5.48-1.13s-3.11-1.79-4.32-3.1c-1.21-1.31-2.15-2.85-2.83-4.62c-0.68-1.76-1.03-3.65-1.03-5.67
			c0-2.16,0.4-4.17,1.19-6.02c0.79-1.85,1.94-3.47,3.43-4.86c1.49-1.39,3.3-2.47,5.43-3.27c2.12-0.79,4.52-1.19,7.18-1.19
			c2.7,0,5.11,0.4,7.24,1.19c2.12,0.79,3.93,1.87,5.43,3.24c1.49,1.37,2.64,2.96,3.43,4.78c0.79,1.82,1.19,3.75,1.19,5.81
			c0,2.3-0.51,4.8-1.54,7.48c-1.03,2.68-2.6,5.32-4.72,7.91l-9.45,11.45H210.67z M228.17,79.09c0-0.94-0.18-1.81-0.54-2.62
			c-0.36-0.81-0.85-1.52-1.46-2.13c-0.61-0.61-1.32-1.1-2.13-1.46c-0.81-0.36-1.68-0.54-2.62-0.54c-0.94,0-1.81,0.18-2.62,0.54
			c-0.81,0.36-1.52,0.85-2.13,1.46c-0.61,0.61-1.1,1.32-1.46,2.13c-0.36,0.81-0.54,1.68-0.54,2.62c0,0.94,0.18,1.81,0.54,2.62
			c0.36,0.81,0.84,1.52,1.46,2.13c0.61,0.61,1.32,1.1,2.13,1.46c0.81,0.36,1.68,0.54,2.62,0.54c0.94,0,1.81-0.18,2.62-0.54
			c0.81-0.36,1.52-0.85,2.13-1.46c0.61-0.61,1.1-1.32,1.46-2.13C227.98,80.9,228.17,80.03,228.17,79.09z"/>
	</g>
	<path d="M237.58,140H62.42c-1.89,0-3.42-1.53-3.42-3.42v-4.8c0-1.89,1.53-3.42,3.42-3.42h175.16c1.89,0,3.42,1.53,3.42,3.42v4.8
		C241,138.47,239.47,140,237.58,140z"/>
	<g>
		<g>
			<circle cx="179" cy="174" r="25"/>
		</g>
		<g>
			<path class="st5" d="M176.45,167.44h-3.74v-5.64h10.4v25.64h-6.66V167.44z"/>
		</g>
	</g>
</g>
</svg>
