<?xml version="1.0" encoding="utf-8"?>
<!-- Generator: Adobe Illustrator 29.8.2, SVG Export Plug-In . SVG Version: 9.03 Build 0)  -->
<svg version="1.1" xmlns="http://www.w3.org/2000/svg" xmlns:xlink="http://www.w3.org/1999/xlink" x="0px" y="0px"
	 viewBox="0 0 300 480" style="enable-background:new 0 0 300 480;" xml:space="preserve">
<style type="text/css">
	.st0{display:none;}
	.st1{display:inline;fill:#993333;}
	.st2{display:inline;}
	.st3{fill:none;stroke:#000000;stroke-width:5;stroke-miterlimit:10;}
	.st4{fill:none;stroke:#000000;stroke-width:4;stroke-miterlimit:10;}
	.st5{fill:#FFFFFF;}
</style>
<g id="Layer_3" class="st0">
	<rect x="-17" y="-7" class="st1" width="350" height="503"/>
	<g class="st2">
		<g>
			<circle cx="466" cy="330" r="25"/>
		</g>
		<rect x="414" y="305" width="52" height="50"/>
		<g>
			<circle cx="414" cy="330" r="25"/>
		</g>
		<rect x="419.74" y="315.21" style="fill:none;" width="42.52" height="34.58"/>
		<text transform="matrix(1 0 0 1 429.4409 343.4276)" class="st5" style="font-family:'Futura-Bold'; font-size:34px;">1</text>
	</g>
</g>
<g id="Layer_1">
	<rect x="68.86" y="137.32" class="st3" width="162.28" height="285.01"/>
	<g>
		<line class="st3" x1="68.54" y1="207.58" x2="231.46" y2="207.58"/>
		<line class="st3" x1="69.99" y1="279.82" x2="230.01" y2="279.82"/>
		<line class="st3" x1="69.99" y1="352.06" x2="230.01" y2="352.06"/>
	</g>
	<g>
		<line class="st4" x1="121.45" y1="138" x2="121.45" y2="424"/>
		<line class="st4" x1="178.55" y1="138" x2="178.55" y2="424"/>
	</g>
</g>
<g id="Text">
	<g>
		<path d="M131.96,83.03h21.01c0,2.16-0.09,4.12-0.27,5.89c-0.18,1.76-0.54,3.4-1.08,4.91c-0.76,2.12-1.78,4-3.08,5.64
			c-1.3,1.64-2.82,3.01-4.56,4.1c-1.75,1.1-3.66,1.94-5.75,2.51c-2.09,0.58-4.28,0.86-6.59,0.86c-3.17,0-6.06-0.52-8.67-1.57
			c-2.61-1.04-4.85-2.51-6.72-4.4c-1.87-1.89-3.33-4.16-4.37-6.8c-1.04-2.65-1.57-5.57-1.57-8.77c0-3.17,0.51-6.07,1.54-8.72
			c1.03-2.65,2.48-4.9,4.37-6.78c1.89-1.87,4.17-3.33,6.83-4.37c2.66-1.04,5.63-1.57,8.91-1.57c4.25,0,7.97,0.92,11.18,2.75
			c3.2,1.84,5.74,4.68,7.61,8.53l-10.04,4.16c-0.94-2.23-2.15-3.83-3.65-4.81c-1.49-0.97-3.19-1.46-5.1-1.46
			c-1.58,0-3.02,0.3-4.32,0.89c-1.3,0.59-2.4,1.44-3.32,2.54c-0.92,1.1-1.64,2.42-2.16,3.97c-0.52,1.55-0.78,3.28-0.78,5.18
			c0,1.73,0.22,3.33,0.67,4.81c0.45,1.48,1.12,2.75,2.03,3.83c0.9,1.08,2.02,1.92,3.35,2.51c1.33,0.59,2.88,0.89,4.64,0.89
			c1.04,0,2.05-0.12,3.02-0.35c0.97-0.23,1.84-0.61,2.62-1.13c0.77-0.52,1.41-1.2,1.92-2.03c0.5-0.83,0.85-1.84,1.03-3.02h-8.69
			V83.03z"/>
		<path d="M176.73,74.07h-17.01V65.1h33.43l-23.33,40.72h-11.66L176.73,74.07z"/>
	</g>
	<g>
		<g>
			<circle cx="121.45" cy="318" r="25"/>
		</g>
		<g>
			<path class="st5" d="M120.05,315.79c0.18,0.02,0.33,0.03,0.46,0.03c0.12,0,0.23,0,0.32,0c0.84,0,1.52-0.25,2.04-0.75
				c0.52-0.5,0.78-1.14,0.78-1.94c0-0.77-0.24-1.39-0.73-1.87c-0.49-0.48-1.12-0.71-1.89-0.71c-0.82,0-1.47,0.27-1.97,0.82
				c-0.5,0.54-0.75,1.25-0.75,2.11h-6.15c0.16-1.34,0.49-2.53,1-3.57c0.51-1.04,1.16-1.92,1.96-2.63c0.79-0.71,1.72-1.26,2.79-1.63
				c1.06-0.37,2.24-0.56,3.54-0.56c1.27,0,2.42,0.18,3.45,0.53s1.92,0.85,2.65,1.5c0.74,0.65,1.3,1.43,1.7,2.35
				c0.4,0.92,0.59,1.94,0.59,3.08c0,1.22-0.23,2.23-0.7,3.01c-0.46,0.78-1.13,1.46-1.99,2.02c1.31,0.41,2.34,1.14,3.08,2.19
				c0.74,1.05,1.11,2.35,1.11,3.89c0,1.27-0.25,2.43-0.75,3.47c-0.5,1.04-1.2,1.94-2.09,2.69c-0.9,0.75-1.96,1.33-3.2,1.73
				c-1.24,0.41-2.59,0.61-4.06,0.61c-1.97,0-3.75-0.39-5.34-1.16c-1.59-0.77-2.86-1.99-3.81-3.67c-0.43-0.75-0.72-1.5-0.87-2.24
				s-0.22-1.51-0.22-2.28h6.6c0.04,1.2,0.4,2.11,1.05,2.74c0.66,0.62,1.54,0.94,2.65,0.94c1.18,0,2.04-0.32,2.58-0.95
				s0.82-1.42,0.82-2.35c0-1.11-0.33-1.95-0.99-2.52c-0.66-0.57-1.44-0.85-2.35-0.85c-0.23,0-0.44,0.02-0.65,0.05
				s-0.43,0.07-0.68,0.12V315.79z"/>
		</g>
	</g>
	<g>
		<g>
			<circle cx="179" cy="173" r="25"/>
		</g>
		<g>
			<path class="st5" d="M176.45,166.44h-3.74v-5.64h10.4v25.64h-6.66V166.44z"/>
		</g>
	</g>
	<g>
		<g>
			<circle cx="69" cy="243" r="25"/>
		</g>
		<g>
			<path class="st5" d="M79.03,256.43H58.39l6.36-6.6c1.68-1.75,2.99-3.22,3.94-4.44c0.95-1.21,1.66-2.24,2.12-3.08
				c0.46-0.84,0.75-1.52,0.87-2.04c0.11-0.52,0.17-0.96,0.17-1.33c0-0.39-0.06-0.76-0.19-1.12c-0.12-0.36-0.31-0.69-0.56-0.97
				c-0.25-0.28-0.55-0.51-0.9-0.68s-0.76-0.25-1.24-0.25c-0.91,0-1.62,0.29-2.12,0.88c-0.51,0.59-0.77,1.33-0.77,2.21
				c0,0.25,0.03,0.61,0.1,1.09H58.9c0-1.5,0.24-2.86,0.73-4.08c0.49-1.22,1.17-2.28,2.06-3.16s1.93-1.56,3.14-2.04
				c1.21-0.48,2.54-0.71,4-0.71c1.43,0,2.75,0.23,3.96,0.68c1.21,0.45,2.26,1.09,3.15,1.9s1.58,1.79,2.07,2.91
				c0.5,1.12,0.75,2.34,0.75,3.66c0,1.41-0.3,2.7-0.9,3.89c-0.6,1.19-1.56,2.41-2.87,3.65l-4.25,3.98h8.3V256.43z"/>
		</g>
	</g>
	<g>
		<g>
			<circle cx="230.77" cy="318" r="25"/>
		</g>
		<g>
			<path class="st5" d="M238.25,321.06h3.09v5.1h-3.09v5.27h-6.19v-5.27h-12.38v-4.28l9.79-16.08h8.77V321.06z M232.06,321.06v-10.1
				l-5.88,10.1H232.06z"/>
		</g>
	</g>
	<g>
		<path d="M251.35,171.31c0.22,0.03,0.41,0.04,0.57,0.04c0.15,0,0.29,0,0.4,0c1.04,0,1.88-0.31,2.52-0.92
			c0.64-0.62,0.97-1.41,0.97-2.39c0-0.95-0.3-1.72-0.9-2.31c-0.6-0.59-1.38-0.88-2.33-0.88c-1.01,0-1.82,0.34-2.44,1.01
			c-0.62,0.67-0.92,1.54-0.92,2.6h-7.6c0.2-1.65,0.61-3.12,1.24-4.41c0.63-1.29,1.43-2.37,2.42-3.25c0.98-0.88,2.13-1.55,3.44-2.02
			c1.32-0.46,2.77-0.69,4.37-0.69c1.57,0,2.99,0.22,4.26,0.65c1.27,0.43,2.37,1.05,3.28,1.85c0.91,0.8,1.61,1.76,2.1,2.9
			c0.49,1.13,0.74,2.4,0.74,3.8c0,1.51-0.29,2.75-0.86,3.72c-0.57,0.97-1.39,1.8-2.46,2.5c1.62,0.5,2.89,1.41,3.8,2.71
			s1.37,2.91,1.37,4.81c0,1.57-0.31,3-0.92,4.28c-0.62,1.29-1.48,2.39-2.58,3.32c-1.11,0.92-2.42,1.64-3.95,2.14
			s-3.2,0.76-5.02,0.76c-2.44,0-4.63-0.48-6.59-1.43c-1.96-0.95-3.53-2.46-4.7-4.54c-0.53-0.92-0.89-1.85-1.07-2.77
			c-0.18-0.92-0.27-1.86-0.27-2.81h8.15c0.06,1.48,0.49,2.61,1.3,3.38c0.81,0.77,1.9,1.16,3.28,1.16c1.46,0,2.52-0.39,3.19-1.18
			s1.01-1.75,1.01-2.9c0-1.37-0.41-2.41-1.22-3.11c-0.81-0.7-1.78-1.05-2.9-1.05c-0.28,0-0.55,0.02-0.8,0.06s-0.53,0.09-0.84,0.15
			V171.31z"/>
	</g>
</g>
</svg>
