<?xml version="1.0" encoding="utf-8"?>
<!-- Generator: Adobe Illustrator 29.8.2, SVG Export Plug-In . SVG Version: 9.03 Build 0)  -->
<svg version="1.1" xmlns="http://www.w3.org/2000/svg" xmlns:xlink="http://www.w3.org/1999/xlink" x="0px" y="0px"
	 viewBox="0 0 300 480" style="enable-background:new 0 0 300 480;" xml:space="preserve">
<style type="text/css">
	.st0{display:none;}
	.st1{display:inline;fill:#993333;}
	.st2{display:inline;}
	.st3{fill:none;stroke:#000000;stroke-width:5;stroke-miterlimit:10;}
	.st4{fill:none;stroke:#000000;stroke-width:4;stroke-miterlimit:10;}
	.st5{fill:#FFFFFF;}
</style>
<g id="Layer_3" class="st0">
	<rect x="-17" y="-7" class="st1" width="350" height="503"/>
	<g class="st2">
		<g>
			<circle cx="466" cy="330" r="25"/>
		</g>
		<rect x="414" y="305" width="52" height="50"/>
		<g>
			<circle cx="414" cy="330" r="25"/>
		</g>
		<rect x="419.74" y="315.21" style="fill:none;" width="42.52" height="34.58"/>
		<text transform="matrix(1 0 0 1 429.4409 343.4276)" class="st5" style="font-family:'Futura-Bold'; font-size:34px;">1</text>
	</g>
</g>
<g id="Layer_1">
	<rect x="68.86" y="137.32" class="st3" width="162.28" height="285.01"/>
	<g>
		<line class="st3" x1="68.54" y1="207.58" x2="231.46" y2="207.58"/>
		<line class="st3" x1="69.99" y1="279.82" x2="230.01" y2="279.82"/>
		<line class="st3" x1="69.99" y1="352.06" x2="230.01" y2="352.06"/>
	</g>
	<g>
		<line class="st4" x1="121.45" y1="138" x2="121.45" y2="424"/>
		<line class="st4" x1="178.55" y1="138" x2="178.55" y2="424"/>
	</g>
</g>
<g id="Text">
	<g>
		<path d="M52.7,87.32h15.56c0,1.6-0.07,3.05-0.2,4.36c-0.13,1.31-0.4,2.52-0.8,3.64c-0.56,1.57-1.32,2.97-2.28,4.18
			c-0.96,1.21-2.09,2.23-3.38,3.04c-1.29,0.81-2.71,1.43-4.26,1.86c-1.55,0.43-3.17,0.64-4.88,0.64c-2.35,0-4.49-0.39-6.42-1.16
			c-1.93-0.77-3.59-1.86-4.98-3.26c-1.39-1.4-2.47-3.08-3.24-5.04s-1.16-4.13-1.16-6.5c0-2.35,0.38-4.5,1.14-6.46
			c0.76-1.96,1.84-3.63,3.24-5.02c1.4-1.39,3.09-2.47,5.06-3.24c1.97-0.77,4.17-1.16,6.6-1.16c3.15,0,5.91,0.68,8.28,2.04
			c2.37,1.36,4.25,3.47,5.64,6.32l-7.44,3.08c-0.69-1.65-1.59-2.84-2.7-3.56C55.37,80.36,54.11,80,52.7,80
			c-1.17,0-2.24,0.22-3.2,0.66s-1.78,1.07-2.46,1.88c-0.68,0.81-1.21,1.79-1.6,2.94c-0.39,1.15-0.58,2.43-0.58,3.84
			c0,1.28,0.17,2.47,0.5,3.56c0.33,1.09,0.83,2.04,1.5,2.84c0.67,0.8,1.49,1.42,2.48,1.86c0.99,0.44,2.13,0.66,3.44,0.66
			c0.77,0,1.52-0.09,2.24-0.26c0.72-0.17,1.37-0.45,1.94-0.84c0.57-0.39,1.05-0.89,1.42-1.5c0.37-0.61,0.63-1.36,0.76-2.24H52.7
			V87.32z"/>
		<path d="M72.54,83.68h7.24v2.52c1.97-1.89,4.19-2.84,6.64-2.84c3.04,0,5.36,1.28,6.96,3.84c1.63-2.59,3.95-3.88,6.96-3.88
			c0.96,0,1.87,0.14,2.72,0.42c0.85,0.28,1.59,0.72,2.2,1.32c0.61,0.6,1.1,1.38,1.46,2.34c0.36,0.96,0.54,2.12,0.54,3.48v13.32
			h-7.24V94.08c0-1.04-0.07-1.89-0.22-2.56c-0.15-0.67-0.36-1.19-0.64-1.56c-0.28-0.37-0.61-0.63-0.98-0.76
			c-0.37-0.13-0.77-0.2-1.2-0.2c-2.32,0-3.48,1.69-3.48,5.08v10.12h-7.24V94.08c0-1.04-0.07-1.9-0.2-2.58
			c-0.13-0.68-0.33-1.22-0.58-1.62c-0.25-0.4-0.58-0.67-0.98-0.82c-0.4-0.15-0.87-0.22-1.4-0.22c-0.45,0-0.88,0.07-1.28,0.2
			c-0.4,0.13-0.75,0.39-1.06,0.78c-0.31,0.39-0.55,0.92-0.72,1.6c-0.17,0.68-0.26,1.57-0.26,2.66v10.12h-7.24V83.68z"/>
		<path d="M128.06,83.68h7.28v20.52h-7.28v-2.28c-1.55,1.95-3.64,2.92-6.28,2.92c-1.49,0-2.87-0.27-4.12-0.82
			c-1.25-0.55-2.35-1.31-3.28-2.3c-0.93-0.99-1.66-2.15-2.18-3.48c-0.52-1.33-0.78-2.79-0.78-4.36c0-1.47,0.25-2.86,0.76-4.18
			c0.51-1.32,1.21-2.47,2.12-3.46c0.91-0.99,1.99-1.77,3.24-2.34c1.25-0.57,2.64-0.86,4.16-0.86c2.56,0,4.68,0.89,6.36,2.68V83.68z
			 M118.94,93.88c0,0.67,0.12,1.29,0.36,1.86c0.24,0.57,0.57,1.07,0.98,1.5c0.41,0.43,0.91,0.76,1.48,1
			c0.57,0.24,1.19,0.36,1.86,0.36c0.64,0,1.25-0.12,1.82-0.36c0.57-0.24,1.07-0.57,1.48-1c0.41-0.43,0.75-0.92,1-1.48
			s0.38-1.16,0.38-1.8c0-0.64-0.13-1.25-0.38-1.82c-0.25-0.57-0.59-1.07-1-1.5c-0.41-0.43-0.91-0.76-1.48-1
			c-0.57-0.24-1.18-0.36-1.82-0.36c-0.67,0-1.29,0.12-1.86,0.36c-0.57,0.24-1.07,0.57-1.48,1c-0.41,0.43-0.74,0.91-0.98,1.46
			C119.06,92.65,118.94,93.24,118.94,93.88z"/>
		<path d="M153.58,80.68h-12.6v-6.64h24.76l-17.28,30.16h-8.64L153.58,80.68z"/>
		<path d="M184.7,81.76c-0.85-0.69-1.71-1.21-2.56-1.54c-0.85-0.33-1.68-0.5-2.48-0.5c-1.01,0-1.84,0.24-2.48,0.72
			c-0.64,0.48-0.96,1.11-0.96,1.88c0,0.53,0.16,0.97,0.48,1.32c0.32,0.35,0.74,0.65,1.26,0.9c0.52,0.25,1.11,0.47,1.76,0.66
			c0.65,0.19,1.3,0.39,1.94,0.6c2.56,0.85,4.43,1.99,5.62,3.42c1.19,1.43,1.78,3.29,1.78,5.58c0,1.55-0.26,2.95-0.78,4.2
			c-0.52,1.25-1.28,2.33-2.28,3.22c-1,0.89-2.23,1.59-3.68,2.08s-3.1,0.74-4.94,0.74c-3.81,0-7.35-1.13-10.6-3.4l3.36-6.32
			c1.17,1.04,2.33,1.81,3.48,2.32c1.15,0.51,2.28,0.76,3.4,0.76c1.28,0,2.23-0.29,2.86-0.88c0.63-0.59,0.94-1.25,0.94-2
			c0-0.45-0.08-0.85-0.24-1.18c-0.16-0.33-0.43-0.64-0.8-0.92c-0.37-0.28-0.86-0.54-1.46-0.78c-0.6-0.24-1.33-0.51-2.18-0.8
			c-1.01-0.32-2.01-0.67-2.98-1.06c-0.97-0.39-1.84-0.9-2.6-1.54s-1.37-1.45-1.84-2.42c-0.47-0.97-0.7-2.21-0.7-3.7
			c0-1.49,0.25-2.85,0.74-4.06c0.49-1.21,1.19-2.25,2.08-3.12c0.89-0.87,1.99-1.54,3.28-2.02c1.29-0.48,2.74-0.72,4.34-0.72
			c1.49,0,3.05,0.21,4.68,0.62c1.63,0.41,3.19,1.02,4.68,1.82L184.7,81.76z"/>
		<path d="M200.54,83.68v11.56c0,2.53,1.23,3.8,3.68,3.8c2.45,0,3.68-1.27,3.68-3.8V83.68h7.24v12.96c0,2.77-0.91,4.85-2.74,6.24
			c-1.83,1.39-4.55,2.08-8.18,2.08c-3.63,0-6.35-0.69-8.18-2.08s-2.74-3.47-2.74-6.24V83.68H200.54z"/>
		<path d="M233.66,88.96c-1.33-0.69-2.64-1.04-3.92-1.04c-0.67,0-1.21,0.13-1.62,0.4c-0.41,0.27-0.62,0.63-0.62,1.08
			c0,0.24,0.03,0.43,0.1,0.58c0.07,0.15,0.21,0.29,0.44,0.42c0.23,0.13,0.56,0.25,1,0.36c0.44,0.11,1.02,0.24,1.74,0.4
			c2,0.4,3.49,1.11,4.48,2.14c0.99,1.03,1.48,2.34,1.48,3.94c0,1.2-0.24,2.28-0.72,3.24c-0.48,0.96-1.15,1.77-2,2.42
			c-0.85,0.65-1.88,1.16-3.08,1.52c-1.2,0.36-2.52,0.54-3.96,0.54c-2.77,0-5.51-0.79-8.2-2.36l2.64-5.12
			c2.03,1.39,3.95,2.08,5.76,2.08c0.67,0,1.21-0.15,1.64-0.44c0.43-0.29,0.64-0.67,0.64-1.12c0-0.27-0.03-0.49-0.1-0.66
			c-0.07-0.17-0.21-0.33-0.42-0.48c-0.21-0.15-0.53-0.28-0.94-0.4c-0.41-0.12-0.95-0.25-1.62-0.38c-2.24-0.45-3.81-1.13-4.7-2.02
			c-0.89-0.89-1.34-2.13-1.34-3.7c0-1.15,0.21-2.18,0.64-3.1c0.43-0.92,1.04-1.7,1.84-2.34c0.8-0.64,1.77-1.13,2.9-1.48
			s2.39-0.52,3.78-0.52c2.27,0,4.47,0.44,6.6,1.32L233.66,88.96z"/>
		<path d="M263.34,104.2h-24.28l7.48-7.76c1.97-2.05,3.52-3.79,4.64-5.22c1.12-1.43,1.95-2.63,2.5-3.62
			c0.55-0.99,0.89-1.79,1.02-2.4c0.13-0.61,0.2-1.13,0.2-1.56c0-0.45-0.07-0.89-0.22-1.32c-0.15-0.43-0.37-0.81-0.66-1.14
			c-0.29-0.33-0.65-0.6-1.06-0.8c-0.41-0.2-0.9-0.3-1.46-0.3c-1.07,0-1.9,0.35-2.5,1.04c-0.6,0.69-0.9,1.56-0.9,2.6
			c0,0.29,0.04,0.72,0.12,1.28h-8.56c0-1.76,0.29-3.36,0.86-4.8c0.57-1.44,1.38-2.68,2.42-3.72c1.04-1.04,2.27-1.84,3.7-2.4
			c1.43-0.56,2.99-0.84,4.7-0.84c1.68,0,3.23,0.27,4.66,0.8c1.43,0.53,2.66,1.28,3.7,2.24s1.85,2.1,2.44,3.42
			c0.59,1.32,0.88,2.75,0.88,4.3c0,1.65-0.35,3.18-1.06,4.58c-0.71,1.4-1.83,2.83-3.38,4.3l-5,4.68h9.76V104.2z"/>
	</g>
	<path d="M237.58,140H62.42c-1.89,0-3.42-1.53-3.42-3.42v-4.8c0-1.89,1.53-3.42,3.42-3.42h175.16c1.89,0,3.42,1.53,3.42,3.42v4.8
		C241,138.47,239.47,140,237.58,140z"/>
	<g>
		<g>
			<circle cx="179" cy="243" r="25"/>
		</g>
		<g>
			<path class="st5" d="M177.61,240.79c0.18,0.02,0.33,0.03,0.46,0.03c0.12,0,0.23,0,0.32,0c0.84,0,1.52-0.25,2.04-0.75
				c0.52-0.5,0.78-1.14,0.78-1.94c0-0.77-0.24-1.39-0.73-1.87s-1.12-0.71-1.89-0.71c-0.82,0-1.47,0.27-1.97,0.82
				c-0.5,0.54-0.75,1.25-0.75,2.11h-6.15c0.16-1.34,0.49-2.53,1-3.57c0.51-1.04,1.16-1.92,1.96-2.64c0.79-0.71,1.72-1.26,2.79-1.63
				c1.06-0.37,2.24-0.56,3.54-0.56c1.27,0,2.42,0.18,3.45,0.53c1.03,0.35,1.92,0.85,2.65,1.5c0.74,0.65,1.3,1.43,1.7,2.35
				c0.4,0.92,0.59,1.94,0.59,3.08c0,1.22-0.23,2.23-0.7,3.01s-1.13,1.46-1.99,2.02c1.31,0.41,2.34,1.14,3.08,2.19
				c0.74,1.05,1.11,2.35,1.11,3.89c0,1.27-0.25,2.43-0.75,3.47c-0.5,1.04-1.2,1.94-2.09,2.69c-0.9,0.75-1.96,1.33-3.2,1.73
				c-1.24,0.41-2.59,0.61-4.06,0.61c-1.97,0-3.75-0.39-5.34-1.16c-1.59-0.77-2.86-1.99-3.81-3.67c-0.43-0.75-0.72-1.5-0.87-2.24
				s-0.22-1.51-0.22-2.28h6.6c0.04,1.2,0.4,2.11,1.05,2.74c0.66,0.62,1.54,0.94,2.65,0.94c1.18,0,2.04-0.32,2.58-0.95
				s0.82-1.42,0.82-2.35c0-1.11-0.33-1.95-0.99-2.52c-0.66-0.57-1.44-0.85-2.35-0.85c-0.23,0-0.44,0.02-0.65,0.05
				s-0.43,0.07-0.68,0.12V240.79z"/>
		</g>
	</g>
	<g>
		<g>
			<circle cx="121.5" cy="243" r="25"/>
		</g>
		<g>
			<path class="st5" d="M131.53,256.43h-20.64l6.36-6.6c1.68-1.75,2.99-3.22,3.94-4.44c0.95-1.21,1.66-2.24,2.12-3.08
				c0.46-0.84,0.75-1.52,0.87-2.04c0.11-0.52,0.17-0.96,0.17-1.33c0-0.39-0.06-0.76-0.19-1.12c-0.12-0.36-0.31-0.69-0.56-0.97
				c-0.25-0.28-0.55-0.51-0.9-0.68s-0.76-0.25-1.24-0.25c-0.91,0-1.62,0.29-2.12,0.88c-0.51,0.59-0.77,1.33-0.77,2.21
				c0,0.25,0.03,0.61,0.1,1.09h-7.28c0-1.5,0.24-2.86,0.73-4.08c0.49-1.22,1.17-2.28,2.06-3.16s1.93-1.56,3.14-2.04
				c1.21-0.48,2.54-0.71,4-0.71c1.43,0,2.75,0.23,3.96,0.68c1.21,0.45,2.26,1.09,3.15,1.9s1.58,1.79,2.07,2.91
				c0.5,1.12,0.75,2.34,0.75,3.66c0,1.41-0.3,2.7-0.9,3.89c-0.6,1.19-1.56,2.41-2.87,3.65l-4.25,3.98h8.3V256.43z"/>
		</g>
	</g>
</g>
</svg>
