<?xml version="1.0" encoding="utf-8"?>
<!-- Generator: Adobe Illustrator 29.8.2, SVG Export Plug-In . SVG Version: 9.03 Build 0)  -->
<svg version="1.1" xmlns="http://www.w3.org/2000/svg" xmlns:xlink="http://www.w3.org/1999/xlink" x="0px" y="0px"
	 viewBox="0 0 300 480" style="enable-background:new 0 0 300 480;" xml:space="preserve">
<style type="text/css">
	.st0{display:none;}
	.st1{display:inline;fill:#993333;}
	.st2{fill:none;stroke:#000000;stroke-width:5.5502;stroke-miterlimit:10;}
	.st3{fill:none;stroke:#000000;stroke-width:5;stroke-miterlimit:10;}
	.st4{fill:none;stroke:#000000;stroke-width:4.4313;stroke-miterlimit:10;}
	.st5{fill:#FFFFFF;}
</style>
<g id="Layer_3" class="st0">
	<rect x="-17" y="-7" class="st1" width="350" height="503"/>
</g>
<g id="Layer_1">
	<g>
		<rect x="68.86" y="84.16" class="st2" width="162.28" height="351.18"/>
		<g>
			<line class="st3" x1="68.54" y1="154.42" x2="231.46" y2="154.42"/>
			<line class="st3" x1="69.99" y1="226.66" x2="230.01" y2="226.66"/>
			<line class="st3" x1="69.99" y1="298.91" x2="230.01" y2="298.91"/>
			<line class="st3" x1="69.99" y1="369.91" x2="230.01" y2="369.91"/>
		</g>
		<g>
			<line class="st4" x1="121.45" y1="84.84" x2="121.45" y2="435.84"/>
			<line class="st4" x1="178.55" y1="84.84" x2="178.55" y2="435.84"/>
		</g>
	</g>
</g>
<g id="Text">
	<g>
		<path d="M150.32,44.03h21.01c0,2.16-0.09,4.12-0.27,5.89c-0.18,1.76-0.54,3.4-1.08,4.91c-0.76,2.12-1.78,4-3.08,5.64
			c-1.3,1.64-2.82,3.01-4.56,4.1c-1.75,1.1-3.66,1.94-5.75,2.51c-2.09,0.58-4.28,0.86-6.59,0.86c-3.17,0-6.06-0.52-8.67-1.57
			c-2.61-1.04-4.85-2.51-6.72-4.4c-1.87-1.89-3.33-4.16-4.37-6.8c-1.04-2.65-1.57-5.57-1.57-8.77c0-3.17,0.51-6.07,1.54-8.72
			c1.03-2.65,2.48-4.9,4.37-6.78c1.89-1.87,4.17-3.33,6.83-4.37c2.66-1.04,5.63-1.57,8.91-1.57c4.25,0,7.97,0.92,11.18,2.75
			c3.2,1.84,5.74,4.68,7.61,8.53l-10.04,4.16c-0.94-2.23-2.15-3.83-3.65-4.81c-1.49-0.97-3.19-1.46-5.1-1.46
			c-1.58,0-3.02,0.3-4.32,0.89c-1.3,0.59-2.4,1.44-3.32,2.54c-0.92,1.1-1.64,2.42-2.16,3.97c-0.52,1.55-0.78,3.28-0.78,5.18
			c0,1.73,0.22,3.33,0.67,4.81c0.45,1.48,1.12,2.75,2.03,3.83c0.9,1.08,2.02,1.92,3.35,2.51c1.33,0.59,2.88,0.89,4.64,0.89
			c1.04,0,2.05-0.12,3.02-0.35c0.97-0.23,1.84-0.61,2.62-1.13c0.77-0.52,1.41-1.2,1.92-2.03c0.5-0.83,0.85-1.84,1.03-3.02h-8.69
			V44.03z"/>
	</g>
	<g>
		<rect x="120" y="165.25" width="111" height="50"/>
		<g>
			<g>
				<circle cx="121" cy="190" r="25"/>
			</g>
			<g>
				<circle cx="230" cy="190" r="25"/>
			</g>
			<g>
				<path class="st5" d="M175.45,181.15h-3.74v-5.64h10.4v25.64h-6.66V181.15z"/>
			</g>
		</g>
	</g>
	<g>
		<g>
			<circle cx="231" cy="400" r="25"/>
		</g>
		<g>
			<path class="st5" d="M238.48,403.08h3.09v5.1h-3.09v5.27h-6.19v-5.27h-12.38v-4.28l9.79-16.08h8.77V403.08z M232.29,403.08v-10.1
				l-5.88,10.1H232.29z"/>
		</g>
	</g>
	<g>
		<path d="M276.55,183.07h-10.71v-5.64h21.05l-14.69,25.64h-7.34L276.55,183.07z"/>
	</g>
</g>
</svg>
