<?xml version="1.0" encoding="utf-8"?>
<!-- Generator: Adobe Illustrator 29.8.2, SVG Export Plug-In . SVG Version: 9.03 Build 0)  -->
<svg version="1.1" xmlns="http://www.w3.org/2000/svg" xmlns:xlink="http://www.w3.org/1999/xlink" x="0px" y="0px"
	 viewBox="0 0 300 480" style="enable-background:new 0 0 300 480;" xml:space="preserve">
<style type="text/css">
	.st0{display:none;}
	.st1{display:inline;fill:#993333;}
	.st2{fill:none;stroke:#000000;stroke-width:5;stroke-miterlimit:10;}
	.st3{fill:none;stroke:#000000;stroke-width:4;stroke-miterlimit:10;}
	.st4{fill:#FFFFFF;}
</style>
<g id="Layer_3" class="st0">
	<rect x="-17" y="-7" class="st1" width="350" height="503"/>
</g>
<g id="Layer_1">
	<rect x="68.86" y="137.32" class="st2" width="162.28" height="285.01"/>
	<g>
		<line class="st2" x1="68.54" y1="207.58" x2="231.46" y2="207.58"/>
		<line class="st2" x1="69.99" y1="279.82" x2="230.01" y2="279.82"/>
		<line class="st2" x1="69.99" y1="352.06" x2="230.01" y2="352.06"/>
	</g>
	<g>
		<line class="st3" x1="121.45" y1="138" x2="121.45" y2="424"/>
		<line class="st3" x1="178.55" y1="138" x2="178.55" y2="424"/>
	</g>
</g>
<g id="Text">
	<g>
		<path d="M77.51,83.03h21.01c0,2.16-0.09,4.12-0.27,5.89c-0.18,1.76-0.54,3.4-1.08,4.91c-0.76,2.12-1.78,4-3.08,5.64
			c-1.3,1.64-2.82,3.01-4.56,4.1c-1.75,1.1-3.66,1.94-5.75,2.51c-2.09,0.58-4.28,0.86-6.59,0.86c-3.17,0-6.06-0.52-8.67-1.57
			c-2.61-1.04-4.85-2.51-6.72-4.4c-1.87-1.89-3.33-4.16-4.37-6.8c-1.04-2.65-1.57-5.57-1.57-8.77c0-3.17,0.51-6.07,1.54-8.72
			c1.03-2.65,2.48-4.9,4.37-6.78c1.89-1.87,4.17-3.33,6.83-4.37c2.66-1.04,5.63-1.57,8.91-1.57c4.25,0,7.97,0.92,11.18,2.75
			c3.2,1.84,5.74,4.68,7.61,8.53l-10.04,4.16c-0.94-2.23-2.15-3.83-3.65-4.81c-1.49-0.97-3.19-1.46-5.1-1.46
			c-1.58,0-3.02,0.3-4.32,0.89c-1.3,0.59-2.4,1.44-3.32,2.54c-0.92,1.1-1.64,2.42-2.16,3.97c-0.52,1.55-0.78,3.28-0.78,5.18
			c0,1.73,0.22,3.33,0.67,4.81c0.45,1.48,1.12,2.75,2.03,3.83c0.9,1.08,2.02,1.92,3.35,2.51c1.33,0.59,2.88,0.89,4.64,0.89
			c1.04,0,2.05-0.12,3.02-0.35c0.97-0.23,1.84-0.61,2.62-1.13c0.77-0.52,1.41-1.2,1.92-2.03c0.5-0.83,0.85-1.84,1.03-3.02h-8.69
			V83.03z"/>
		<path d="M104.29,78.12h9.77v3.4c2.66-2.56,5.65-3.83,8.96-3.83c4.1,0,7.24,1.73,9.4,5.18c2.2-3.49,5.33-5.24,9.4-5.24
			c1.3,0,2.52,0.19,3.67,0.57s2.14,0.97,2.97,1.78s1.49,1.86,1.97,3.16c0.49,1.3,0.73,2.86,0.73,4.7v17.98h-9.77V92.16
			c0-1.4-0.1-2.56-0.3-3.46c-0.2-0.9-0.49-1.6-0.86-2.11c-0.38-0.5-0.82-0.85-1.32-1.03c-0.5-0.18-1.04-0.27-1.62-0.27
			c-3.13,0-4.7,2.29-4.7,6.86v13.66h-9.77V92.16c0-1.4-0.09-2.56-0.27-3.48s-0.44-1.65-0.78-2.19c-0.34-0.54-0.78-0.91-1.32-1.11
			c-0.54-0.2-1.17-0.3-1.89-0.3c-0.61,0-1.19,0.09-1.73,0.27c-0.54,0.18-1.02,0.53-1.43,1.05c-0.42,0.52-0.74,1.24-0.97,2.16
			s-0.35,2.12-0.35,3.59v13.66h-9.77V78.12z"/>
		<path d="M179.24,78.12h9.83v27.7h-9.83v-3.08c-2.09,2.63-4.91,3.94-8.48,3.94c-2.02,0-3.87-0.37-5.56-1.11
			c-1.69-0.74-3.17-1.77-4.43-3.1c-1.26-1.33-2.24-2.9-2.94-4.7c-0.7-1.8-1.05-3.76-1.05-5.89c0-1.98,0.34-3.86,1.03-5.64
			c0.68-1.78,1.64-3.34,2.86-4.67c1.22-1.33,2.68-2.38,4.37-3.16c1.69-0.77,3.56-1.16,5.62-1.16c3.46,0,6.32,1.21,8.59,3.62V78.12z
			 M166.93,91.89c0,0.9,0.16,1.74,0.49,2.51c0.32,0.77,0.76,1.45,1.32,2.02c0.56,0.58,1.22,1.03,2,1.35
			c0.77,0.32,1.61,0.49,2.51,0.49c0.86,0,1.68-0.16,2.46-0.49c0.77-0.32,1.44-0.77,2-1.35c0.56-0.58,1.01-1.24,1.35-2
			c0.34-0.76,0.51-1.57,0.51-2.43c0-0.86-0.17-1.68-0.51-2.46c-0.34-0.77-0.79-1.45-1.35-2.03c-0.56-0.58-1.22-1.03-2-1.35
			c-0.77-0.32-1.59-0.49-2.46-0.49c-0.9,0-1.74,0.16-2.51,0.49c-0.77,0.32-1.44,0.77-2,1.35c-0.56,0.58-1,1.23-1.32,1.97
			C167.09,90.22,166.93,91.02,166.93,91.89z"/>
		<path d="M196.09,67.48c0-0.76,0.14-1.47,0.43-2.13c0.29-0.67,0.68-1.25,1.19-1.75c0.5-0.5,1.09-0.9,1.75-1.19
			c0.67-0.29,1.38-0.43,2.13-0.43s1.47,0.14,2.13,0.43c0.67,0.29,1.25,0.68,1.75,1.19c0.5,0.5,0.9,1.09,1.19,1.75
			c0.29,0.67,0.43,1.38,0.43,2.13c0,0.76-0.14,1.47-0.43,2.13c-0.29,0.67-0.68,1.25-1.19,1.75c-0.5,0.5-1.09,0.9-1.75,1.19
			c-0.67,0.29-1.38,0.43-2.13,0.43s-1.47-0.14-2.13-0.43c-0.67-0.29-1.25-0.68-1.75-1.19c-0.5-0.5-0.9-1.09-1.19-1.75
			C196.23,68.95,196.09,68.24,196.09,67.48z M206.51,78.12v41.53h-9.77V78.12H206.51z"/>
		<path d="M231.19,74.07h-17.01V65.1h33.43l-23.33,40.72h-11.66L231.19,74.07z"/>
	</g>
	<path d="M237.58,140H62.42c-1.89,0-3.42-1.53-3.42-3.42v-4.8c0-1.89,1.53-3.42,3.42-3.42h175.16c1.89,0,3.42,1.53,3.42,3.42v4.8
		C241,138.47,239.47,140,237.58,140z"/>
	<g>
		<circle cx="121" cy="243" r="25"/>
	</g>
	<g>
		<circle cx="230" cy="243" r="25"/>
	</g>
	<rect x="121" y="218" width="110" height="50"/>
	<g>
		<path class="st4" d="M174.45,236.44h-3.74v-5.64h10.4v25.64h-6.66V236.44z"/>
	</g>
</g>
</svg>
