<?xml version="1.0" encoding="utf-8"?>
<!-- Generator: Adobe Illustrator 29.8.2, SVG Export Plug-In . SVG Version: 9.03 Build 0)  -->
<svg version="1.1" xmlns="http://www.w3.org/2000/svg" xmlns:xlink="http://www.w3.org/1999/xlink" x="0px" y="0px"
	 viewBox="0 0 300 480" style="enable-background:new 0 0 300 480;" xml:space="preserve">
<style type="text/css">
	.st0{display:none;}
	.st1{display:inline;fill:#993333;}
	.st2{fill:none;stroke:#000000;stroke-width:5;stroke-miterlimit:10;}
	.st3{fill:none;stroke:#000000;stroke-width:4;stroke-miterlimit:10;}
	.st4{fill:#FFFFFF;}
</style>
<g id="Layer_3" class="st0">
	<rect x="-17" y="-7" class="st1" width="350" height="503"/>
</g>
<g id="Layer_1">
	<rect x="68.86" y="137.32" class="st2" width="162.28" height="285.01"/>
	<g>
		<line class="st2" x1="68.54" y1="207.58" x2="231.46" y2="207.58"/>
		<line class="st2" x1="69.99" y1="279.82" x2="230.01" y2="279.82"/>
		<line class="st2" x1="69.99" y1="352.06" x2="230.01" y2="352.06"/>
	</g>
	<g>
		<line class="st3" x1="121.45" y1="138" x2="121.45" y2="424"/>
		<line class="st3" x1="178.55" y1="138" x2="178.55" y2="424"/>
	</g>
</g>
<g id="Text">
	<g>
		<path d="M131.96,83.03h21.01c0,2.16-0.09,4.12-0.27,5.89c-0.18,1.76-0.54,3.4-1.08,4.91c-0.76,2.12-1.78,4-3.08,5.64
			c-1.3,1.64-2.82,3.01-4.56,4.1c-1.75,1.1-3.66,1.94-5.75,2.51c-2.09,0.58-4.28,0.86-6.59,0.86c-3.17,0-6.06-0.52-8.67-1.57
			c-2.61-1.04-4.85-2.51-6.72-4.4c-1.87-1.89-3.33-4.16-4.37-6.8c-1.04-2.65-1.57-5.57-1.57-8.77c0-3.17,0.51-6.07,1.54-8.72
			c1.03-2.65,2.48-4.9,4.37-6.78c1.89-1.87,4.17-3.33,6.83-4.37c2.66-1.04,5.63-1.57,8.91-1.57c4.25,0,7.97,0.92,11.18,2.75
			c3.2,1.84,5.74,4.68,7.61,8.53l-10.04,4.16c-0.94-2.23-2.15-3.83-3.65-4.81c-1.49-0.97-3.19-1.46-5.1-1.46
			c-1.58,0-3.02,0.3-4.32,0.89c-1.3,0.59-2.4,1.44-3.32,2.54c-0.92,1.1-1.64,2.42-2.16,3.97c-0.52,1.55-0.78,3.28-0.78,5.18
			c0,1.73,0.22,3.33,0.67,4.81c0.45,1.48,1.12,2.75,2.03,3.83c0.9,1.08,2.02,1.92,3.35,2.51c1.33,0.59,2.88,0.89,4.64,0.89
			c1.04,0,2.05-0.12,3.02-0.35c0.97-0.23,1.84-0.61,2.62-1.13c0.77-0.52,1.41-1.2,1.92-2.03c0.5-0.83,0.85-1.84,1.03-3.02h-8.69
			V83.03z"/>
		<path d="M189.69,87.62v7.02h-6.48l-1.46,11.18h-8.05l1.46-11.18h-5.24l-1.46,11.18h-7.99l1.51-11.18h-5.62v-7.02h6.48l0.65-5.18
			h-5.51v-6.97h6.43l1.35-10.37h7.94l-1.35,10.37h5.24L179,65.1h7.99l-1.35,10.37h5.51v6.97h-6.37l-0.7,5.18H189.69z M176.73,82.44
			h-5.24l-0.7,5.18h5.24L176.73,82.44z"/>
	</g>
	<g>
		<circle cx="69" cy="172" r="25"/>
	</g>
	<g>
		<circle cx="230" cy="172" r="25"/>
	</g>
	<rect x="66" y="147.25" width="165" height="50"/>
	<g>
		<path class="st4" d="M147.45,163.15h-3.74v-5.64h10.4v25.64h-6.66V163.15z"/>
	</g>
	<g>
		<circle cx="69" cy="316" r="25"/>
	</g>
	<g>
		<path class="st4" d="M67.44,314.81c0.18,0.02,0.33,0.03,0.46,0.03c0.12,0,0.23,0,0.32,0c0.84,0,1.52-0.25,2.04-0.75
			c0.52-0.5,0.78-1.14,0.78-1.94c0-0.77-0.24-1.39-0.73-1.87c-0.49-0.48-1.12-0.71-1.89-0.71c-0.82,0-1.47,0.27-1.97,0.82
			c-0.5,0.54-0.75,1.25-0.75,2.11h-6.15c0.16-1.34,0.49-2.53,1-3.57s1.16-1.92,1.96-2.64c0.79-0.71,1.72-1.26,2.79-1.63
			c1.06-0.37,2.24-0.56,3.54-0.56c1.27,0,2.42,0.18,3.45,0.53c1.03,0.35,1.92,0.85,2.65,1.5c0.74,0.65,1.3,1.43,1.7,2.35
			c0.4,0.92,0.59,1.94,0.59,3.08c0,1.22-0.23,2.23-0.7,3.01s-1.13,1.46-1.99,2.02c1.31,0.41,2.34,1.14,3.08,2.19
			c0.74,1.05,1.11,2.35,1.11,3.89c0,1.27-0.25,2.43-0.75,3.47c-0.5,1.04-1.2,1.94-2.09,2.69c-0.9,0.75-1.96,1.33-3.2,1.73
			c-1.24,0.41-2.59,0.61-4.06,0.61c-1.97,0-3.75-0.39-5.34-1.16c-1.59-0.77-2.86-1.99-3.81-3.67c-0.43-0.75-0.72-1.5-0.87-2.24
			s-0.22-1.51-0.22-2.28H65c0.04,1.2,0.4,2.11,1.05,2.74c0.66,0.62,1.54,0.94,2.65,0.94c1.18,0,2.04-0.32,2.58-0.95
			s0.82-1.42,0.82-2.35c0-1.11-0.33-1.95-0.99-2.52c-0.66-0.57-1.44-0.85-2.35-0.85c-0.23,0-0.44,0.02-0.65,0.05
			s-0.43,0.07-0.68,0.12V314.81z"/>
	</g>
	<g>
		<circle cx="179" cy="244" r="25"/>
	</g>
	<g>
		<path class="st4" d="M188.87,258.45h-20.64l6.36-6.6c1.68-1.75,2.99-3.22,3.94-4.44c0.95-1.21,1.66-2.24,2.12-3.08
			c0.46-0.84,0.75-1.52,0.87-2.04c0.11-0.52,0.17-0.96,0.17-1.33c0-0.39-0.06-0.76-0.19-1.12c-0.12-0.36-0.31-0.69-0.56-0.97
			c-0.25-0.28-0.55-0.51-0.9-0.68s-0.76-0.25-1.24-0.25c-0.91,0-1.62,0.29-2.12,0.88c-0.51,0.59-0.77,1.33-0.77,2.21
			c0,0.25,0.03,0.61,0.1,1.09h-7.28c0-1.5,0.24-2.86,0.73-4.08c0.49-1.22,1.17-2.28,2.06-3.16s1.93-1.56,3.14-2.04
			c1.21-0.48,2.54-0.71,4-0.71c1.43,0,2.75,0.23,3.96,0.68c1.21,0.45,2.26,1.09,3.15,1.9s1.58,1.79,2.07,2.91
			c0.5,1.12,0.75,2.34,0.75,3.66c0,1.41-0.3,2.7-0.9,3.89c-0.6,1.19-1.56,2.41-2.87,3.66l-4.25,3.98h8.3V258.45z"/>
	</g>
	<g>
		<path d="M22.52,166.28c0.29,0.04,0.53,0.05,0.73,0.05c0.2,0,0.37,0,0.51,0c1.33,0,2.41-0.4,3.24-1.19
			c0.83-0.79,1.24-1.82,1.24-3.08c0-1.22-0.39-2.21-1.16-2.97c-0.77-0.76-1.77-1.13-3-1.13c-1.3,0-2.34,0.43-3.13,1.3
			c-0.79,0.86-1.19,1.98-1.19,3.35H9.99c0.25-2.12,0.78-4.01,1.59-5.67c0.81-1.66,1.84-3.05,3.1-4.19c1.26-1.13,2.74-2,4.43-2.59
			c1.69-0.59,3.56-0.89,5.62-0.89c2.02,0,3.84,0.28,5.48,0.84c1.64,0.56,3.04,1.35,4.21,2.38c1.17,1.03,2.07,2.27,2.7,3.73
			c0.63,1.46,0.95,3.09,0.95,4.89c0,1.94-0.37,3.54-1.11,4.78c-0.74,1.24-1.79,2.31-3.16,3.21c2.09,0.65,3.72,1.81,4.89,3.48
			c1.17,1.67,1.76,3.74,1.76,6.18c0,2.02-0.4,3.85-1.19,5.51c-0.79,1.66-1.9,3.08-3.32,4.27c-1.42,1.19-3.11,2.11-5.08,2.75
			c-1.96,0.65-4.11,0.97-6.45,0.97c-3.13,0-5.96-0.61-8.48-1.84c-2.52-1.22-4.54-3.17-6.05-5.83c-0.68-1.19-1.14-2.38-1.38-3.56
			c-0.23-1.19-0.35-2.39-0.35-3.62h10.48c0.07,1.91,0.63,3.36,1.67,4.35c1.04,0.99,2.45,1.49,4.21,1.49c1.87,0,3.24-0.5,4.1-1.51
			c0.86-1.01,1.3-2.25,1.3-3.73c0-1.76-0.52-3.1-1.57-4c-1.04-0.9-2.29-1.35-3.73-1.35c-0.36,0-0.7,0.03-1.03,0.08
			c-0.32,0.05-0.68,0.12-1.08,0.19V166.28z"/>
	</g>
</g>
</svg>
